<svg id="Layer_1" data-name="Layer 1" xmlns="http://www.w3.org/2000/svg" viewBox="0 0 541.62 610.38"><defs><style>.cls-1{fill:#64a152;}.cls-1,.cls-2,.cls-7{stroke:#000;}.cls-1,.cls-2,.cls-5,.cls-6,.cls-7{stroke-miterlimit:10;}.cls-1,.cls-6,.cls-7{stroke-width:4px;}.cls-1,.cls-3,.cls-4{isolation:isolate;}.cls-2,.cls-5,.cls-6,.cls-7{fill:none;}.cls-2,.cls-5{stroke-width:3px;}.cls-4{fill:#fff;}.cls-5,.cls-6{stroke:#458bd2;}</style></defs><title>Poypoy</title><path class="cls-1" d="M233.83,518.79c-11.3-65.28-41.85-84-61.32-104.49-22.59-23.76-34.55-26.93-52-51.53C90.79,321.07,87,276.47,85.94,262.29c-2.06-28-6.44-214.19,196.85-180.36,4.64.77,62.93,17.23,71.63,45.34,1.1,3.57,2.83,12,9.79,20.1,8,9.42,14.83,8.84,21.64,16.49,7.86,8.83,5.16,14.5,8.2,28.6,5.47,25.36,14.64,23.48,20.87,40.06,5.44,14.49,1.54,47.73-17.73,88.51.31.05,7.67,1.36,9.14,6s-3.74,9.78-12.58,14.3c-2,13.22-9,48.47-38.69,79.31a144.58,144.58,0,0,1-59.6,37.1l-2.73,16.06a81.83,81.83,0,0,0,1.64,34.95l1.33,4.94"/><path class="cls-2" d="M143.51,197c25.61-29.29,41-34.77,68.88-36.74,21.29-1.5,32.37,1.34,53.14-5.25,26.22-8.32,27.51-21.61,46.9-24.27,11.37-1.56,28.11,1.54,50.84,23.29"/><path class="cls-3" d="M160.48,226.24c-5,30.06,22.65,46.44,25.27,48.18,21.45,14.3,82.23,9.38,90.69-24.9,6-24.31-23.09-57.62-55.86-60.52C195.72,186.8,164.54,201.71,160.48,226.24Z"/><path class="cls-4" d="M164.12,227.15c-4.68,28.31,21.33,43.75,23.8,45.39,20.21,13.47,77.47,8.83,85.44-23.46,5.65-22.9-21.75-54.29-52.63-57C197.31,190,167.94,204,164.12,227.15Z"/><path class="cls-3" d="M374.87,201.14a14.65,14.65,0,0,0-11.32,6.1c-14.32,18.69-14.48,77.46,19.8,73.89,14.84-1.55,17.8-27.5,18.21-30.88,2.52-20.81-15.53-46.5-24.39-48.95A11.65,11.65,0,0,0,374.87,201.14Z"/><path class="cls-4" d="M374.75,204.52a13.39,13.39,0,0,0-10.36,5.58c-13.1,17.1-13.25,70.86,18.11,67.59,13.58-1.41,16.29-25.15,16.66-28.24,2.31-19-14.21-42.54-22.31-44.79A11.18,11.18,0,0,0,374.75,204.52Z"/><path class="cls-2" d="M393.47,341.07c-16.69,5.87-40,11.56-61.65,14.52C252.56,366.41,187.4,341.86,153,325.41"/><path class="cls-3" d="M331.82,355.59a138.14,138.14,0,0,1-139.43-13l6.37,1.71a380.44,380.44,0,0,0,133.06,11.32Z"/><path class="cls-2" d="M197.94,354.33a123.14,123.14,0,0,0,103.25,21.89"/><path class="cls-2" d="M280.92,252.18a104.47,104.47,0,0,1-45,62.59"/><path class="cls-2" d="M346.24,247.42A62.32,62.32,0,0,0,381,296.9"/><ellipse class="cls-3" cx="377.14" cy="239.88" rx="13.55" ry="23.42"/><ellipse class="cls-5" cx="377.39" cy="239.49" rx="5.49" ry="10.02"/><ellipse class="cls-3" cx="231.4" cy="239.01" rx="28.39" ry="26.89"/><circle class="cls-6" cx="234.74" cy="239.32" r="15.39"/><path class="cls-7" d="M250.69,456.19a147.31,147.31,0,0,0,46.83.76"/></svg>