<svg id="Layer_1" data-name="Layer 1" xmlns="http://www.w3.org/2000/svg" viewBox="0 0 541.62 610.38"><defs><style>.cls-1{fill:#64a152;stroke-width:4px;}.cls-1,.cls-2,.cls-3{stroke:#000;}.cls-1,.cls-2,.cls-3,.cls-5{stroke-miterlimit:10;}.cls-1,.cls-4,.cls-6{isolation:isolate;}.cls-2,.cls-5{fill:none;}.cls-2,.cls-3,.cls-5{stroke-width:3px;}.cls-3,.cls-6,.cls-7{fill:#fff;}.cls-5{stroke:#458bd2;}</style></defs><title>Poypoy</title><path class="cls-1" d="M252.84,528.05c-6.26-35.6-21.42-71.43-58.31-103.17-14.5-12.48-19.93-15.73-32.77-26.25C120.42,364.73,100.22,298,105,237.25c.5-6.42,10.84-109.79,99.4-141.45,59.79-21.37,149.76-6.23,173,50.52,4.87,11.89,16.55,16.67,25.37,25.31,12.9,12.65,6,30.43,16.84,44.77,26,34.4,18.63,46.41,18.63,46.41s7.68,0,9.25,6.48c9.49,39-34.23,85.56-34.23,85.56s-24,103-98,111.92h0S304.42,512,315.59,524"/><path class="cls-2" d="M164.46,206.64c12.59-13.12,28.83-25.3,49.53-31.55,29-8.75,46.64,2.49,75.4-7.51s25.73-26.28,46.78-27.34c19.6-1,36.13,15,46.59,25.38"/><path class="cls-3" d="M196.53,273.35c-2.19-2.13-17.18-17.23-14.11-36.68,3.34-21.12,25.39-30.94,31-33.16,24.33-9.57,56.22-1,71.61,22.22,2.64,4,15.46,24.49,7.4,41.63C279.84,294.23,222.49,298.7,196.53,273.35Z"/><path class="cls-3" d="M390.2,289.55c-19.23-15.16-21.49-75.88,8.61-77.15,20.14-.85,25.76,50,23.54,52.23"/><path class="cls-1" d="M137,293.37c12.5-24.86,40-36.51,63-28.92,17.42,5.76,30.33,22,33.58,41.52"/><ellipse class="cls-4" cx="245.19" cy="250.92" rx="33.68" ry="29.61"/><ellipse class="cls-5" cx="249.1" cy="250.01" rx="20.71" ry="16.97"/><circle class="cls-6" cx="236.02" cy="258.55" r="11.87"/><circle class="cls-6" cx="266.64" cy="250.85" r="7.71"/><path class="cls-2" d="M302.34,263.6a70.57,70.57,0,0,1-22.09,35.63"/><path class="cls-2" d="M365.86,257.8a85.26,85.26,0,0,0,17.4,38.66"/><path class="cls-2" d="M170.22,288.39c7,7.57,61.17,57.82,145.28,58.25,86.32.45,113.08-50.91,121.77-60.7"/><path class="cls-1" d="M438.19,262.81a55.23,55.23,0,0,0-17.71,3.07c-18.06,6.31-27.57,20.42-30.8,25.79"/><ellipse class="cls-4" cx="397.84" cy="250.52" rx="13.34" ry="23.03"/><ellipse class="cls-5" cx="397.47" cy="250.52" rx="4.78" ry="9.86"/><circle class="cls-6" cx="392.57" cy="253.85" r="5.57"/><ellipse class="cls-7" cx="403.84" cy="244.47" rx="6" ry="3.82"/><path class="cls-2" d="M315.37,466.74c-6.12,1.32-32.74,0-39.57-5.08"/></svg>