<svg id="Layer_1" data-name="Layer 1" xmlns="http://www.w3.org/2000/svg" viewBox="0 0 541.62 610.38"><defs><style>.cls-1,.cls-2,.cls-7{fill:#64a152;}.cls-1,.cls-2,.cls-5,.cls-7,.cls-9{stroke:#000;}.cls-1,.cls-2,.cls-5,.cls-6,.cls-7,.cls-9{stroke-miterlimit:10;}.cls-1,.cls-2,.cls-5{stroke-width:4px;}.cls-1,.cls-3,.cls-4,.cls-7{isolation:isolate;}.cls-4,.cls-8{fill:#fff;}.cls-5,.cls-6,.cls-9{fill:none;}.cls-6{stroke:#458bd2;}.cls-6,.cls-7,.cls-9{stroke-width:3px;}</style></defs><title>Poypoy</title><path class="cls-1" d="M299.19,510c-11.3-65.29-41.85-84-61.32-104.49-22.59-23.77-34.55-26.93-52.05-51.53-29.67-41.7-33.49-86.3-34.53-100.49-2-28-6.43-214.18,196.85-180.36,4.64.77,62.93,17.24,71.63,45.35,1.11,3.57,2.84,12,9.79,20.1,8.05,9.41,14.83,8.84,21.65,16.49,7.86,8.82,5.16,14.49,8.2,28.59,5.47,25.37,14.64,23.49,20.86,40.06,5.44,14.49,1.55,47.74-17.73,88.52.32.05,7.68,1.36,9.15,6s-3.74,9.79-12.59,14.31c-2,13.22-9,48.47-38.68,79.3A144.53,144.53,0,0,1,360.81,449l-2.73,16.06A81.93,81.93,0,0,0,359.73,500l1.33,4.95"/><path class="cls-2" d="M208.86,188.19c25.62-29.29,41-34.76,68.88-36.73,21.3-1.51,32.38,1.34,53.14-5.25,26.22-8.33,27.52-21.61,46.91-24.27,11.37-1.57,28.11,1.54,50.84,23.29"/><path class="cls-3" d="M440.23,192.38c-4.63,0-8.41,2.29-11.33,6.09-14.32,18.7-13.43,83,19.8,73.9C486.9,261.86,460.19,192.36,440.23,192.38Z"/><path class="cls-4" d="M440.11,195.76c-24.05-1-24.44,81.57,7.75,73.17C480.24,260.48,457.54,196.51,440.11,195.76Z"/><path class="cls-5" d="M458.82,332.31c-16.68,5.87-40,11.56-61.65,14.51-79.26,10.82-144.41-13.73-178.81-30.17"/><path class="cls-3" d="M397.17,346.82a138.15,138.15,0,0,1-139.42-13l6.37,1.7a379.93,379.93,0,0,0,133.05,11.32Z"/><path class="cls-5" d="M262.66,346.84c8.56,6.52,52.83,31.85,103.89,20.62"/><path class="cls-5" d="M346.27,243.42a104.59,104.59,0,0,1-45,62.59"/><path class="cls-5" d="M411.59,238.65a62.38,62.38,0,0,0,34.71,49.49"/><ellipse class="cls-3" cx="434.98" cy="238.53" rx="13.55" ry="24.86"/><ellipse class="cls-6" cx="435.23" cy="238.11" rx="5.49" ry="10.64"/><path class="cls-5" d="M326.87,228.41a71.08,71.08,0,0,1-11.94,16.79c-27.65,28.8-71.2,24.21-79.85,23.13"/><path class="cls-7" d="M181.31,493.3c-4.49-17.86-1.33-25.92,2.6-30,7.93-8.15,20.42-1.41,32.14-10.86,8.31-6.7,11.13-16.76,7.36-22.33-4.88-7.2-23.79-7.43-36.89,2.79-8.77,6.85-10.31,13.26-17.53,15.83-10.66,3.8-25.16-4-31.11-18-3.75-8.8-3.95-22.12,5.22-30.83,7.35-7,19.48-9.83,27.35-5.21,12.3,7.21,6.61,28.17,16.5,31.7,6.56,2.33,16.32-4.23,20-11.73,6.42-13.16-14.09-65.21-50.82-47.85-14.93,7.06-23.23,25.3-28.21,24-4.74-1.27-5.45-16.06-4.34-27.36,2.36-24.28,13.09-31.62,16.73-55.93,1.83-12.23,2.3-31-5-33.09-17.79-5.18-20.5,37.83-22.58,66-2,27.32-10.3,51.56-13,51.24s-8.14-23.45.37-47c13.43-37.17,20.91-62.43,12.87-70C102.85,265.26,94,277.05,94,277.05s-4.62-2.33-7.67-2.55c-7.15-.5-18,17.31-24.94,39.22-8.66,27.2-30.66,177,99.87,208.29"/><path class="cls-8" d="M77.22,349.16c-1.81,10.9-3.63,19.17-5,24.95-.14.58-2.63,10.8-.38,20.78.28,1.27.77,3.1,1.79,3.28,2.09.36,5.06-6.44,6.33-10.44a36.9,36.9,0,0,0,.84-21.36Z"/><path class="cls-9" d="M92.69,276.84c9.92,10-1.42,37.58-14.52,69.71-6.22,15.27-11,61.08-1.63,50,3.25-3.83,6.32-12.56,1.63-50"/><path class="cls-5" d="M315.17,448a148,148,0,0,0,24.93,2.26A146.21,146.21,0,0,0,362,448.78"/></svg>