
<svg width="331" height="266" viewBox="0 0 331 266" fill="none" xmlns="http://www.w3.org/2000/svg">
<g filter="url(#filter0_d_90_49)">
<path d="M324.604 106.175L318.509 70.8568C312.684 37.1047 284.734 11.5865 250.592 8.85043L165.353 2.01945C165.192 2.0065 165.03 2.00666 164.868 2.01993L80.2492 8.97078C47.4673 11.6636 20.2652 35.4021 13.16 67.5179L7.49603 93.1189C2.80478 114.323 7.53519 136.52 20.464 153.97L40.543 181.069C53.5957 198.686 73.7037 209.709 95.5757 211.237L133.68 213.9C134.585 213.963 135.412 214.432 135.931 215.176L165.111 257L160.158 237.188C157.443 226.327 161.985 214.948 171.432 208.942C171.549 208.868 171.684 208.829 171.823 208.829H181.875C205.284 208.829 228.612 206.07 251.375 200.611L266.198 197.056C290.241 191.289 309.897 174.043 318.742 150.955L320.732 145.76C325.562 133.154 326.899 119.478 324.604 106.175Z" fill="white" stroke="black" stroke-width="3"/>
</g>
<defs>
<filter id="filter0_d_90_49" x="4.22461" y="0.509766" width="325.971" height="265.348" filterUnits="userSpaceOnUse" color-interpolation-filters="sRGB">
<feFlood flood-opacity="0" result="BackgroundImageFix"/>
<feColorMatrix in="SourceAlpha" type="matrix" values="0 0 0 0 0 0 0 0 0 0 0 0 0 0 0 0 0 0 127 0" result="hardAlpha"/>
<feOffset dx="3" dy="8"/>
<feComposite in2="hardAlpha" operator="out"/>
<feColorMatrix type="matrix" values="0 0 0 0 0 0 0 0 0 0 0 0 0 0 0 0 0 0 0.25 0"/>
<feBlend mode="normal" in2="BackgroundImageFix" result="effect1_dropShadow_90_49"/>
<feBlend mode="normal" in="SourceGraphic" in2="effect1_dropShadow_90_49" result="shape"/>
</filter>
</defs>
</svg>
