
<svg width="324" height="258" viewBox="0 0 324 258" fill="none" xmlns="http://www.w3.org/2000/svg">
<path d="M3.50732 106.175L9.60214 70.8568C15.4266 37.1047 43.3771 11.5865 77.5186 8.85043L162.757 2.01945C162.919 2.0065 163.081 2.00666 163.243 2.01993L247.862 8.97078C280.644 11.6636 307.846 35.4021 314.951 67.5179L320.615 93.1189C325.306 114.323 320.576 136.52 307.647 153.97L287.568 181.069C274.515 198.686 254.407 209.709 232.535 211.237L194.431 213.9C193.526 213.963 192.698 214.432 192.179 215.176L163 257L167.953 237.188C170.668 226.327 166.126 214.948 156.679 208.942C156.562 208.868 156.426 208.829 156.288 208.829H146.236C122.827 208.829 99.4993 206.07 76.7357 200.611L61.9132 197.056C37.8699 191.289 18.2135 174.043 9.36835 150.955L7.37836 145.76C2.5491 133.154 1.21173 119.478 3.50732 106.175Z" fill="white" stroke="black" stroke-width="3"/>
</svg>
