
<svg width="312" height="249" viewBox="0 0 312 249" fill="none" xmlns="http://www.w3.org/2000/svg">
<g filter="url(#filter0_d_53_7452)">
<path d="M86.3334 2.57279C89.4942 2.34926 92.9628 2.09779 94.0257 2.04191C95.0887 1.98603 99.9558 1.98603 104.795 2.04191C109.634 2.09779 115.061 2.26544 116.823 2.43308C118.585 2.57279 121.55 2.90808 123.397 3.13161C125.243 3.35513 128.907 3.80219 131.509 4.10954C134.11 4.41689 137.886 4.86394 139.9 5.11541C141.914 5.33894 145.047 5.70217 146.893 5.9257C148.739 6.14923 154.53 6.84775 159.76 7.46245C164.991 8.07715 170.278 8.69185 171.509 8.85949C172.74 8.9992 175.817 9.39037 178.362 9.69772C180.824 9.99505 185.434 10.5277 188.796 10.9163L189.131 10.9551C192.516 11.3742 196.796 11.8771 198.642 12.0727C200.488 12.2962 205.719 12.9389 210.25 13.4697C214.782 14.0006 220.572 14.6991 223.118 15.0065C225.663 15.3138 230.95 15.9285 234.866 16.4035C238.782 16.8506 243.369 17.4094 245.076 17.6329C247.23 17.9123 249.3 18.4432 251.929 19.3653C253.999 20.0917 257.076 21.3211 258.782 22.1035C260.488 22.9138 262.81 24.1152 263.957 24.7858C265.104 25.4564 267.202 26.7417 268.572 27.6637C269.943 28.5858 272.349 30.374 273.887 31.6034C275.426 32.8607 277.943 35.1239 279.51 36.6607C281.048 38.1974 283.426 40.768 284.768 42.3886C286.111 44.0092 288.573 47.3341 290.195 49.7929C291.845 52.2517 294.223 56.2752 295.454 58.734C296.712 61.1928 298.363 64.7693 299.146 66.6972C299.901 68.6251 300.852 71.1398 301.244 72.2854C301.636 73.4309 302.419 76.0294 302.978 78.0132C303.538 79.997 304.293 83.0985 304.657 84.8588C305.02 86.619 305.524 89.3293 305.748 90.8661C305.999 92.4028 306.335 94.8616 306.503 96.3145C306.643 97.7675 306.839 101.791 306.95 105.256C307.062 109.95 306.978 112.856 306.643 116.711C306.391 119.561 305.943 123.333 305.664 125.094C305.356 126.854 304.852 129.564 304.517 131.101C304.181 132.638 303.482 135.348 302.95 137.108C302.447 138.869 301.468 141.886 300.768 143.814C300.097 145.742 299.146 148.173 298.699 149.263C298.251 150.352 297.468 152.085 296.964 153.174C296.489 154.264 295.314 156.443 294.391 158.064C293.468 159.685 292.013 162.004 291.146 163.233C290.307 164.462 288.824 166.418 287.901 167.564C286.978 168.709 284.964 170.973 283.426 172.565C281.859 174.158 279.342 176.477 277.803 177.762C276.265 179.02 273.803 180.864 272.349 181.87C270.894 182.875 268.433 184.412 266.894 185.334C265.356 186.228 262.475 187.737 260.461 188.687C258.447 189.637 255.817 190.839 254.586 191.314C253.356 191.817 250.53 192.85 248.293 193.605C246.055 194.359 242.083 195.533 239.481 196.203C236.88 196.874 233.16 197.74 231.23 198.131C229.299 198.494 226.586 199.025 225.215 199.249C223.845 199.472 220.74 199.919 218.362 200.227C215.985 200.534 212.013 200.981 209.551 201.233C207.089 201.456 202.866 201.764 200.18 201.931C197.495 202.099 187.621 202.35 178.222 202.49C168.823 202.658 158.446 202.881 155.145 203.049C151.844 203.189 145.607 203.44 141.299 203.58C136.991 203.747 130.697 203.943 121.159 204.222L120.152 205.955C119.592 206.877 118.334 208.721 117.355 210.034C116.375 211.347 114.194 213.806 112.487 215.483C110.809 217.187 108.348 219.394 107.033 220.428C105.718 221.434 103.592 222.943 102.278 223.809C100.963 224.647 98.6411 226.044 97.1027 226.882C95.5642 227.721 92.683 229.146 90.669 230.012C88.655 230.906 86.0816 231.968 84.9347 232.387C83.7879 232.806 81.1305 233.672 79.0606 234.287C76.9906 234.929 73.3263 235.879 70.9486 236.41C68.571 236.941 64.9905 237.612 62.9765 237.919C60.9625 238.226 58.445 238.562 57.3821 238.673C56.415 238.75 55.1933 238.872 54.5594 238.936L54.389 238.953C53.8016 239.037 53.3261 239.009 53.3261 238.869C53.2981 238.757 54.1653 238.115 55.2002 237.416C56.2352 236.718 58.1094 235.153 59.3681 233.924C60.5989 232.694 62.1933 230.878 62.8926 229.872C63.5919 228.866 64.7388 226.938 65.4381 225.541C66.1374 224.144 67.0884 221.825 67.5639 220.372C68.0115 218.919 68.6829 216.265 69.0185 214.505C69.4941 211.99 69.6339 210.174 69.6899 201.009L67.3122 200.506C65.9975 200.227 64.0395 199.808 62.9765 199.556C61.9136 199.305 59.2562 198.578 57.1024 197.964C54.9485 197.321 51.7876 196.259 50.1093 195.589C48.431 194.918 45.7736 193.689 44.2351 192.906C42.6967 192.096 40.5148 190.811 39.368 190.056C38.2211 189.274 36.4029 187.905 35.312 186.955C34.2211 186.033 32.3749 184.161 31.228 182.82C30.0812 181.478 28.4028 179.355 27.5077 178.098C26.5846 176.84 25.0741 174.493 24.0951 172.873C23.1161 171.252 21.4377 168.179 20.3748 166.027C19.2839 163.876 17.9412 161.054 17.3818 159.74C16.8223 158.427 15.9272 156.248 15.3678 154.851C14.8363 153.454 13.8293 150.771 13.13 148.843C12.4587 146.916 11.3398 143.535 10.6685 141.299C9.99714 139.064 8.87822 135.041 8.20688 132.358C7.50758 129.676 6.5006 125.261 5.96912 122.579C5.40968 119.897 4.71038 116.125 4.40268 114.197C4.09499 112.269 3.59148 108.692 3.28379 106.234C2.97609 103.775 2.55648 99.863 2.36068 97.5719C2.1369 95.0851 1.99707 89.3014 1.99707 83.322C1.99707 76.9235 2.1369 72.006 2.36068 69.7707C2.58446 67.8428 3.03204 64.3781 3.42365 62.0869C3.78729 59.7678 4.40267 56.5826 4.79428 54.962C5.18589 53.3414 5.88519 50.8267 6.36072 49.3738C6.83625 47.9209 7.5915 45.7974 8.03906 44.6797C8.48662 43.59 9.35377 41.6621 9.96916 40.4327C10.5846 39.2033 11.5356 37.471 12.095 36.5769C12.6545 35.7107 13.8293 34.1181 14.6685 33.0284C15.5076 31.9387 17.7174 29.5637 19.5916 27.7196C21.4377 25.8755 24.235 23.4167 25.7735 22.2711C27.3119 21.1256 29.8294 19.3932 31.3679 18.4153C32.9064 17.4374 36.1791 15.6491 38.6407 14.4477C41.1022 13.2462 44.2351 11.8212 45.6337 11.2904C47.0324 10.7595 49.6897 9.80948 51.5918 9.16684C53.466 8.5242 56.9345 7.51833 59.2562 6.93157C61.6059 6.31687 65.1584 5.50658 67.1724 5.11541C69.1864 4.72424 73.0186 4.10954 75.7039 3.71837C78.3893 3.32719 83.1725 2.82426 86.3334 2.57279Z" fill="white" stroke="black" stroke-width="3"/>
</g>
<defs>
<filter id="filter0_d_53_7452" x="0.49707" y="0.5" width="311" height="248" filterUnits="userSpaceOnUse" color-interpolation-filters="sRGB">
<feFlood flood-opacity="0" result="BackgroundImageFix"/>
<feColorMatrix in="SourceAlpha" type="matrix" values="0 0 0 0 0 0 0 0 0 0 0 0 0 0 0 0 0 0 127 0" result="hardAlpha"/>
<feOffset dx="3" dy="8"/>
<feComposite in2="hardAlpha" operator="out"/>
<feColorMatrix type="matrix" values="0 0 0 0 0 0 0 0 0 0 0 0 0 0 0 0 0 0 0.25 0"/>
<feBlend mode="normal" in2="BackgroundImageFix" result="effect1_dropShadow_53_7452"/>
<feBlend mode="normal" in="SourceGraphic" in2="effect1_dropShadow_53_7452" result="shape"/>
</filter>
</defs>
</svg>
