
<svg width="321" height="238" viewBox="0 0 321 238" fill="none" xmlns="http://www.w3.org/2000/svg">
<g filter="url(#filter0_d_53_7453)">
<path d="M125.479 2.4866C130.306 2.33012 135.701 2.17361 137.404 2.14753C139.108 2.09537 158.16 2.04321 179.71 2.01713C213.072 1.96497 219.631 2.01714 223.861 2.38227C226.587 2.59091 230.676 3.06034 232.947 3.42547C235.219 3.76452 238.455 4.36437 240.187 4.7295C241.919 5.09463 244.787 5.79881 246.576 6.29434C248.365 6.76379 251.346 7.62445 253.191 8.19822C255.009 8.79807 258.331 9.97169 260.574 10.8584C262.788 11.7191 266.252 13.2318 268.297 14.1967C270.341 15.1617 273.521 16.8048 275.395 17.848C277.269 18.8652 280.08 20.5604 281.67 21.6036C283.231 22.6468 285.787 24.4203 287.348 25.5679C288.882 26.6893 291.607 28.9322 293.396 30.5232C295.156 32.088 297.598 34.4613 298.791 35.7393C300.012 37.0433 301.744 39.0254 302.681 40.1729C303.618 41.3205 305.037 43.1983 305.804 44.3458C306.599 45.4934 307.848 47.4233 308.558 48.6491C309.268 49.8749 310.318 51.857 310.886 53.0828C311.483 54.3086 312.306 56.2907 312.76 57.5165C313.243 58.7423 313.896 60.8548 314.265 62.211C314.663 63.5672 315.174 65.9144 315.486 67.4271C315.884 69.5918 315.997 71.4696 315.997 76.5553C315.969 81.4063 315.855 83.5449 315.486 85.4227C315.202 86.7789 314.805 88.7349 314.549 89.726C314.293 90.717 313.697 92.7774 313.243 94.29C312.76 95.8027 311.823 98.3847 311.114 100.028C310.404 101.671 309.041 104.54 308.047 106.417C307.053 108.295 305.122 111.503 303.76 113.59C302.397 115.676 300.012 119.145 298.422 121.283C296.86 123.448 293.879 127.256 291.834 129.76C289.762 132.263 286.922 135.602 285.474 137.193C284.097 138.736 282.025 140.917 280.84 142.165L280.733 142.278C279.54 143.504 276.729 146.295 274.429 148.511C272.158 150.728 268.183 154.354 265.599 156.57C263.015 158.787 259.04 162.099 252.538 167.185V168.489C252.538 169.219 252.737 171.619 252.936 173.836C253.163 176.053 253.561 179.052 253.816 180.486C254.043 181.921 254.497 184.216 254.81 185.572C255.094 186.928 255.548 188.884 255.804 189.875C256.059 190.866 256.655 192.979 257.11 194.57C257.592 196.161 258.501 198.899 259.126 200.699C259.75 202.498 260.971 205.732 261.823 207.871C262.703 210.035 264.18 213.426 265.117 215.434C266.054 217.442 267.871 221.041 269.177 223.467C270.483 225.866 271.562 227.875 271.562 227.953C271.562 228.031 270.625 228.005 269.518 227.927C268.382 227.848 265.912 227.614 264.038 227.405C262.164 227.196 259.154 226.779 257.365 226.492C255.576 226.205 252.51 225.606 250.551 225.162C248.592 224.745 245.355 223.91 243.311 223.337C241.266 222.763 237.887 221.667 235.786 220.911C233.685 220.155 230.165 218.772 227.978 217.807C225.792 216.842 222.839 215.46 221.448 214.73C220.057 213.974 217.672 212.67 216.195 211.809C214.719 210.948 212.419 209.54 211.084 208.679C209.75 207.819 207.109 205.941 205.207 204.559C203.276 203.15 200.692 201.09 197.143 197.96L192.828 199.577C190.443 200.464 186.609 201.794 184.253 202.524C181.925 203.255 178.517 204.246 176.729 204.741C174.94 205.211 171.731 206.045 169.63 206.541C167.529 207.036 163.554 207.845 160.828 208.366C158.103 208.862 154.071 209.488 151.885 209.801C149.698 210.088 145.61 210.531 142.799 210.766C139.306 211.079 135.133 211.209 129.596 211.209C124.23 211.209 119.885 211.053 116.677 210.766C114.036 210.531 110.203 210.088 108.159 209.801C106.115 209.514 102.622 208.914 100.351 208.471C98.0795 208.053 94.502 207.245 92.4009 206.697C90.2998 206.149 87.347 205.315 85.8705 204.872C84.3941 204.402 81.0721 203.281 78.4883 202.342C75.9045 201.403 71.6739 199.655 69.0617 198.456C66.4211 197.256 62.8436 195.482 61.1116 194.518C59.3513 193.579 57.2786 192.379 56.4836 191.883C55.717 191.362 54.0985 190.319 52.9344 189.536C51.7703 188.728 49.6692 187.215 48.2495 186.12C46.8299 185.024 44.2177 182.781 42.429 181.138C40.6118 179.495 37.9996 176.913 36.5799 175.4C35.1887 173.888 33.0876 171.488 31.8951 170.054C30.7025 168.62 28.715 166.038 27.4657 164.316C26.2164 162.595 24.2573 159.726 23.1216 157.927C21.9859 156.127 20.1119 152.919 18.9478 150.754C17.7553 148.616 15.8813 144.834 14.7456 142.409C13.6099 139.983 12.0483 136.28 11.2532 134.193C10.4582 132.107 9.3509 129.055 8.81143 127.412C8.27196 125.769 7.30661 122.535 6.68196 120.24C6.05731 117.945 5.20551 114.607 4.8364 112.807C4.43889 111.008 3.87103 108.034 3.5587 106.157C3.24638 104.279 2.76369 101.019 2.47976 98.8542C2.08226 95.6984 1.99707 92.8817 1.99707 84.3794C1.99707 74.4428 2.05385 73.556 2.73528 69.1224C3.16118 66.5404 3.81425 63.0195 4.24015 61.2982C4.66605 59.5769 5.43266 56.8384 5.97213 55.2475C6.5116 53.6305 7.39177 51.205 7.95963 49.901C8.5275 48.5709 9.77677 46.015 10.7421 44.2154C11.7359 42.4159 13.2692 39.9122 14.1777 38.6081C15.0863 37.3302 16.7331 35.1394 17.8689 33.7832C19.0046 32.427 21.5884 29.8451 23.6043 28.0194C25.5918 26.2199 28.5163 23.8726 30.0779 22.8033C31.6396 21.734 34.1381 20.1692 35.6146 19.3085C37.091 18.474 39.9587 16.9874 42.003 16.0485C44.0474 15.0835 47.341 13.7273 49.3853 12.9709C51.4296 12.2407 54.2973 11.2757 55.7737 10.8324C57.2502 10.389 60.1179 9.63264 62.1622 9.13711C64.2065 8.64158 67.131 7.98959 68.6926 7.7027C70.2542 7.38974 72.6109 6.97246 73.9454 6.76381C75.2798 6.55517 78.0908 6.16394 80.1918 5.87706C82.2929 5.61625 86.3248 5.14679 89.1357 4.8599C91.9466 4.57302 96.4328 4.15574 99.0733 3.92101C101.714 3.71237 106.768 3.34724 110.289 3.13859C113.809 2.92995 120.652 2.617 125.479 2.4866Z" fill="white"/>
<path d="M125.479 2.4866C130.306 2.33012 135.701 2.17361 137.404 2.14753C139.108 2.09537 158.16 2.04321 179.71 2.01713C213.072 1.96497 219.631 2.01714 223.861 2.38227C226.587 2.59091 230.676 3.06034 232.947 3.42547C235.219 3.76452 238.455 4.36437 240.187 4.7295C241.919 5.09463 244.787 5.79881 246.576 6.29434C248.365 6.76379 251.346 7.62445 253.191 8.19822C255.009 8.79807 258.331 9.97169 260.574 10.8584C262.788 11.7191 266.252 13.2318 268.297 14.1967C270.341 15.1617 273.521 16.8048 275.395 17.848C277.269 18.8652 280.08 20.5604 281.67 21.6036C283.231 22.6468 285.787 24.4203 287.348 25.5679C288.882 26.6893 291.607 28.9322 293.396 30.5232C295.156 32.088 297.598 34.4613 298.791 35.7393C300.012 37.0433 301.744 39.0254 302.681 40.1729C303.618 41.3205 305.037 43.1983 305.804 44.3458C306.599 45.4934 307.848 47.4233 308.558 48.6491C309.268 49.8749 310.318 51.857 310.886 53.0828C311.483 54.3086 312.306 56.2907 312.76 57.5165C313.243 58.7423 313.896 60.8548 314.265 62.211C314.663 63.5672 315.174 65.9144 315.486 67.4271C315.884 69.5918 315.997 71.4696 315.997 76.5553C315.969 81.4063 315.855 83.5449 315.486 85.4227C315.202 86.7789 314.805 88.7349 314.549 89.726C314.293 90.717 313.697 92.7774 313.243 94.29C312.76 95.8027 311.823 98.3847 311.114 100.028C310.404 101.671 309.041 104.54 308.047 106.417C307.053 108.295 305.122 111.503 303.76 113.59C302.397 115.676 300.012 119.145 298.422 121.283C296.86 123.448 293.879 127.256 291.834 129.76C289.762 132.263 286.922 135.602 285.474 137.193C284.097 138.736 282.025 140.917 280.84 142.165L280.733 142.278C279.54 143.504 276.729 146.295 274.429 148.511C272.158 150.728 268.183 154.354 265.599 156.57C263.015 158.787 259.04 162.099 252.538 167.185V168.489C252.538 169.219 252.737 171.619 252.936 173.836C253.163 176.053 253.561 179.052 253.816 180.486C254.043 181.921 254.497 184.216 254.81 185.572C255.094 186.928 255.548 188.884 255.804 189.875C256.059 190.866 256.655 192.979 257.11 194.57C257.592 196.161 258.501 198.899 259.126 200.699C259.75 202.498 260.971 205.732 261.823 207.871C262.703 210.035 264.18 213.426 265.117 215.434C266.054 217.442 267.871 221.041 269.177 223.467C270.483 225.866 271.562 227.875 271.562 227.953C271.562 228.031 270.625 228.005 269.518 227.927C268.382 227.848 265.912 227.614 264.038 227.405C262.164 227.196 259.154 226.779 257.365 226.492C255.576 226.205 252.51 225.606 250.551 225.162C248.592 224.745 245.355 223.91 243.311 223.337C241.266 222.763 237.887 221.667 235.786 220.911C233.685 220.155 230.165 218.772 227.978 217.807C225.792 216.842 222.839 215.46 221.448 214.73C220.057 213.974 217.672 212.67 216.195 211.809C214.719 210.948 212.419 209.54 211.084 208.679C209.75 207.819 207.109 205.941 205.207 204.559C203.276 203.15 200.692 201.09 197.143 197.96L192.828 199.577C190.443 200.464 186.609 201.794 184.253 202.524C181.925 203.255 178.517 204.246 176.729 204.741C174.94 205.211 171.731 206.045 169.63 206.541C167.529 207.036 163.554 207.845 160.828 208.366C158.103 208.862 154.071 209.488 151.885 209.801C149.698 210.088 145.61 210.531 142.799 210.766C139.306 211.079 135.133 211.209 129.596 211.209C124.23 211.209 119.885 211.053 116.677 210.766C114.036 210.531 110.203 210.088 108.159 209.801C106.115 209.514 102.622 208.914 100.351 208.471C98.0795 208.053 94.502 207.245 92.4009 206.697C90.2998 206.149 87.347 205.315 85.8705 204.872C84.3941 204.402 81.0721 203.281 78.4883 202.342C75.9045 201.403 71.6739 199.655 69.0617 198.456C66.4211 197.256 62.8436 195.482 61.1116 194.518C59.3513 193.579 57.2786 192.379 56.4836 191.883C55.717 191.362 54.0985 190.319 52.9344 189.536C51.7703 188.728 49.6692 187.215 48.2495 186.12C46.8299 185.024 44.2177 182.781 42.429 181.138C40.6118 179.495 37.9996 176.913 36.5799 175.4C35.1887 173.888 33.0876 171.488 31.8951 170.054C30.7025 168.62 28.715 166.038 27.4657 164.316C26.2164 162.595 24.2573 159.726 23.1216 157.927C21.9859 156.127 20.1119 152.919 18.9478 150.754C17.7553 148.616 15.8813 144.834 14.7456 142.409C13.6099 139.983 12.0483 136.28 11.2532 134.193C10.4582 132.107 9.3509 129.055 8.81143 127.412C8.27196 125.769 7.30661 122.535 6.68196 120.24C6.05731 117.945 5.20551 114.607 4.8364 112.807C4.43889 111.008 3.87103 108.034 3.5587 106.157C3.24638 104.279 2.76369 101.019 2.47976 98.8542C2.08226 95.6984 1.99707 92.8817 1.99707 84.3794C1.99707 74.4428 2.05385 73.556 2.73528 69.1224C3.16118 66.5404 3.81425 63.0195 4.24015 61.2982C4.66605 59.5769 5.43266 56.8384 5.97213 55.2475C6.5116 53.6305 7.39177 51.205 7.95963 49.901C8.5275 48.5709 9.77677 46.015 10.7421 44.2154C11.7359 42.4159 13.2692 39.9122 14.1777 38.6081C15.0863 37.3302 16.7331 35.1394 17.8689 33.7832C19.0046 32.427 21.5884 29.8451 23.6043 28.0194C25.5918 26.2199 28.5163 23.8726 30.0779 22.8033C31.6396 21.734 34.1381 20.1692 35.6146 19.3085C37.091 18.474 39.9587 16.9874 42.003 16.0485C44.0474 15.0835 47.341 13.7273 49.3853 12.9709C51.4296 12.2407 54.2973 11.2757 55.7737 10.8324C57.2502 10.389 60.1179 9.63264 62.1622 9.13711C64.2065 8.64158 67.131 7.98959 68.6926 7.7027C70.2542 7.38974 72.6109 6.97246 73.9454 6.76381C75.2798 6.55517 78.0908 6.16394 80.1918 5.87706C82.2929 5.61625 86.3248 5.14679 89.1357 4.8599C91.9466 4.57302 96.4328 4.15574 99.0733 3.92101C101.714 3.71237 106.768 3.34724 110.289 3.13859C113.809 2.92995 120.652 2.617 125.479 2.4866Z" stroke="black" stroke-width="3"/>
</g>
<defs>
<filter id="filter0_d_53_7453" x="0.49707" y="0.499908" width="320" height="237" filterUnits="userSpaceOnUse" color-interpolation-filters="sRGB">
<feFlood flood-opacity="0" result="BackgroundImageFix"/>
<feColorMatrix in="SourceAlpha" type="matrix" values="0 0 0 0 0 0 0 0 0 0 0 0 0 0 0 0 0 0 127 0" result="hardAlpha"/>
<feOffset dx="3" dy="8"/>
<feComposite in2="hardAlpha" operator="out"/>
<feColorMatrix type="matrix" values="0 0 0 0 0 0 0 0 0 0 0 0 0 0 0 0 0 0 0.25 0"/>
<feBlend mode="normal" in2="BackgroundImageFix" result="effect1_dropShadow_53_7453"/>
<feBlend mode="normal" in="SourceGraphic" in2="effect1_dropShadow_53_7453" result="shape"/>
</filter>
</defs>
</svg>
