
<svg width="43" height="43" viewBox="0 0 43 43" fill="none" xmlns="http://www.w3.org/2000/svg">
<path fill-rule="evenodd" clip-rule="evenodd" d="M21.629 0.0120032C22.9104 0.029226 23.9424 0.098117 24.553 0.192842C25.069 0.270345 25.9634 0.451183 26.531 0.588965C27.0986 0.726748 28.0274 0.9937 28.595 1.19176C29.1626 1.38982 30.2118 1.829 30.917 2.17346C31.6308 2.51791 32.7316 3.15516 33.368 3.58572C34.0044 4.01629 34.916 4.68798 35.389 5.09272C35.862 5.48884 36.5586 6.1433 36.937 6.53943C37.3154 6.93555 37.926 7.63307 38.2872 8.08086C38.6484 8.52866 39.216 9.3209 39.5514 9.8462C39.8954 10.3629 40.4544 11.379 40.807 12.0852C41.1682 12.8171 41.6326 13.9366 41.8734 14.6686C42.1056 15.3833 42.3808 16.3392 42.4754 16.8042C42.5786 17.2606 42.7334 18.1734 42.828 18.8279C42.9484 19.6373 43 20.464 43 21.4716C43 22.4533 42.9484 23.3316 42.8366 24.1411C42.742 24.8042 42.5872 25.717 42.4926 26.1648C42.3894 26.6125 42.1916 27.3703 42.0454 27.844C41.8992 28.3176 41.624 29.0926 41.4348 29.5662C41.2456 30.0399 40.8586 30.8752 40.5748 31.4177C40.291 31.9602 39.818 32.7783 39.5342 33.2261C39.2418 33.6739 38.6914 34.4317 38.313 34.9053C37.9432 35.3789 37.324 36.0937 36.937 36.4898C36.5586 36.8859 35.862 37.5404 35.389 37.9365C34.916 38.3326 34.0044 39.0129 33.368 39.4435C32.7316 39.8655 31.6222 40.5027 30.917 40.8558C30.2032 41.2002 29.1626 41.6394 28.595 41.8375C28.0274 42.0269 27.0986 42.3025 26.531 42.4403C25.9634 42.578 25.0346 42.7589 24.467 42.845C23.7102 42.9569 22.919 43 21.5 43C20.3562 43 19.264 42.9569 18.834 42.8881C18.4298 42.8278 17.6988 42.6986 17.2 42.6039C16.7012 42.5005 15.8584 42.2939 15.3252 42.1302C14.8006 41.9666 13.9664 41.6825 13.4848 41.4844C12.9946 41.2949 12.1518 40.9074 11.61 40.6233C11.0682 40.3391 10.1394 39.7793 9.546 39.3832C8.9526 38.9871 8.084 38.3326 7.611 37.9365C7.138 37.5404 6.3898 36.8256 5.9426 36.3606C5.504 35.8956 4.8934 35.1981 4.601 34.8192C4.3086 34.4403 3.784 33.6997 3.4486 33.183C3.1046 32.6577 2.5456 31.6588 2.193 30.9441C1.849 30.2379 1.3846 29.1443 1.1782 28.5329C0.9632 27.9129 0.6966 26.9656 0.5676 26.4231C0.4472 25.8806 0.2666 24.8903 0.172 24.2272C0.0516 23.3919 0 22.5738 0 21.5577C0 20.5587 0.0516 19.6976 0.172 18.8451C0.2666 18.1562 0.4472 17.1486 0.5676 16.6061C0.6966 16.0636 0.9632 15.1077 1.1782 14.4963C1.3846 13.8763 1.8404 12.7999 2.193 12.0852C2.537 11.379 3.1046 10.3629 3.44 9.8462C3.784 9.3209 4.3172 8.57171 4.6354 8.16698C4.945 7.76224 5.7018 6.92694 6.321 6.31553C6.9316 5.69551 7.7658 4.93771 8.17 4.6277C8.5742 4.30908 9.288 3.80101 9.761 3.491C10.234 3.18099 11.0682 2.69875 11.61 2.41458C12.1518 2.12179 12.986 1.74289 13.459 1.55344C13.932 1.36399 14.6888 1.09704 15.136 0.950643C15.5832 0.80425 16.4174 0.597577 16.985 0.477018C17.5526 0.356458 18.361 0.218676 18.791 0.158397C19.2124 0.106728 19.5822 0.0378373 19.608 0.0206146C19.6252 -0.00521955 20.5368 -0.00521955 21.629 0.0120032ZM14.878 10.3715C14.4738 10.4404 13.6998 10.6384 13.158 10.8021C12.6162 10.9743 11.739 11.3101 11.223 11.5599C10.6984 11.8096 9.9158 12.2402 9.4858 12.5243L8.686 13.0324C7.697 15.0389 7.1982 16.1583 6.9402 16.8214C6.6822 17.4845 6.2866 18.5867 6.063 19.2757C5.8394 19.9646 5.5298 21.0668 5.375 21.7299C5.2116 22.393 5.031 23.2627 4.9536 23.6675C4.8848 24.0722 4.7644 24.8817 4.687 25.4758C4.6182 26.07 4.5322 27.0776 4.4978 27.7148L4.4462 28.8773C5.4094 29.8074 5.934 30.2638 6.2264 30.4791C6.5102 30.6943 7.0606 31.056 7.439 31.2713C7.8174 31.4866 8.4366 31.788 8.815 31.943C9.1934 32.0894 9.9244 32.3219 10.449 32.4511C10.965 32.5888 11.8766 32.7439 12.47 32.7955L13.545 32.9075C13.9148 32.4511 14.3362 31.9344 14.7232 31.4608L15.4198 30.5996C14.3018 30.2293 13.6654 29.971 13.287 29.7815C12.9086 29.6007 12.3238 29.2562 11.997 29.0237C11.6616 28.7912 11.1714 28.4037 10.8962 28.1626C10.6296 27.9129 10.4232 27.6717 10.449 27.6287C10.4748 27.577 10.6468 27.6459 10.8618 27.7751C11.0596 27.8956 11.6702 28.2229 12.212 28.4984C12.7538 28.774 13.6482 29.1701 14.19 29.3768C14.7318 29.5835 15.5488 29.859 15.996 29.9796C16.4432 30.1088 17.2774 30.2896 17.845 30.3929C18.5932 30.5221 19.4016 30.5824 20.812 30.6168C21.9988 30.6513 23.1426 30.6255 23.779 30.5652C24.3466 30.5135 25.2754 30.3671 25.843 30.2552C26.4106 30.1432 27.2964 29.9107 27.821 29.7385C28.337 29.5662 29.2142 29.2304 29.756 28.9893C30.2978 28.7482 31.1234 28.3434 31.5878 28.0937C32.0436 27.8354 32.465 27.6373 32.5252 27.6545C32.5768 27.6631 32.3704 27.8956 32.0694 28.1798C31.7684 28.4554 31.2094 28.8946 30.831 29.1443C30.4526 29.394 29.8678 29.7213 29.541 29.8763C29.2056 30.0227 28.6294 30.2552 28.2596 30.3757L27.5802 30.5996C28.4918 31.7363 28.9132 32.253 29.1024 32.4769L29.455 32.8902C30.5902 32.8041 31.2438 32.7266 31.648 32.6577C32.0522 32.5888 32.766 32.4166 33.239 32.2702C33.712 32.1238 34.5204 31.7966 35.045 31.5383C35.561 31.2799 36.2834 30.8493 36.6532 30.5738C37.0144 30.3068 37.5906 29.8074 37.9346 29.4801L38.5538 28.8773C38.4678 27.0776 38.3818 26.07 38.313 25.4758C38.2356 24.8817 38.1152 24.0722 38.0464 23.6675C37.969 23.2627 37.7884 22.393 37.625 21.7299C37.4702 21.0668 37.1606 19.9646 36.937 19.2757C36.7134 18.5867 36.3178 17.4845 36.0598 16.8214C35.8018 16.1583 35.303 15.0389 34.9504 14.3241L34.314 13.0324C33.0842 12.2402 32.293 11.8096 31.777 11.5599C31.2524 11.3187 30.4612 10.9915 30.014 10.8451C29.5668 10.6987 28.81 10.5007 28.337 10.4145C27.864 10.3198 27.1932 10.2251 26.8492 10.1907C26.2644 10.139 26.2042 10.1562 25.9892 10.3457L25.757 10.5609C26.9524 10.9226 27.7522 11.1982 28.294 11.4135C28.8358 11.6288 29.6872 12.0077 30.186 12.266C30.6848 12.5157 31.433 12.9463 31.863 13.2219C32.2844 13.4888 32.594 13.7299 32.551 13.7471C32.4994 13.7558 31.9834 13.5749 31.39 13.3338C30.7966 13.0927 29.9108 12.7655 29.412 12.6018C28.9132 12.4468 28.1048 12.2143 27.606 12.0852C27.1072 11.956 26.1612 11.7665 25.499 11.6546C24.8368 11.5426 23.6758 11.4049 22.919 11.3446C21.8526 11.2671 21.2248 11.2671 20.124 11.3446C19.3414 11.4049 18.1632 11.5426 17.501 11.6546C16.8388 11.7665 15.9702 11.9388 15.566 12.0421C15.1618 12.1368 14.3878 12.3607 13.846 12.5329C13.3042 12.6966 12.3324 13.0496 11.696 13.2994C11.0596 13.5577 10.5006 13.7558 10.4576 13.7471C10.4232 13.7299 10.6726 13.5319 11.0166 13.2994C11.3692 13.0669 12.0744 12.6535 12.599 12.3779C13.115 12.1024 13.9664 11.7063 14.491 11.4996C15.007 11.2843 15.8326 10.9829 16.3228 10.8193L17.2086 10.5351C16.8302 10.2337 16.6152 10.1562 16.469 10.1648C16.3228 10.1734 16.0734 10.1907 15.91 10.2079C15.7466 10.2251 15.2822 10.294 14.878 10.3715ZM16.383 20.1712C16.7958 20.1885 17.1312 20.2746 17.458 20.421C17.716 20.5415 18.103 20.8085 18.3094 21.0152C18.5072 21.2218 18.7652 21.5577 18.877 21.773C18.9888 21.9882 19.1178 22.393 19.1694 22.6771C19.2382 23.0388 19.2382 23.3316 19.178 23.6675C19.1264 23.9258 18.9974 24.3391 18.8856 24.5717C18.7652 24.8128 18.4814 25.1831 18.2148 25.4156C17.9654 25.6481 17.5612 25.9064 17.3118 26.0011C17.0194 26.1045 16.641 26.1648 16.254 26.1648C15.8412 26.1648 15.4972 26.1045 15.1618 25.9753C14.835 25.8461 14.5168 25.6395 14.2244 25.3467C13.9922 25.1142 13.6998 24.7267 13.5794 24.4855C13.3988 24.1152 13.373 23.9344 13.373 23.1508C13.373 22.3327 13.3988 22.2035 13.6138 21.7988C13.7428 21.5491 14.0094 21.1788 14.2158 20.9893C14.4136 20.7913 14.6888 20.576 14.835 20.4985C14.9726 20.4296 15.2478 20.3176 15.437 20.2487C15.6434 20.1798 16.0218 20.154 16.383 20.1712ZM26.918 20.1712C27.2878 20.1885 27.6318 20.266 27.95 20.4124C28.208 20.5329 28.595 20.7999 28.8014 21.0065C29.0078 21.2132 29.2744 21.5835 29.4034 21.816C29.6012 22.2035 29.627 22.3413 29.627 23.1508C29.627 23.9344 29.6012 24.1152 29.412 24.4855C29.3002 24.7267 29.0078 25.1142 28.767 25.3553C28.4832 25.6481 28.1736 25.8547 27.8468 25.9753C27.5028 26.1045 27.1588 26.1648 26.746 26.1648C26.359 26.1648 25.9806 26.1045 25.6968 26.0011C25.4388 25.9064 25.0346 25.6481 24.7852 25.4156C24.5272 25.1831 24.2348 24.8128 24.1144 24.5717C24.0026 24.3391 23.865 23.9086 23.822 23.6244C23.7532 23.2455 23.7532 22.9785 23.8306 22.6341C23.8822 22.3757 24.0198 21.9882 24.123 21.773C24.2348 21.5577 24.4928 21.2218 24.6906 21.0152C24.897 20.8171 25.241 20.5674 25.456 20.464C25.671 20.3607 25.9548 20.2487 26.101 20.2143C26.2386 20.1712 26.6084 20.154 26.918 20.1712Z" fill="#5865F2"/>
</svg>
