<svg id="Layer_1" data-name="Layer 1" xmlns="http://www.w3.org/2000/svg" xmlns:xlink="http://www.w3.org/1999/xlink" viewBox="0 0 1573.08 1418.92"><defs><style>.cls-1,.cls-10,.cls-11,.cls-6,.cls-9{fill:none;}.cls-2{clip-path:url(#clip-path);}.cls-3{fill:#ffd000;stroke:#d7941d;stroke-width:13px;}.cls-10,.cls-11,.cls-3,.cls-5,.cls-6,.cls-9{stroke-miterlimit:10;}.cls-13,.cls-4{fill:#ffa700;}.cls-5{fill:#36a347;}.cls-11,.cls-5,.cls-6{stroke:#000;}.cls-10,.cls-11,.cls-5{stroke-width:7.63px;}.cls-5,.cls-7,.cls-8{isolation:isolate;}.cls-6,.cls-9{stroke-width:5.73px;}.cls-12,.cls-14,.cls-8{fill:#fff;}.cls-10,.cls-9{stroke:#458bd2;}.cls-12{opacity:0.37;}.cls-13{font-size:76px;font-family:BeVietnamPro-ExtraBold, Be Vietnam Pro;font-weight:800;}.cls-15{opacity:0.54;}.cls-16{fill:#bc5200;}</style><clipPath id="clip-path"><circle class="cls-1" cx="753.17" cy="687.79" r="655.51"/></clipPath></defs><title>coin</title><g class="cls-2"><circle class="cls-3" cx="761.05" cy="687.79" r="655.51"/><circle class="cls-4" cx="761.05" cy="687.79" r="512.46"/><path class="cls-5" d="M715.84,1120C694.28,995.36,636,959.65,598.79,920.54c-43.11-45.37-65.94-51.41-99.34-98.36-56.62-79.6-63.91-164.72-65.89-191.79C429.64,577,421.27,221.58,809.28,286.14c8.85,1.47,120.11,32.9,136.71,86.55,2.11,6.82,5.42,22.83,18.69,38.36C980,429,993,427.93,1006,442.53c15,16.84,9.85,27.66,15.65,54.57,10.44,48.42,27.95,44.83,39.83,76.46,10.38,27.66,2.94,91.12-33.84,169,.6.1,14.64,2.6,17.46,11.46s-7.15,18.68-24,27.3c-3.76,25.24-17.22,92.52-73.84,151.37a275.92,275.92,0,0,1-113.76,70.83l-5.21,30.65a156.29,156.29,0,0,0,3.14,66.7l2.54,9.43"/><path class="cls-6" d="M543.44,505.7c48.9-55.91,78.25-66.37,131.47-70.12,40.64-2.87,61.79,2.56,101.42-10,50-15.89,52.52-41.24,89.53-46.33,21.7-3,53.65,2.94,97,44.45"/><path class="cls-7" d="M575.84,561.59c-9.47,57.37,43.22,88.63,48.22,92C665,680.84,781,671.44,797.17,606c11.45-46.39-44.08-110-106.63-115.5C643.09,486.31,583.58,514.78,575.84,561.59Z"/><path class="cls-8" d="M582.78,563.32c-8.93,54,40.72,83.5,45.43,86.64,38.57,25.71,147.86,16.85,163.07-44.79,10.8-43.7-41.52-103.6-100.44-108.81C646.14,492.41,590.07,519.22,582.78,563.32Z"/><path class="cls-7" d="M985,513.68c-8.82.44-16,4.37-21.61,11.63-27.33,35.69-27.64,147.85,37.79,141,28.34-3,34-52.48,34.76-58.93,4.82-39.73-29.64-88.77-46.56-93.44A21.8,21.8,0,0,0,985,513.68Z"/><path class="cls-8" d="M984.8,520.13c-8.08.4-14.68,4-19.78,10.65-25,32.64-25.27,135.24,34.58,129,25.92-2.7,31.08-48,31.8-53.91,4.4-36.34-27.12-81.2-42.6-85.47A20.22,20.22,0,0,0,984.8,520.13Z"/><path class="cls-6" d="M1020.53,780.76c-31.85,11.2-76.32,22.06-117.67,27.71-151.28,20.64-275.64-26.21-341.29-57.6"/><path class="cls-7" d="M902.86,808.47a263.71,263.71,0,0,1-266.12-24.86l12.17,3.25a726,726,0,0,0,254,21.61Z"/><path class="cls-6" d="M647.34,806.07A235,235,0,0,0,844.4,847.85"/><path class="cls-6" d="M805.71,611.1a199.61,199.61,0,0,1-85.88,119.47"/><path class="cls-6" d="M930.38,602a119,119,0,0,0,66.25,94.45"/><ellipse class="cls-7" cx="989.37" cy="587.62" rx="25.87" ry="44.7"/><ellipse class="cls-9" cx="989.85" cy="586.87" rx="10.47" ry="19.13"/><ellipse class="cls-7" cx="711.2" cy="585.96" rx="54.19" ry="51.33"/><circle class="cls-10" cx="717.57" cy="586.55" r="29.38"/><path class="cls-11" d="M748,1000.49a281.76,281.76,0,0,0,89.39,1.44"/><polygon class="cls-12" points="1184.21 -166.19 192.84 1076.14 89.27 959.39 1006.55 -191.87 1184.21 -166.19"/><polygon class="cls-12" points="1586.39 329.93 1749.06 353.44 1782.16 311.96 1586.39 283.67 575.59 1552.29 595.01 1574.18 1586.39 329.93"/><text class="cls-13" transform="translate(334.88 323.17) rotate(-43.07)">T</text><text class="cls-13" transform="matrix(0.79, -0.62, 0.62, 0.79, 370.47, 289.36)">O</text><text class="cls-13" transform="translate(419.81 251.53) rotate(-34.49)"> </text><text class="cls-13" transform="translate(433.3 241.63) rotate(-31.28)">T</text><text class="cls-13" transform="translate(477.63 214.55) rotate(-26.27)">H</text><text class="cls-13" transform="matrix(0.93, -0.36, 0.36, 0.93, 527.11, 190.24)">E</text><text class="cls-13" transform="translate(572.54 172.91) rotate(-18.23)"> </text><text class="cls-13" transform="matrix(0.97, -0.24, 0.24, 0.97, 588, 166.83)">M</text><text class="cls-13" transform="translate(652.99 150.5) rotate(-7.84)">O</text><text class="cls-13" transform="translate(714.04 142.01) rotate(-1.69)">O</text><text class="cls-13" transform="translate(775.7 140.26) rotate(4.23)">N</text><text class="cls-13" transform="translate(831.94 145.04) rotate(7.94)"> </text><text class="cls-13" transform="translate(848.52 146.61) rotate(11.82)">A</text><text class="cls-13" transform="matrix(0.95, 0.3, -0.3, 0.95, 905.25, 158.47)">N</text><text class="cls-13" transform="translate(958.62 175.49) rotate(23.54)">D</text><text class="cls-13" transform="translate(1010.41 198.73) rotate(27.23)"> </text><text class="cls-13" transform="matrix(0.86, 0.51, -0.51, 0.86, 1025.54, 205.87)">B</text><text class="cls-13" transform="translate(1071.69 233.36) rotate(35.47)">E</text><text class="cls-13" transform="matrix(0.77, 0.64, -0.64, 0.77, 1111.12, 261.26)">Y</text><text class="cls-13" transform="matrix(0.71, 0.71, -0.71, 0.71, 1152.64, 295.9)">O</text><text class="cls-13" transform="translate(1196.43 339.7) rotate(49.73)">N</text><text class="cls-13" transform="translate(1232.85 382.56) rotate(54.43)">D</text><path class="cls-14" d="M1273,710.5A484.36,484.36,0,0,1,1262.46,810c-3.47,16.39-7.71,32.65-12.8,48.66-1.33,4-2.59,8-4,12s-2.78,7.94-4.29,11.86c-3,7.86-6.08,15.69-9.47,23.4a487.14,487.14,0,0,1-22.54,45.23,465.42,465.42,0,0,1-27.21,42.69c-1.2,1.74-2.45,3.44-3.72,5.13l-3.79,5.07c-2.49,3.41-5.16,6.69-7.78,10l-4,4.95c-1.35,1.63-2.75,3.21-4.12,4.82l-8.26,9.62c-2.68,3.26-5.69,6.24-8.57,9.33l-8.72,9.2c-3,3-6.07,5.89-9.1,8.84l-4.56,4.4-2.28,2.21-2.38,2.1a486.8,486.8,0,0,1-81.66,59.79l-11,6.23-2.76,1.55-2.81,1.45-5.62,2.91-5.61,2.91c-.94.48-1.87,1-2.82,1.44l-2.86,1.35-11.44,5.37c-15.39,6.86-31,13.27-46.93,18.62-3.95,1.45-8,2.66-12,3.94l-6,1.9c-2,.65-4,1.17-6,1.77-4,1.13-8.07,2.34-12.12,3.42L893,1185.2q-24.46,5.88-49.34,9.6c-16.57,2.39-33.21,4.19-49.88,5.1a429.93,429.93,0,0,1-50,.06c8.31-.45,16.59-1,24.85-1.87,4.13-.36,8.25-.85,12.37-1.29s8.23-1,12.33-1.59c16.4-2.29,32.71-5.07,48.84-8.62s32.13-7.55,47.93-12.18,31.35-10,46.7-15.9l11.45-4.51,11.31-4.85c1.88-.83,3.79-1.59,5.65-2.44l5.58-2.59,5.58-2.58c1.85-.87,3.73-1.7,5.54-2.65,7.31-3.7,14.67-7.3,21.81-11.31l5.39-2.93,2.7-1.46,2.64-1.56,10.56-6.25,2.64-1.56,2.58-1.66,5.17-3.3,5.17-3.29c1.73-1.09,3.45-2.18,5.11-3.38,6.69-4.69,13.53-9.17,20-14.21l9.8-7.36,9.5-7.73,4.75-3.86c1.59-1.29,3.07-2.69,4.61-4l9.17-8.12,2.3-2,2.21-2.12,4.42-4.24c2.94-2.83,5.91-5.63,8.82-8.49l8.46-8.86c2.8-3,5.7-5.85,8.34-9l8.1-9.19c1.34-1.54,2.71-3.06,4-4.61l3.87-4.75c2.58-3.17,5.2-6.3,7.65-9.58l3.75-4.85c1.26-1.61,2.5-3.23,3.69-4.89a514.34,514.34,0,0,0,50.65-84c3.54-7.39,7-14.86,10.17-22.42,1.64-3.76,3.12-7.59,4.7-11.39s3-7.66,4.46-11.49q8.63-23.12,15.25-47A605,605,0,0,0,1273,710.5Z"/><path class="cls-4" d="M1334.91,636c2,5.88,4.26,11.09,9.84,14.31,4.06,2.35,6.48,1.37,9-2,3.44-4.53,3.15-9.85,3.4-15.18,9,5.06,7.55,18.21-3.61,36.39C1333.73,654.35,1329.78,647.42,1334.91,636Z"/><path class="cls-4" d="M1317.51,478.48c-4.57-2.44-7.5-2.87-11,2-4.73,6.6-8.94,13.38-11.73,21-9.18,24.94-6.12,49.57,2.49,73.89a10.74,10.74,0,0,1-1.12,10.4c-11,17.88-6.46,43.39,9.73,56.54,2.14-4.35,4.12-8.78,6.46-13,2.44-4.41,5-8.76,9.44-12.87,4.57,11.27,12.71,10,22.2,8.1,9.84-1.94,16.71-5.36,16.49-17a114.79,114.79,0,0,1,25.5,17.88c1.87-5.2,2.07-10,2.61-14.81,2.09-18.35-4-32.88-20.17-42.47-2.74-1.62-2.78-3.88-3-6.42a133.45,133.45,0,0,0-6.72-32.89C1351.2,506.9,1338.25,489.57,1317.51,478.48Zm19.36,64.23a15.17,15.17,0,1,1-25.65-16.22,15.17,15.17,0,0,1,25.65,16.22Z"/><path class="cls-4" d="M206.46,537.07c-2.8,5.54-5.78,10.39-11.75,12.79-4.35,1.75-6.61.44-8.68-3.26-2.77-5-1.74-10.19-1.24-15.51-9.59,3.75-10,17-1.53,36.54C205.05,555.43,209.93,549.12,206.46,537.07Z"/><path class="cls-4" d="M245.8,383.58c4.86-1.78,7.83-1.79,10.59,3.5,3.77,7.2,7,14.5,8.67,22.4,5.59,26-.9,49.93-12.83,72.8a10.71,10.71,0,0,0-.35,10.46c8.36,19.25.3,43.87-17.59,54.61-1.5-4.6-2.83-9.27-4.56-13.79-1.79-4.7-3.75-9.37-7.54-14.06-6.11,10.51-14,8.07-23.11,4.9-9.48-3.3-15.8-7.65-13.94-19.17a115,115,0,0,0-27.76,14.12c-1.12-5.41-.64-10.22-.51-15,.51-18.46,8.54-32,25.94-39.21,2.94-1.22,3.3-3.46,3.85-5.94a133.67,133.67,0,0,1,11.27-31.62C208.45,407,223.71,391.64,245.8,383.58Zm-28.18,60.87A15.17,15.17,0,1,0,245.29,432a15.17,15.17,0,0,0-27.67,12.45Z"/><g class="cls-15"><path class="cls-16" d="M299.46,464.93c8.53-18.76,19-36.66,30.43-53.94,5.68-8.66,11.7-17.1,17.88-25.44s12.68-16.45,19.32-24.45a562,562,0,0,1,90.39-86.44,520.81,520.81,0,0,1,108.69-63.78c9.7-4.18,19.56-8,29.49-11.6s20-6.83,30.17-9.77a513.92,513.92,0,0,1,61.93-13.64,484.27,484.27,0,0,1,126.58-3.09c10.51,1.13,21,2.66,31.38,4.41s20.72,4.05,31,6.5,20.4,5.28,30.44,8.43,20,6.62,29.79,10.33a533.45,533.45,0,0,1,159.89,96.45c15.53,13.68,30.35,28.22,43.4,44.16q-11.61-10.17-23.89-19.37c-8.15-6.19-16.47-12.11-24.87-17.88-16.88-11.46-34.17-22.17-51.92-32a605.29,605.29,0,0,0-110.81-47.94,545.92,545.92,0,0,0-58.06-15,528.31,528.31,0,0,0-59.15-8.2A501.73,501.73,0,0,0,752,201.58c-9.92.37-19.83,1.12-29.72,2-4.93.55-9.88,1-14.79,1.7l-7.39,1-7.36,1.15A521.26,521.26,0,0,0,634.44,220c-9.56,2.72-19.1,5.53-28.52,8.72s-18.75,6.65-28,10.38c-37,14.72-72.3,33.88-105.63,56.22a660.94,660.94,0,0,0-93.48,76.61q-10.89,10.62-21.28,21.79c-7,7.39-13.74,15-20.41,22.73S324,432.08,317.7,440.15,305.27,456.43,299.46,464.93Z"/></g></g></svg>