<svg width="100" height="41" viewBox="0 0 100 41" fill="none" xmlns="http://www.w3.org/2000/svg">
<path d="M0 4.37934H2.98964C3.39167 4.37934 3.74475 4.64646 3.85409 5.03334L5.81082 11.9567C6.03131 12.7369 7.09085 12.8489 7.46955 12.132L10.3529 6.67431C10.3817 6.61979 10.4048 6.56244 10.4219 6.50319L11.447 2.94204C11.6482 2.2431 12.5532 2.06053 13.0097 2.62681L17.3277 7.98417C17.7708 8.53389 18.6457 8.38109 18.8762 7.71374L20.7358 2.33044C20.9224 1.79022 21.5594 1.55932 22.0488 1.8545L24.4222 3.28592C24.6418 3.41838 24.7944 3.6384 24.8414 3.89053L29.432 28.5152C29.594 29.3841 30.7817 29.5213 31.1374 28.7121L31.2837 28.3795C31.5983 27.6638 32.6137 27.6638 32.9283 28.3795L34.0104 30.8407C34.1538 31.1669 34.4764 31.3775 34.8328 31.3775H38.4987C38.8817 31.3775 39.2227 31.6205 39.3477 31.9825L41.786 39.0411C42.0806 39.894 43.308 39.8287 43.5105 38.9494L44.7144 33.7216C44.9009 32.9116 45.9929 32.7676 46.383 33.5017L47.1937 35.0271C47.5825 35.7587 48.6701 35.6188 48.8611 34.8126L51.8456 22.2127C51.9279 21.8651 52.2083 21.5994 52.5598 21.5358L54.0349 21.2689C54.2848 21.2237 54.5038 21.0749 54.6379 20.8593L56.3179 18.1573C56.6916 17.5562 57.5813 17.6033 57.8895 18.2405L59.2647 21.0842C59.3011 21.1596 59.3269 21.2398 59.3412 21.3224L60.565 28.4083C60.6867 29.1128 61.5425 29.3997 62.0643 28.9111L65.2045 25.97C65.6318 25.5698 66.3216 25.6787 66.6048 26.1911L67.6117 28.0129C67.972 28.6648 68.9234 28.6203 69.2213 27.9377L72.1365 21.2564C72.1535 21.2174 72.1677 21.1773 72.1791 21.1364L74.418 13.0346C74.6557 12.1743 75.8666 12.1496 76.1392 12.9995L78.8434 21.4302C79.0219 21.9867 79.6758 22.2273 80.1724 21.9192L80.6244 21.6388C81.0249 21.3904 81.5493 21.4937 81.8256 21.8755L87.1299 29.2042C87.5397 29.7705 88.4108 29.6723 88.6843 29.029L90.01 25.9109C90.2529 25.3394 90.9885 25.1809 91.4453 25.6016L92.6085 26.6731C93.1419 27.1644 94.0077 26.8537 94.1069 26.1353L95.069 19.1723C95.2044 18.1928 96.5919 18.1189 96.8306 19.0784L100 31.8201" stroke="#F6543E" stroke-width="1.5" stroke-linecap="round"/>
</svg>
