<svg width="100" height="43" viewBox="0 0 100 43" fill="none" xmlns="http://www.w3.org/2000/svg">
<path d="M0 38.8128H2.9037C3.22253 38.8128 3.52365 38.6662 3.72026 38.4152L5.15404 36.5849C5.53829 36.0944 6.26522 36.0509 6.70516 36.4922L10.51 40.3085C10.7046 40.5037 10.9689 40.6134 11.2446 40.6134H15.4127C15.6324 40.6134 15.8465 40.5436 16.024 40.4141L17.4551 39.3702C17.888 39.0544 18.4903 39.1203 18.8446 39.5224L20.3356 41.2142C20.7043 41.6327 21.3381 41.6846 21.77 41.3316L27.9362 36.2939C28.3681 35.941 29.0018 35.9929 29.3706 36.4114L30.6461 37.8587C31.0803 38.3514 31.8572 38.3217 32.2526 37.7974L34.6679 34.5939C34.8061 34.4107 35.0011 34.2784 35.2224 34.2179L39.2883 33.1057C39.6195 33.015 39.8845 32.7663 39.9958 32.4414L41.8171 27.1272C41.9187 26.8309 42.1487 26.5963 42.4429 26.489L45.2989 25.4473C45.5441 25.3579 45.7466 25.1793 45.8659 24.9471L46.6457 23.4303C47.0244 22.6936 48.0714 22.6762 48.4744 23.3999L51.0967 28.1084C51.3515 28.5659 51.9072 28.7617 52.3925 28.5651L56.6323 26.8469C56.9257 26.728 57.1487 26.4816 57.2379 26.1779L60.5204 15.0037C60.6765 14.4723 61.2226 14.1573 61.7607 14.2882L63.7434 14.7703C64.1926 14.8795 64.6598 14.6783 64.8891 14.2768L67.0123 10.5598C67.319 10.0228 68.0246 9.87179 68.5243 10.2363L69.3511 10.8394C69.7213 11.1095 70.2452 10.9852 70.4547 10.5777V10.5777C70.702 10.0965 71.3633 10.0303 71.7012 10.4529L74.0723 13.4179C74.5934 14.0696 75.6315 13.8706 75.8746 13.0724L78.6587 3.93337C78.8415 3.33347 79.5107 3.03168 80.0813 3.29184L83.2823 4.75122C83.6778 4.93155 84.1439 4.84612 84.4497 4.53721L87.6474 1.30748C87.8422 1.11071 88.1076 1 88.3845 1H93.0293C93.4936 1 93.9014 1.30862 94.0275 1.75552L95.3739 6.52572C95.6125 7.37133 96.7287 7.55576 97.2267 6.83187L100 2.80061" stroke="#16C783" stroke-width="1.5" stroke-linecap="round"/>
</svg>
