<?xml version="1.0" encoding="utf-8"?>
<!-- Generator: Adobe Illustrator 24.0.0, SVG Export Plug-In . SVG Version: 6.00 Build 0)  -->
<svg version="1.1" id="Layer_1" xmlns="http://www.w3.org/2000/svg" xmlns:xlink="http://www.w3.org/1999/xlink" x="0px" y="0px"
	 viewBox="0 0 408.2 137" style="enable-background:new 0 0 408.2 137;" xml:space="preserve">
<style type="text/css">
	.st0{clip-path:url(#SVGID_2_);}
	.st1{fill:#64A151;stroke:#010101;stroke-width:1.2875;stroke-miterlimit:10;}
	.st2{fill:none;stroke:#010101;stroke-width:1.2875;stroke-miterlimit:10;}
	.st3{fill:#010101;}
	.st4{fill:#FFFFFF;}
	.st5{fill:none;stroke:#498BC9;stroke-width:1.2875;stroke-miterlimit:10;}
</style>
<path d="M147.9,96.6v-63h24.8c4.8,0,8.8,0.9,12.2,2.7s5.9,4.3,7.7,7.5s2.7,6.9,2.7,11.1s-0.9,7.9-2.7,11.1s-4.4,5.7-7.8,7.5
	c-3.4,1.8-7.5,2.7-12.4,2.7h-15.8V65.5h13.7c2.6,0,4.7-0.4,6.3-1.3c1.7-0.9,2.9-2.1,3.8-3.7c0.8-1.6,1.3-3.4,1.3-5.5
	s-0.4-3.9-1.3-5.5c-0.8-1.6-2.1-2.8-3.8-3.7s-3.8-1.3-6.4-1.3h-9v52.1C161.2,96.6,147.9,96.6,147.9,96.6z M224.3,97.5
	c-4.8,0-8.9-1-12.4-3s-6.1-4.9-8-8.5c-1.9-3.7-2.8-7.9-2.8-12.8s0.9-9.1,2.8-12.8c1.9-3.7,4.6-6.5,8-8.5c3.5-2,7.6-3.1,12.4-3.1
	c4.8,0,8.9,1,12.4,3.1c3.5,2,6.2,4.9,8.1,8.5c1.9,3.6,2.8,7.9,2.8,12.8c0,4.8-0.9,9.1-2.8,12.8c-1.9,3.6-4.6,6.5-8.1,8.5
	S229.1,97.5,224.3,97.5z M224.4,87.4c2.2,0,4-0.6,5.4-1.8c1.5-1.2,2.6-3,3.3-5.1c0.8-2.2,1.1-4.6,1.1-7.3c0-2.7-0.4-5.2-1.1-7.3
	c-0.7-2.2-1.8-3.9-3.3-5.1c-1.5-1.2-3.3-1.9-5.4-1.9c-2.2,0-4,0.6-5.5,1.9c-1.5,1.2-2.6,2.9-3.4,5.1c-0.7,2.2-1.1,4.6-1.1,7.3
	c0,2.7,0.4,5.2,1.1,7.3c0.8,2.2,1.9,3.9,3.4,5.1C220.3,86.7,222.2,87.4,224.4,87.4z M256,114.3V49.4h12.9v7.9h0.6
	c0.6-1.3,1.4-2.6,2.5-3.9c1.1-1.3,2.5-2.4,4.3-3.3c1.8-0.9,4-1.4,6.6-1.4c3.4,0,6.6,0.9,9.5,2.7s5.2,4.5,7,8.1
	c1.7,3.6,2.6,8.1,2.6,13.5c0,5.3-0.9,9.7-2.6,13.3c-1.7,3.6-4,6.3-6.9,8.2c-2.9,1.8-6.1,2.8-9.7,2.8c-2.5,0-4.7-0.4-6.5-1.3
	c-1.8-0.8-3.2-1.9-4.3-3.2c-1.1-1.3-2-2.6-2.6-3.9H269v25.3h-13V114.3z M268.9,73c0,2.8,0.4,5.3,1.2,7.3c0.8,2.1,1.9,3.7,3.4,4.9
	c1.5,1.1,3.3,1.7,5.4,1.7s3.9-0.6,5.4-1.8c1.5-1.2,2.6-2.8,3.3-4.9c0.8-2.1,1.2-4.5,1.2-7.3c0-2.7-0.4-5.1-1.1-7.2
	c-0.8-2.1-1.9-3.7-3.4-4.9S281,59,278.9,59s-3.9,0.6-5.4,1.7c-1.5,1.1-2.6,2.7-3.4,4.8C269.2,67.7,268.9,70.2,268.9,73z M332.1,97.5
	c-4.8,0-8.9-1-12.4-3s-6.1-4.9-8-8.5c-1.9-3.7-2.8-7.9-2.8-12.8s0.9-9.1,2.8-12.8s4.6-6.5,8-8.5c3.5-2,7.6-3.1,12.4-3.1
	s8.9,1,12.4,3.1c3.5,2,6.2,4.9,8.1,8.5s2.8,7.9,2.8,12.8c0,4.8-0.9,9.1-2.8,12.8c-1.9,3.6-4.6,6.5-8.1,8.5S336.9,97.5,332.1,97.5z
	 M332.2,87.4c2.2,0,4-0.6,5.4-1.8c1.5-1.2,2.6-3,3.3-5.1c0.8-2.2,1.1-4.6,1.1-7.3c0-2.7-0.4-5.2-1.1-7.3c-0.7-2.2-1.8-3.9-3.3-5.1
	c-1.5-1.2-3.3-1.9-5.4-1.9c-2.2,0-4,0.6-5.5,1.9c-1.5,1.2-2.6,2.9-3.3,5.1c-0.7,2.2-1.1,4.6-1.1,7.3c0,2.7,0.4,5.2,1.1,7.3
	c0.8,2.2,1.9,3.9,3.3,5.1C328.2,86.7,330,87.4,332.2,87.4z M370.4,114.3c-1.7,0-3.2-0.1-4.7-0.4c-1.4-0.2-2.6-0.6-3.6-1l3-9.8
	c1.5,0.5,2.9,0.7,4.1,0.8c1.2,0,2.3-0.2,3.2-0.9c0.9-0.6,1.7-1.7,2.2-3.1l0.8-2l-16.9-48.6h13.8l9.8,34.7h0.5l9.9-34.7h13.9
	L388,101.7c-0.9,2.5-2.1,4.8-3.6,6.6c-1.5,1.9-3.4,3.4-5.7,4.4C376.4,113.8,373.7,114.3,370.4,114.3z"/>
<g>
	<defs>
		<ellipse id="SVGID_1_" cx="50.1" cy="62.5" rx="77" ry="72.8"/>
	</defs>
	<clipPath id="SVGID_2_">
		<use xlink:href="#SVGID_1_"  style="overflow:visible;"/>
	</clipPath>
	<g class="st0">
		<path class="st1" d="M68.5,138.5L45,140.9l-14.2-1L11.6,129c-0.2-1.2,31.4-4.2,31.2-5.3c-3.6-15.8-11.5-20.8-16.7-26.3
			c-6.4-6.8-9.8-7.6-14.8-14.6C2.9,71,1.8,58.3,1.5,54.3c-0.6-8-1.8-60.8,55.9-51.2C58.7,3.3,75.3,8,77.7,16c0.5,2.1,1.4,4,2.8,5.7
			c2.3,2.7,4.2,2.5,6.1,4.7c2.2,2.5,1.5,4.1,2.3,8.1c1.6,7.2,4.1,6.7,5.9,11.4c1.5,4.1,0.4,13.5-5,25.1c0.1,0,2.2,0.4,2.6,1.7
			c0.4,1.3-1.1,2.8-3.6,4.1c-1.3,8.5-5.1,16.3-11,22.5c-4.7,4.8-10.5,8.5-16.9,10.5l-0.8,4.6c-0.6,3.3-0.4,6.7,0.5,9.9l28.2,4.1
			L68.5,138.5z"/>
		<path class="st2" d="M17.8,35.7c7.3-8.3,11.6-9.9,19.6-10.4c6.1-0.4,9.2,0.4,15.1-1.5c7.4-2.4,7.8-6.1,13.3-6.9
			c3.2-0.5,8,0.4,14.4,6.6"/>
		<path class="st3" d="M22.7,44c-1.4,8.6,6.4,13.2,7.2,13.7c6.1,4.1,23.4,2.7,25.8-7.1c1.7-6.9-6.6-16.4-15.9-17.2
			C32.7,32.9,23.8,37.1,22.7,44z"/>
		<path class="st4" d="M23.7,44.3c-1.3,8,6,12.4,6.8,12.9c5.7,3.8,22,2.5,24.3-6.7c1.6-6.5-6.2-15.4-14.9-16.2
			C33.1,33.8,24.8,37.7,23.7,44.3z"/>
		<path class="st3" d="M83.6,36.9c-0.6,0-1.2,0.2-1.8,0.5c-0.6,0.3-1,0.7-1.4,1.2c-4.1,5.3-4.1,22,5.6,21c4.2-0.4,5.1-7.8,5.2-8.8
			c0.7-5.9-4.4-13.2-6.9-13.9C84,36.9,83.8,36.9,83.6,36.9z"/>
		<path class="st4" d="M83.5,37.9c-0.6,0-1.1,0.2-1.7,0.5c-0.5,0.3-1,0.7-1.3,1.1c-3.7,4.9-3.7,20.1,5.1,19.2c3.9-0.4,4.6-7.2,4.8-8
			c0.6-5.4-4-12.1-6.3-12.7C83.9,37.9,83.7,37.9,83.5,37.9z"/>
		<path class="st2" d="M88.8,76.7c-5.7,1.9-11.5,3.3-17.5,4.1c-22.5,3.1-41-3.9-50.8-8.6"/>
		<path class="st3" d="M71.3,80.8C65,83.8,58,85,51,84.3s-13.6-3.1-19.3-7.2l1.8,0.5C45.8,80.9,58.6,82,71.3,80.8L71.3,80.8z"/>
		<path class="st2" d="M33.3,80.4c4.1,3.1,8.9,5.3,14,6.4s10.3,1,15.4-0.2"/>
		<path class="st2" d="M56.9,51.4c-1.9,7.3-6.4,13.7-12.8,17.8"/>
		<path class="st2" d="M75.4,50.1c0.3,3,1.4,5.9,3.1,8.3c1.7,2.5,4.1,4.4,6.8,5.8"/>
		<path class="st3" d="M84.2,54.6c2.1,0,3.8-3,3.8-6.6c0-3.7-1.7-6.6-3.8-6.6c-2.1,0-3.8,3-3.8,6.6C80.3,51.6,82.1,54.6,84.2,54.6z"
			/>
		<path class="st5" d="M84.3,50.7c0.9,0,1.6-1.3,1.6-2.8S85.1,45,84.3,45c-0.9,0-1.6,1.3-1.6,2.8S83.4,50.7,84.3,50.7z"/>
		<path class="st3" d="M42.8,55.3c4.5,0,8.1-3.4,8.1-7.6S47.2,40,42.8,40s-8.1,3.4-8.1,7.6S38.3,55.3,42.8,55.3z"/>
		<path class="st5" d="M43.7,52.1c2.4,0,4.4-2,4.4-4.4s-2-4.4-4.4-4.4s-4.4,2-4.4,4.4C39.4,50.2,41.3,52.1,43.7,52.1z"/>
		<path class="st2" d="M48.3,109.4c4.4,0.8,8.9,0.9,13.3,0.2"/>
	</g>
</g>
</svg>
