
<svg id="Layer_1" data-name="Layer 1" xmlns="http://www.w3.org/2000/svg" viewBox="0 0 1614 726.55"><defs><style>.cls-1{fill:#a7a9ac;}.cls-11,.cls-18,.cls-2,.cls-23,.cls-27,.cls-3,.cls-34,.cls-8{fill:#fff;}.cls-2,.cls-25{stroke:#a7a9ac;}.cls-10,.cls-11,.cls-12,.cls-13,.cls-14,.cls-15,.cls-16,.cls-17,.cls-18,.cls-2,.cls-20,.cls-21,.cls-22,.cls-24,.cls-25,.cls-26,.cls-27,.cls-28,.cls-29,.cls-30,.cls-31,.cls-32,.cls-33,.cls-34,.cls-35,.cls-36,.cls-4,.cls-5,.cls-6,.cls-7,.cls-8,.cls-9{stroke-miterlimit:10;}.cls-10,.cls-11,.cls-2,.cls-25{stroke-width:3px;}.cls-4{fill:#4ea347;}.cls-10,.cls-11,.cls-13,.cls-14,.cls-17,.cls-18,.cls-21,.cls-22,.cls-26,.cls-27,.cls-28,.cls-32,.cls-33,.cls-34,.cls-4,.cls-5,.cls-6,.cls-7,.cls-8{stroke:#000;}.cls-10,.cls-12,.cls-13,.cls-14,.cls-15,.cls-16,.cls-20,.cls-21,.cls-22,.cls-24,.cls-25,.cls-26,.cls-29,.cls-30,.cls-31,.cls-32,.cls-35,.cls-36,.cls-5,.cls-6,.cls-7,.cls-9{fill:none;}.cls-17,.cls-6,.cls-8,.cls-9{stroke-width:0.5px;}.cls-7{stroke-width:0.75px;}.cls-9{stroke:#00aaf1;}.cls-12{stroke:#277ae7;}.cls-12,.cls-31{stroke-width:2.61px;}.cls-13{stroke-width:0.38px;}.cls-14{stroke-width:0.89px;}.cls-15,.cls-16,.cls-20,.cls-24,.cls-29,.cls-35,.cls-36{stroke:#458bd2;}.cls-15{stroke-width:0.52px;}.cls-16{stroke-width:0.42px;}.cls-17{fill:#1a9dfe;}.cls-18,.cls-20,.cls-21{stroke-width:0.39px;}.cls-18,.cls-19,.cls-23,.cls-28,.cls-33{isolation:isolate;}.cls-22{stroke-width:0.51px;}.cls-24{stroke-width:0.38px;}.cls-26,.cls-27,.cls-29{stroke-width:0.4px;}.cls-28,.cls-33{fill:#64a152;}.cls-28{stroke-width:0.54px;}.cls-30,.cls-31{stroke:#fff;}.cls-30{stroke-width:4px;}.cls-32,.cls-33,.cls-34{stroke-width:0.53px;}.cls-35{stroke-width:0.39px;}.cls-36{stroke-width:0.4px;}</style></defs><title>Poypoy</title><ellipse class="cls-1" cx="1211.69" cy="330.03" rx="51.65" ry="36.97" transform="translate(-38.31 450.97) rotate(-20.76)"/><ellipse class="cls-1" cx="1000.16" cy="340.97" rx="23.84" ry="33.3"/><path class="cls-2" d="M562.82,200l40.41-3.22c4.29-1.86,11.07-5.12,18.81-3.44,27.89,6,37.8-.54,52,2.13,22.87,4.31,133.81,19,165.2,35.29,47.72,24.77,56.7,69,85.88,99.63L658.6,385.56,544,319"/><path class="cls-2" d="M1614,630.57l-514.88-37.3V399.41A228.52,228.52,0,0,1,1142.64,360c7.91-5.42,16.26-10.32,29.34-18,13.84-8.13,20.84-12.21,24.68-13.34,12.45-3.66,17.46-.49,44-1.33,0,0,11.57-.37,20.68-1.34,32.34-3.43,57.54-29.16,62-33.34,19.6-18.32,87.28-39.79,290.63-56"/><path class="cls-2" d="M500,335.39l-15.15,7.05c-38.31,23.12-56.84,48.61-68.65,49.67-10.38.94-12.32-1.65-23.19-.54-37.16,3.81-133,96.21-140.47,106.09-24.34,32.26-17.76,33.67-164.14,145.6L54.93,669.33l216.54-28.14a87.39,87.39,0,0,1,36.55,3l2,.62a45.26,45.26,0,0,0,28.18-.64l20.15-7.11a63.84,63.84,0,0,1,37.83-1.44h0a20.84,20.84,0,0,0,15-1.6h0a35.24,35.24,0,0,1,21-3.58l11.51,2.85a125.12,125.12,0,0,0,58.42.4l5.76-1.34a65.24,65.24,0,0,1,29.55,0L548.78,635a58.94,58.94,0,0,0,23.44.68l19.54-3.36c18.84-3.25,32-.08,50,6.43,0,0,44.92,17,73.14,5.57l11.77-5.77c32.12-15.73,64.8-17.18,99.19-7.33,0,0,33.81,11,47.62,4.86,8.23-3.65,17-6.8,26-6.92,6.46-.09,13.38,2,17.86,3.85l7.33,3a26.48,26.48,0,0,0,22.92-1.4l14.69-8.22a31.14,31.14,0,0,1,24.42-2.56l30.5,9.45a163.55,163.55,0,0,0,68.15,6.13c8.41-1,15.64-1.95,21.51-2.73,48.9-6.46,75.05-9.42,89.89-10.45a88.37,88.37,0,0,1,17.88.66,44,44,0,0,0,17.57-1.09c7.24-2,7.16-4.15,13-5.69,13.86-3.69,18.47,7.51,36.26,7.25,11.49-.17,16.44-3,23.93-1.12,5.76,1.42,6,2.78,11.46,3.86,9.28,1.84,16.47-4.2,23.9-3.39,7.21.78,40.64,1.5,58.82,4.86,8.55,1.57,11,9.25,14.36,9.65,11.93,1.39,47.53,1.57,47.53,1.57s14.35-17.16,24.56-17.24c5.77-.05,6.36,3.36,14.1,6,19,6.5,25-1.37,45.68.52,12.36,1.13,11.36,2.26,23,3.92s75.07,7.71,93.73-2.82c0,0-78.65-2.68-89.65-7.29C1434.55,568,1399.6,505.05,1396.37,486.4a10.74,10.74,0,0,0-7-8.39L1219,418.78a10.67,10.67,0,0,0-9.69,1.38c-6.93,4.91-16.1,15.14-21.45,13.68-54.75-14.89-326.56-146-480.64-163.28-56.48-6.32-85.73,34.65-146.08,38.83a25,25,0,0,0-4.48.94"/><path class="cls-3" d="M485.69,579.32c3.21,0,3.22-5,0-5s-3.23,5,0,5Z"/><path class="cls-4" d="M599.44,521.38a20.49,20.49,0,0,1,2.87,6.07,23.79,23.79,0,0,1,.45,9.46c-.67,7.51-.6,14.67,1.83,20,2.56,5.61,6.06,7.37,7.4,10.5s1.88,5.24,3.6,6.85c2.42,2.28,5.4,1.7,8.62,1l-4.55-28.92a39.16,39.16,0,0,1-8.57-8.2,28.64,28.64,0,0,1-5-8.79,25.86,25.86,0,0,1-.64-13.49L599.81,503l-3.84,6.7.41,10.46Z"/><path class="cls-4" d="M601.38,509.68c.92,21-24.43,43.55-35.67,48.32-1.28.55-4.29,1.64-5.39,3.72-1.9,3.6,2.76,7.36,5.71,15,3.88,10.14-.61,27.27,8.81,35,10.63,8.68,19.89,9,28.16,15.53,8.43,6.7,7.25,15.46,12.46,22.43,11,14.73,14.62,19.31,13.13,23-3.53,8.62-17.7,3-25.06,4.92-5.87,1.54-6.37,4.71-11.19,4.44-4.07-.22-4.79-2.54-8.76-2.08-2.86,2.95-6.44,2.71-8,1.39a7,7,0,0,1-1.14-1.52s-2.7.12-3.85-1.19c-.79-.91-.2-2.71-.2-2.71a3.61,3.61,0,0,1-1.33-.87,2.77,2.77,0,0,1-.17-1.69s-2.56-5.08,4.14-4.62a25.46,25.46,0,0,0,3-1.38,4.69,4.69,0,0,1,3.32.41c3.64,1.3,9.37.38,11.85-.28,5-1.37,5-4,10.83-6.14a24.32,24.32,0,0,1,7.57-1.43c-4.44-13.58-22.81-25.38-28.5-28.65-8.26-4.74-19.1-5-22.58-17.79-1.86-6.83-.33-10.22-3.56-18.12-1.55-3.8-2.44-3.92-4.33-7.9a40.41,40.41,0,0,1-3.83-17C538,580.4,529.21,584,523.38,588.32a9,9,0,0,0-3.62,6.28,10,10,0,0,0,.47,4.35c22.48,10.78,25.49,22.87,26.18,30.57.65,7.32-2.6,11.85.56,19.86,3.84,9.74,12.3,12.27,11.28,18.28-.64,3.8-3.45,5.58-7,6.45-6.26,1.55-14.44-5.63-23-2.93-13.8,4.34-21.48-.67-21.48-.67s-6.89,1.33-8.17-.39c-.93-1.25-1.16-3.45-.19-4.35,1.32-1.21,6.74-.13,6.74-.13a13.33,13.33,0,0,1,3.23-1.82c3.1-1.12,8.6-.59,8.6-.59s1.93-1.46,5-3.41c6.23-3.92,10.89-2.3,13.83-6.41a9.19,9.19,0,0,0,1.27-2.7c1.46-4.4,1.53-12.11-3.77-21.56-4.21-7.53-12.4-17.14-22.82-24.18-2.76-1.86-7.52-4.79-8.06-9.56-.15-1.36-.1-3.45,1.9-6.68,1.6-2.6,8.25-7.06,16.08-13.2,5.69-4.45,3.84-4.78,14.46-14.91,5-4.74,7.46-7.11,10.94-9.58,8-5.7,9.45-4,17.17-9.58,9.48-6.88,11.58-12.54,12.29-15.37.16-.62.29-1.5.55-3.25,1.6-11,.62-15.17,1.71-20.79a31.3,31.3,0,0,1,5.88-12.83l-.32-8.48a7.47,7.47,0,0,1-5.58-2.25c-6.18-4.81-7.15-12.88-7.15-12.88s-2.2-1-2.22-1.95c0-.69.83-1.24.83-1.24s-3.49-7.83-1.93-11.78c.65-1.66,1.9-2.35,2.86-4.16s-.07-2.24.65-3.39a26.44,26.44,0,0,1,4.17-4.4c1.58-1.47,5.13-10.15,21.29-7.16,15.28,2.83,19.1,26.82,8.31,38.15-5.65,5.93-8.92,8.46-11.32,11.06v3.51a15,15,0,0,0,5.52,4.47,9.31,9.31,0,0,0,1.78.44l.5,0a5,5,0,0,1,4,2.26c3.12,5,3.46,14.68,5,22,1.91,9,3.08,11.61,3.93,13.29,3.53,7,5.7,5.71,8.22,11,4.09,8.54,3.65,22.94,3.45,29.3a3.72,3.72,0,0,0,.84,2.86c1.62,1.54,5.3.31,6.91-.24,3.39-1.14,3.62-2.28,5.71-2.26,2.56,0,3.3,1.74,5,1.19,1.88-.6,1.61-2.89,3.69-3.69,1.59-.62,3.79-.06,4.29,1.07.67,1.52-1.57,4.43-4.17,5.24-2.28.71-4.36-.33-4.53.12s1.26,1.39,2.74,1.91a7.27,7.27,0,0,0,5,.12c3.64-1.51,3.9-6.61,6.2-6.55a1.48,1.48,0,0,1,1.19.85.25.25,0,0,0,.37.08c3.35-2.58,5,.48,5,.48a2.51,2.51,0,0,1,2.47,1.56,3.16,3.16,0,0,1-.83,3.34,11.22,11.22,0,0,1,.71,3.57c-.28,2.3-4.78,3.54-7.14,4.17a39.33,39.33,0,0,1-13,1.31c-6.27-.61-18-.91-24.11-9.7-2.79-4-1-4.87-5.43-16.39-2.88-7.53-4.87-10-5.6-16.2-.52-4.42-1.6-13.89-5-20.69-1-2.08-2.08-4.15-3-6.26Z"/><path class="cls-5" d="M612.79,660.32a5,5,0,0,0,2.46,3.57,4.9,4.9,0,0,0,5.7-1.11"/><path class="cls-5" d="M538.75,652.17a5.3,5.3,0,0,0,5.81,6.81"/><path class="cls-5" d="M568.82,673.9a3.2,3.2,0,0,1,1.72-1.71c.88-.29,2.45.15,4.25-.88a7.62,7.62,0,0,1,2.22-.94"/><path class="cls-5" d="M570.38,675.91a2.35,2.35,0,0,1,1-1.08c1.26-.63,2.34.65,3.75.24s1.19-1.72,2.58-2.58c.77-.48,2-.84,4.23-.24"/><path class="cls-6" d="M580.48,669.45a7,7,0,0,1,1.36.91,4.4,4.4,0,0,1,.39.35"/><path class="cls-6" d="M574.2,440.89c2.52-2.3,4.1-3,5.44-3,2.4,0,4.42,2.71,5.25,3.16,3.34,1.82,6,.83,9.21,1.14,1.94.19,4.87,1.33,7.9,4.44"/><path class="cls-6" d="M584.25,454a18.85,18.85,0,0,0,5.67,7.71"/><path class="cls-6" d="M576.61,452.76a8.63,8.63,0,0,1-1.93,4.8,8.47,8.47,0,0,1-2.64,2.09"/><path class="cls-6" d="M570.3,465.32a31,31,0,0,0,7.3,2.18c10.78,1.84,19.64-2.53,23.32-4.65"/><path d="M574,466.65a23.38,23.38,0,0,0,13.8,2.57,17.6,17.6,0,0,0,8.68-4.14l-8.57,2.71-6.15.31-4.61-.69Z"/><path class="cls-7" d="M581.72,470.68c1.31.31,8.2,1.78,13.51-3.11"/><path class="cls-8" d="M585.79,450.62c1.16-3.37,5.25-4.7,8.28-4.56.71,0,4.82.23,6,3,1.13,2.61-1,5.89-3.2,7.39C593.15,459,583.59,457,585.79,450.62Z"/><path class="cls-8" d="M572,447.22c-1.94.27-3.3,3.7-3.14,6,0,.66.23,3.47,2,4.12,1.52.55,3.13-.83,3.3-1a5.46,5.46,0,0,0,1.1-6.09C574.72,448.87,573.58,447,572,447.22Z"/><ellipse cx="572.31" cy="452.35" rx="1.65" ry="3.06"/><ellipse class="cls-9" cx="572.31" cy="452.12" rx="0.78" ry="1.44"/><ellipse cx="591.12" cy="451.79" rx="3.77" ry="3.35"/><circle class="cls-9" cx="590.65" cy="451.97" r="2.08"/><path class="cls-5" d="M629.09,573.45a12.48,12.48,0,0,1,13.74,2.35"/><path class="cls-5" d="M658.89,567.47c-1,1.13-2.16,2.82-3.54,4.33-1.86,2-2.71,2.87-4.09,3.26a5.85,5.85,0,0,1-2.38.17"/><path class="cls-5" d="M663.73,568.23a10.1,10.1,0,0,0-2,1.08c-1.87,1.32-2.54,2.78-3.43,3.87a9.85,9.85,0,0,1-5.7,3.21"/><path class="cls-5" d="M665.35,573.56a3.27,3.27,0,0,0-2.23-.42c-1.59.37-1.61,2.12-3.52,3.57-1.26,1-2.57,1.2-4.67,1.58a18.3,18.3,0,0,1-4.25.26"/><path class="cls-10" d="M1263.4-3c25.52,45.66,69.51,103.29,138.81,130.05,26,10,51.81,14.29,71.43,17.52a524.44,524.44,0,0,0,140.36,4"/><path class="cls-10" d="M1474.13-2.75c21.5,5.73,40.78,95.74,43,113"/><path class="cls-10" d="M1539.13.25c-2.53,24.06,3.06,76.31,10.14,94.23"/><path class="cls-10" d="M1554.81,119.08a197,197,0,0,0,34.12-61.18A196.29,196.29,0,0,0,1599.38.25"/><path class="cls-10" d="M1550.16.25c-.37,6.24-.5,13-.23,20.22a211.66,211.66,0,0,0,3.5,31.51"/><path class="cls-11" d="M1513.26,89.59a24.4,24.4,0,0,0,14.3,0c11.51-3.64,15.57-15,16-16.33l-.33-1.51A238,238,0,0,1,1538.51,7h0l.62-6.71h-59.8l7.93,10.33h0a207.45,207.45,0,0,1,24.87,71.55Z"/><path d="M1523.79-.49h-32.28a25.87,25.87,0,0,0-4.25,9.56l4.63,10.54,8.92,23.84c.75,2,1.41,4.07,2,6.15l8.92,33c4.07.62,9,.89,13.29-1.72C1540.85,71.16,1537.74,24.85,1523.79-.49Z"/><path class="cls-12" d="M1495.08,17c.48-5.72,3-9.88,6.5-11.38C1521.47-3,1534,76.85,1511,67.08"/><path class="cls-11" d="M1618.14,132c-22.82,4.71-40.61,3.8-52.29,2.24-23.41-3.11-76.07-23.59-97.85-11.2-13.59,7.72-15.7,17.86-38.1,56.77-11.5,20-17.24,30-26.14,40.34-17.84,20.82-21.48,20.68-32.56,36.57-12.23,17.55-11.38,24.3-22,53.81-6.57,18.3-14.1,32.5-24.65,49.3-31.93,50.85-59.18,33.39-90.06,63.87-33,32.55,48.39,48.87,74.37,16.06,12.26-15.48,13-13.64,30.89-36,24.28-30.43,33.16-28.55,52-55.14,10.79-15.2,38.41-81.22,47.06-88.89-1.41,15.83-3.67,28.35-7,36.07-16.27,37.77-17.78,60.87-13.23,66.73,6.87,8.85,27.32,7.17,50.18-3,1.5,13.55,7.33,18,9.65,19.58,14.89,10.2,31.44-3.31,49.91-2.76.57,4.35,3.27,10.58,8,16.55,13.49,17,44.39-4.64,74.72,9.37a59.91,59.91,0,0,1,15.77,10.68Z"/><path class="cls-11" d="M1476.18,179.62a70.61,70.61,0,0,1-4.54,27.7c-5.2,13.4-12.25,18.37-21.8,35a152.58,152.58,0,0,0-11,23.55"/><path class="cls-11" d="M1492.86,195.11c5.21,26.92,2.3,47.67.43,62.24-7.32,57.12-17.09,55.69-22.91,83.86-2.34,11.31-1.61,21-1.57,27.38"/><path class="cls-11" d="M1522.36,212.52c15.65,31.49,17.34,56,16,72.47-1.54,19.15-7.61,33.48-9.7,66.16a314.27,314.27,0,0,0-.31,34.26"/><path class="cls-11" d="M1601.58,258a115.38,115.38,0,0,1-1.26,40.46c-3,13.9-7.7,22.07-4.64,32.86,2.65,9.32,9.65,15.56,15.17,19.39"/><path class="cls-4" d="M1271.74,535.26c.91,1.33,2.61,3.28,2.87,6.07.89,9.7,2.89,23.55,5.33,28.89,1.09,2.4,5.17,7,8.46,11.56,4.41,6.08,8.64,11.76,14.25,9.56L1292,560.2a39.16,39.16,0,0,1-8.57-8.2,28.64,28.64,0,0,1-5-8.79,26,26,0,0,1-.65-13.49l-5.61-12.81-3.84,6.7.41,10.46Z"/><path class="cls-4" d="M1267.46,507.38c-1.62-.73-1.47-2.09-1-3.17a5.35,5.35,0,0,1,1.77-2.15c18.47-13.64,17-22.85,14.48-32.37-.59-2.26-2.4-6.25-8.42-10.13-7.47-4.83-23.25-1.89-25.77,1.56a9.4,9.4,0,0,1-1.2,1.93c-1.54,1.85-2.53,1.67-3.52,3.22-.72,1.14-.25,1.07-.79,2.86-.82,2.69-2.21,3.63-3,5.06-.89,1.67-1.2,4.93,1.72,10.11-.19.13-1.85,1.15-2.13,1.33-1,.66.72,1.3,1.92,1.54a11.19,11.19,0,0,0,1.16.18c.06,5.63,5.78,14,15.09,15.28.55.82,0,5.6-.74,7.27,0,0-6.89,11.26-7.87,20.19-.25,2.3.17,6,.49,9.78l.1,1.32c-2.16,15-13.71,18-25.51,23.1-9.25,4-22.68,20-31.55,27.05-8,6.44-19,9.4-17.08,18.4,1.6,7.67,11.6,5.93,29.51,27.87,6.85,8.39,6.32,16.59,5,21-2.93,10-12.09,7-16.43,10.06-3,2.12-4.15,1.92-4.15,1.92s-5.5-.53-8.59.59a13.89,13.89,0,0,0-3.24,1.82s-5.42-1.08-6.74.14c-1,.89-.74,3.09.2,4.34,1.27,1.72,8.74-.18,8.74-.18a31.83,31.83,0,0,0,20.9,1.24c9.94-2.8,16.65,3.75,22.92,2.2,3.52-.87,6.45-1.91,7.09-5.72,1-6-7.43-8.54-11.28-18.28-3.16-8,.22-16.57-2.41-25.43-4-13.47-25.2-20.4-25.2-20.4s-1.18-4.79,2.28-7.56c8-6.37,22.34-12,26.84-19.37-2.17,3.57,1,13.71,3,17.31,4,7.26,6.49,6.91,7.4,22.39.77,13.2,15.34,13,23.6,17.78,5.69,3.27,20.68,11.49,28.16,25.74-.81-1.54-14.55,4.94-19.4,7.64-2.24,1.24-8.21,1.58-11.85.28a4.67,4.67,0,0,0-3.31-.41c-.94.3-1.6,1-3,1.38-6.69-.46-4.14,4.62-4.14,4.62a2.85,2.85,0,0,0,.17,1.69,3.69,3.69,0,0,0,1.33.87s-.59,1.81.2,2.71c1.15,1.31,3.86,1.19,3.86,1.19a6.78,6.78,0,0,0,1.13,1.52c1.57,1.33,5.15,1.56,8-1.39,4-.46,4.69,1.86,8.76,2.09,4.83.26,5.33-2.91,11.2-4.45,7.36-1.94,21.52,3.7,25-4.92,1.49-3.65-2.13-8.23-13.13-23-5.21-7-4-15.18-12.64-21.57-8.34-6.16-17-4.38-27.68-13.07-9.42-7.69-6-24.56-9.84-34.71-2.94-7.68-7.35-9.94-3.58-11.48,8.43-3.44,38.61-19.37,40.6-46.23,0,0,6.29,9.65,7.31,11.73,3.36,6.8,3,11.29,3.53,15.71.73,6.16,2.43,9.28,5.31,16.82,4.4,11.51,3.09,10.14,6.1,14,6.69,8.56,17.83,9.1,24.11,9.71a39.6,39.6,0,0,0,13-1.31c2.36-.63,6.86-1.87,7.15-4.17a11.52,11.52,0,0,0-.72-3.58,3.14,3.14,0,0,0,.84-3.33,2.5,2.5,0,0,0-2.47-1.56s-1.67-3.06-5-.5a.26.26,0,0,1-.39-.07,1.47,1.47,0,0,0-1.19-.85c-2.29-.06-2.55,5-6.19,6.55a7.25,7.25,0,0,1-5-.12c-1.48-.51-2.88-1.52-2.74-1.9s2.24.59,4.52-.12c2.61-.82,4.84-3.73,4.17-5.24-.5-1.13-2.69-1.69-4.29-1.08-2.07.81-1.81,3.1-3.69,3.7-1.7.54-2.44-1.17-5-1.19-2.09,0-2.33,1.12-5.72,2.26-1.61.54-5,1.39-6.91.24-4.34-2.6-1-20.24-5.05-28.78-2.52-5.25-5.4-5.78-8.93-12.77-.85-1.68-2.19-5.64-4.1-14.61-1.56-7.37-1.24-12.64-6.2-16.74a49.08,49.08,0,0,0-7.34-4.28Z"/><path class="cls-13" d="M1242.77,487.07c2.5.17,25-.55,30.18,1.19"/><path class="cls-4" d="M1261.29,502.46a14.87,14.87,0,0,1-3.49.17"/><path class="cls-5" d="M1285.42,667.72a5,5,0,0,0,2.45,3.57,4.9,4.9,0,0,0,5.7-1.11"/><path class="cls-5" d="M1211.37,659.57a5.3,5.3,0,0,0,5.81,6.81"/><path class="cls-5" d="M1241.45,681.3a3.14,3.14,0,0,1,1.71-1.71c.89-.29,2.46.15,4.26-.88a7.69,7.69,0,0,1,2.21-.94"/><path class="cls-5" d="M1243,683.31a2.35,2.35,0,0,1,1-1.08c1.26-.63,2.35.65,3.76.24s1.18-1.72,2.58-2.58c.76-.48,2-.84,4.22-.24"/><path class="cls-6" d="M1253.11,676.85a7.32,7.32,0,0,1,1.36.91l.38.35"/><path class="cls-14" d="M1304.66,588.31a11.06,11.06,0,0,1,12.16,2.08"/><path class="cls-14" d="M1339.25,584.07c-1.84.15-3.1,2.11-4.33,3.45-1.65,1.8-4.05,4.32-5.73,3.81"/><path class="cls-14" d="M1340.73,588.83a2.88,2.88,0,0,0-2-.37c-1.41.33-1.42,1.87-3.11,3.16-1.12.85-2.28,1.06-4.14,1.39a16.2,16.2,0,0,1-3.77.24"/><path class="cls-8" d="M1258.7,477.66c-1.76-6.69,13.09-10.51,14.67-3.75C1275.7,483.83,1259.65,481.29,1258.7,477.66Z"/><circle cx="1263.69" cy="476.26" r="1.86"/><circle class="cls-15" cx="1263.74" cy="476.25" r="0.93"/><path class="cls-8" d="M1247.69,476.26c0,2.58-1.37,4.67-3.07,4.67s-3.4-1.3-2.79-4.47c.18-.94,1.6-4.8,3.3-4.8S1247.69,473.68,1247.69,476.26Z"/><path class="cls-13" d="M1257.38,477.52c0,1.84,2.7,6.29,6.62,7.38"/><path class="cls-13" d="M1259,479.92a11.67,11.67,0,0,0,2.87,2.41,11.54,11.54,0,0,0,4.3,1.47"/><path class="cls-13" d="M1249.18,476.64c-.34,3.1-2.94,5.27-3.52,5.74"/><path class="cls-13" d="M1245.46,466.37c1.63-.3,4.53-2.63,6.1-2.52,1.9.14,3.18,1,5.2,2.29,3.55,2.32,9.24.29,13.55,1.8a9.72,9.72,0,0,1,4,2.84"/><ellipse cx="1245.42" cy="477.08" rx="1.77" ry="1.27" transform="translate(646.22 1668.56) rotate(-84.26)"/><ellipse class="cls-16" cx="1245.46" cy="477.06" rx="0.89" ry="0.64" transform="translate(646.26 1668.59) rotate(-84.26)"/><path class="cls-14" d="M1334,583.59a26.81,26.81,0,0,0-1.84,2.79,9.9,9.9,0,0,1-1.56,2.48,5.06,5.06,0,0,1-2.76,1.26"/><path class="cls-14" d="M1247.05,687.2a4.24,4.24,0,0,1,1-1.54c.91-.84,1.58-.63,2.61-1.38,1.19-.86,1-1.61,1.9-2.2.59-.37,1.61-.66,3.48-.05"/><path class="cls-17" d="M1277.41,475.52s-2.84,7,0,7C1279.39,482.49,1277.41,475.52,1277.41,475.52Z"/><path class="cls-4" d="M1037.43,518.86a20.81,20.81,0,0,1,2.86,6.06,23.8,23.8,0,0,1,.45,9.46c-.67,7.52-.6,14.68,1.84,20,2.55,5.61,6.05,7.37,7.39,10.5s1.88,5.24,3.6,6.85c2.42,2.27,5.4,1.7,8.63,1l-4.56-28.91a39.39,39.39,0,0,1-8.57-8.2,28.51,28.51,0,0,1-5-8.8,25.88,25.88,0,0,1-.65-13.49l-5.61-12.81-3.85,6.71.41,10.46Z"/><path class="cls-4" d="M1031.79,483.25a28.08,28.08,0,0,0,4.73,2.95,9.13,9.13,0,0,0,1.77.44l.5,0a5,5,0,0,1,4,2.26c3.13,5,3.46,14.68,5,22,1.91,9,3.08,11.61,3.93,13.29,3.54,7,5.7,5.71,8.22,11,4.1,8.54,3.65,22.93,3.45,29.3a3.77,3.77,0,0,0,.84,2.86c1.63,1.54,5.3.3,6.91-.24,3.39-1.14,3.63-2.28,5.72-2.26,2.55,0,3.29,1.74,5,1.19,1.88-.6,1.62-2.89,3.69-3.69,1.59-.62,3.79-.06,4.29,1.07.67,1.52-1.57,4.43-4.17,5.24-2.28.71-4.36-.34-4.53.12s1.26,1.39,2.74,1.91a7.25,7.25,0,0,0,5,.11c3.64-1.5,3.89-6.6,6.19-6.55a1.51,1.51,0,0,1,1.19.86.26.26,0,0,0,.39.06c3.33-2.56,5,.5,5,.5a2.51,2.51,0,0,1,2.47,1.56,3.14,3.14,0,0,1-.83,3.34,11.44,11.44,0,0,1,.72,3.57c-.29,2.3-4.79,3.54-7.15,4.17a39.65,39.65,0,0,1-13,1.31c-6.27-.61-18-.91-24.1-9.7-2.79-4-1-4.87-5.44-16.39-2.88-7.53-4.87-10-5.6-16.2-.52-4.42-1.6-13.89-5-20.69-1-2.08-2.09-4.15-3-6.27l-1.44-3.25c.91,21-24.43,43.55-35.67,48.32-1.29.54-4.3,1.64-5.4,3.72-1.9,3.59,2.77,7.36,5.71,15,3.88,10.15-.61,27.28,8.81,35,10.63,8.69,19.89,8.95,28.17,15.54s7.24,15.45,12.45,22.43c11,14.73,14.62,19.31,13.13,23-3.53,8.63-17.69,3-25,4.92-5.87,1.55-6.37,4.72-11.2,4.45-4.07-.22-4.79-2.54-8.76-2.08-2.86,3-6.44,2.71-8,1.38a6.58,6.58,0,0,1-1.13-1.51s-2.71.12-3.86-1.19c-.79-.91-.2-2.71-.2-2.71a3.62,3.62,0,0,1-1.33-.88,2.82,2.82,0,0,1-.17-1.68s-2.55-5.09,4.14-4.63c1.44-.36,2.1-1.07,3-1.38a4.71,4.71,0,0,1,3.31.42c3.64,1.29,9.38.38,11.85-.29,5.06-1.36,5-4,10.83-6.13a24.39,24.39,0,0,1,7.57-1.44c-4.43-13.57-22.81-25.37-28.49-28.64-8.26-4.75-19.11-5-22.59-17.79-1.86-6.83-.33-10.22-3.55-18.12-1.55-3.8-2.45-3.93-4.34-7.9a40.44,40.44,0,0,1-3.83-17c-8.81,9.91-17.61,13.47-23.44,17.84a9,9,0,0,0-3.62,6.28,10.18,10.18,0,0,0,.47,4.35c22.49,10.78,25.49,22.86,26.18,30.57.65,7.32-2.6,11.85.56,19.86,3.84,9.74,12.3,12.27,11.28,18.28-.64,3.8-3.45,5.58-7,6.45-6.27,1.55-14.45-5.63-23-2.93-13.79,4.34-21.47-.68-21.47-.68s-6.9,1.34-8.17-.38c-.94-1.26-1.17-3.45-.2-4.35,1.32-1.21,6.74-.13,6.74-.13a13.5,13.5,0,0,1,3.24-1.82c3.09-1.12,8.59-.59,8.59-.59s1.94-1.47,5-3.41c6.23-3.92,10.89-2.3,13.84-6.42a9.29,9.29,0,0,0,1.27-2.69c1.45-4.41,1.53-12.11-3.77-21.56-4.22-7.53-12.4-17.15-22.83-24.18-2.75-1.86-7.52-4.8-8.06-9.56-.15-1.36-.1-3.45,1.9-6.69,1.6-2.59,8.25-7.05,16.09-13.19,5.68-4.45,3.83-4.78,14.46-14.91,5-4.74,7.45-7.11,10.93-9.58,8-5.71,9.45-4,17.17-9.58,9.48-6.88,11.58-12.54,12.3-15.37.15-.62.28-1.5.54-3.25,1.6-11,.63-15.17,1.71-20.79a31.44,31.44,0,0,1,5.88-12.83s0-6.43-.89-7.9c-9.32-1.39-12.53-12.27-12.94-16a8.62,8.62,0,0,1-1.15-.19c-1.21-.26-2.94-.93-1.93-1.63.28-.19,1.94-1.27,2.13-1.41-2.91-5.49-2.61-9-1.72-10.72.76-1.52,2.14-2.53,3-5.38.54-1.9.07-1.82.79-3,1-1.64,2-1.46,3.52-3.42a11.88,11.88,0,0,0,1.4-2.46c3.07-5.42,18-8.21,25.5-3.09a21.41,21.41,0,0,1,8.49,12.59c2.54,10.26-2,19-3.22,21,1.08,3.95.74,7.46-.69,8.13-1.13.54-2.9-.34-4.49-2a41.11,41.11,0,0,1-7.93,6.6S1031.1,482,1031.79,483.25Z"/><path class="cls-18" d="M1023.71,448.63c-1.19,9.37,12.84,7.68,13.77,2.18l-1.42.05a29.14,29.14,0,0,1-10.71-1.65Z"/><path class="cls-18" d="M1012.46,448.07c.6,3.66-.47,6.61-2.22,7.13-3.16.93-3.63-3.06-3.4-5.36h0a7.84,7.84,0,0,0,5.2-1.46Z"/><path class="cls-19" d="M1011.53,449c.71,1.8-.15,4-1.2,4.14-1.78.28-2.58-2.18-2.26-3.26l1.55-.32,1.73-.69Z"/><path class="cls-19" d="M1025.15,449.19a3.87,3.87,0,0,0,7.47,1.72l-2.51-.46-3.6-.75Z"/><path class="cls-15" d="M1030.52,450.52a2.29,2.29,0,0,1-1.92,1.51,2.4,2.4,0,0,1-2.31-2.41"/><path class="cls-20" d="M1010.58,449.32c.13,1-.29,1.78-.67,1.82s-.8-.47-1-1.23"/><path class="cls-21" d="M1022.15,451.05a8.4,8.4,0,0,0,1.72,3,8.2,8.2,0,0,0,2.69,2"/><path class="cls-21" d="M1013.91,450.92a6.72,6.72,0,0,1-4.84,6.77"/><path class="cls-21" d="M1040.08,437a2.78,2.78,0,0,0,.15,2.27,2.71,2.71,0,0,0,2.47,1.34"/><path class="cls-21" d="M1036.76,437.63a2.67,2.67,0,0,1,1,4.78"/><path class="cls-21" d="M1043.26,442.92a2.35,2.35,0,0,0-3.91.67"/><path class="cls-21" d="M1007.57,462.84a40.12,40.12,0,0,0,10.9-.66c5.54-1.1,18.78-7.58,23.5,5.95"/><path class="cls-4" d="M1025.45,478.51a14.13,14.13,0,0,1-5.83.08"/><path class="cls-21" d="M1018.5,440a4,4,0,0,0,0,4.41c3.78,6.58,18,7.33,25.73,5.6"/><path class="cls-21" d="M1014.76,440.7c0,.4.06,5.35-2.46,7.52-2,1.69-5,1.62-6.35,1.63a16.45,16.45,0,0,1-1.89-.12"/><path class="cls-5" d="M1050.78,657.8a5,5,0,0,0,2.45,3.57,4.92,4.92,0,0,0,5.7-1.12"/><path class="cls-5" d="M976.73,649.64a5.31,5.31,0,0,0,5.81,6.82"/><path class="cls-5" d="M1006.81,671.38a3.14,3.14,0,0,1,1.71-1.71c.89-.29,2.46.15,4.26-.89a7.91,7.91,0,0,1,2.21-.93"/><path class="cls-5" d="M1008.36,673.39a2.3,2.3,0,0,1,1-1.08c1.26-.64,2.35.65,3.76.24s1.18-1.72,2.58-2.58c.76-.48,2-.84,4.22-.24"/><path class="cls-6" d="M1018.46,666.93a7,7,0,0,1,1.37.9l.38.35"/><path class="cls-5" d="M1067.08,570.92a12.5,12.5,0,0,1,13.73,2.36"/><path class="cls-5" d="M1096.88,565c-1,1.12-2.16,2.82-3.55,4.33-1.86,2-2.71,2.86-4.09,3.26a6,6,0,0,1-2.38.17"/><path class="cls-5" d="M1103.33,571a3.25,3.25,0,0,0-2.23-.42c-1.59.37-1.61,2.12-3.52,3.57-1.26,1-2.56,1.19-4.67,1.57a18.37,18.37,0,0,1-4.25.27"/><path class="cls-5" d="M1101.71,565.71a10.1,10.1,0,0,0-2,1.08c-1.87,1.31-2.54,2.77-3.43,3.87a9.82,9.82,0,0,1-5.7,3.21"/><path class="cls-4" d="M1491.57,528.44a20.76,20.76,0,0,1,2.86,6.07,23.75,23.75,0,0,1,.45,9.45c-.67,7.52-.6,14.68,1.84,20,2.55,5.61,6,7.37,7.39,10.5s1.88,5.24,3.6,6.85c2.42,2.28,5.4,1.7,8.63,1l-4.56-28.92a39.61,39.61,0,0,1-8.57-8.2,28.64,28.64,0,0,1-5-8.79,25.91,25.91,0,0,1-.65-13.5l-5.61-12.81-3.85,6.71.41,10.46Z"/><path class="cls-4" d="M1476.74,489.41l-.22-1.29a18.18,18.18,0,0,1-7.54-4.69,18.46,18.46,0,0,1-4.89-10c-1.12-.57-1.78-1.22-1.59-1.81s1.12-.75,1.16-.76c-2.44-5.15-2.93-9.36-2.24-11.19.78-2.09,1.94-1.86,2.63-5.06.39-1.79,0-2.5,1-3.62.86-1,1.72-.89,2.74-2.08a6.06,6.06,0,0,0,1.23-2.54c1.1-3.56,8.47-5.64,9.06-5.74,25.7-4.27,25.14,19.27,24.89,22.8a25.2,25.2,0,0,1-4.37,12.71c-2.21,3.11-3.72,3.51-6.58,6.51-1.71,1.81-4.1,3.5-5.88,7.14,0,0-2.18,4.51,4.48,6,.94.21,1.77.44,1.77.44l.5,0a5,5,0,0,1,4,2.26c3.13,5,3.46,14.68,5,22,1.91,9,3.08,11.61,3.93,13.29,3.54,7,5.7,5.71,8.22,11,4.1,8.54,3.65,22.94,3.46,29.3a3.71,3.71,0,0,0,.83,2.86c1.63,1.54,5.3.3,6.91-.24,3.39-1.14,3.63-2.28,5.72-2.26,2.55,0,3.3,1.74,5,1.19,1.88-.6,1.62-2.89,3.69-3.69,1.59-.62,3.79-.06,4.29,1.07.67,1.52-1.56,4.43-4.17,5.24-2.28.71-4.36-.33-4.53.12s1.27,1.39,2.74,1.91a7.29,7.29,0,0,0,5,.12c3.64-1.51,3.89-6.61,6.19-6.56a1.49,1.49,0,0,1,1.19.86.26.26,0,0,0,.39.06c3.33-2.56,5,.5,5,.5a2.53,2.53,0,0,1,2.48,1.56,3.15,3.15,0,0,1-.84,3.34,11.44,11.44,0,0,1,.72,3.57c-.29,2.3-4.79,3.54-7.15,4.17a39.65,39.65,0,0,1-13,1.31c-6.27-.61-18-.91-24.1-9.7-2.79-4-1-4.87-5.44-16.39-2.88-7.53-4.87-10-5.6-16.2-.52-4.42-1.6-13.89-5-20.69-1-2.08-2.09-4.15-3-6.27l-1.44-3.25c.91,21-24.43,43.55-35.67,48.32-1.29.54-4.3,1.64-5.4,3.72-1.9,3.6,2.77,7.36,5.71,15.05,3.88,10.14-.61,27.27,8.81,35,10.63,8.69,19.89,9,28.17,15.54s7.24,15.45,12.45,22.43c11,14.73,14.62,19.31,13.13,23-3.53,8.63-17.69,3-25,4.93-5.87,1.54-6.37,4.71-11.2,4.44-4.07-.22-4.79-2.54-8.76-2.08-2.86,3-6.44,2.71-8,1.38a6.58,6.58,0,0,1-1.13-1.51s-2.71.12-3.86-1.19c-.79-.91-.2-2.71-.2-2.71a3.69,3.69,0,0,1-1.33-.87,2.85,2.85,0,0,1-.17-1.69s-2.55-5.08,4.14-4.63c1.44-.36,2.1-1.07,3-1.38a4.71,4.71,0,0,1,3.31.42c3.64,1.3,9.38.38,11.85-.28,5.06-1.37,5-4,10.83-6.14a24.32,24.32,0,0,1,7.57-1.43c-4.43-13.58-22.81-25.38-28.49-28.65-8.26-4.74-19.11-5-22.58-17.79-1.87-6.83-.33-10.22-3.56-18.12-1.55-3.8-2.45-3.93-4.34-7.9a40.6,40.6,0,0,1-3.83-17c-8.81,9.92-17.61,13.47-23.44,17.84a9,9,0,0,0-3.62,6.28,10.34,10.34,0,0,0,.47,4.35c22.49,10.78,25.49,22.86,26.18,30.57.65,7.32-2.6,11.85.56,19.86,3.85,9.74,12.3,12.27,11.28,18.28-.64,3.8-3.45,5.58-7,6.45-6.27,1.55-14.45-5.63-23.05-2.93-13.79,4.34-21.47-.68-21.47-.68s-6.9,1.34-8.17-.38c-.94-1.26-1.17-3.45-.19-4.35,1.31-1.21,6.73-.13,6.73-.13a13.5,13.5,0,0,1,3.24-1.82c3.1-1.12,8.6-.59,8.6-.59s1.93-1.46,5-3.41c6.23-3.92,10.89-2.3,13.84-6.41a9.19,9.19,0,0,0,1.27-2.7c1.45-4.41,1.53-12.11-3.77-21.56-4.22-7.53-12.4-17.15-22.83-24.18-2.75-1.86-7.52-4.8-8.06-9.56-.15-1.36-.1-3.45,1.9-6.69,1.6-2.59,8.25-7,16.09-13.19,5.68-4.45,3.84-4.78,14.46-14.91,5-4.74,7.45-7.11,10.93-9.58,8-5.71,9.45-4,17.17-9.58,9.48-6.88,11.58-12.54,12.3-15.37.15-.62.28-1.5.54-3.25,1.6-11,.63-15.17,1.72-20.79a31.26,31.26,0,0,1,5.87-12.83,8.58,8.58,0,0,0,1.51-3.34A11.53,11.53,0,0,0,1476.74,489.41Z"/><path class="cls-4" d="M1479.59,488.09a14.15,14.15,0,0,1-5.83.08"/><path class="cls-5" d="M1504.92,667.38a4.64,4.64,0,0,0,8.15,2.46"/><path class="cls-5" d="M1430.87,659.23a5.3,5.3,0,0,0,5.81,6.81"/><path class="cls-5" d="M1461,681a3.18,3.18,0,0,1,1.71-1.71c.89-.29,2.46.15,4.26-.88a7.69,7.69,0,0,1,2.21-.94"/><path class="cls-5" d="M1462.5,683a2.3,2.3,0,0,1,1-1.08c1.26-.64,2.35.65,3.76.24s1.18-1.72,2.58-2.58c.76-.48,2-.84,4.22-.24"/><path class="cls-6" d="M1472.61,676.51a7.23,7.23,0,0,1,1.36.9l.38.35"/><path class="cls-5" d="M1521.22,580.51a12.47,12.47,0,0,1,13.73,2.35"/><path class="cls-5" d="M1551,574.53c-1,1.12-2.16,2.82-3.54,4.33-1.87,2-2.72,2.86-4.1,3.26a6,6,0,0,1-2.38.17"/><path class="cls-5" d="M1557.47,580.62a3.24,3.24,0,0,0-2.23-.42c-1.59.37-1.61,2.12-3.52,3.57-1.26,1-2.56,1.2-4.67,1.58a18.24,18.24,0,0,1-4.25.26"/><path class="cls-5" d="M1555.85,575.29a10.08,10.08,0,0,0-1.95,1.08c-1.88,1.32-2.54,2.77-3.44,3.87a9.82,9.82,0,0,1-5.7,3.21"/><path class="cls-22" d="M1495.73,455.16c-3.24-3.71-5.19-4.4-8.71-4.65-2.69-.19-4.09.17-6.72-.66-3.31-1.05-3.48-2.73-5.93-3.07-1.43-.2-3.55.19-6.42,2.94"/><path class="cls-19" d="M1466.48,455.68a1.79,1.79,0,0,1,1.43.78c1.81,2.36,1.7,10.49-2.5,9.34C1460.58,464.47,1464,455.68,1466.48,455.68Z"/><path class="cls-23" d="M1466.49,456.11c3-.13,3.09,10.31-1,9.25S1464.29,456.21,1466.49,456.11Z"/><path class="cls-22" d="M1464.13,473.37a41.49,41.49,0,0,0,7.79,1.84,40.1,40.1,0,0,0,22.61-3.82"/><path class="cls-19" d="M1471.92,475.21a17.48,17.48,0,0,0,17.63-1.65l-.81.22a48.17,48.17,0,0,1-16.82,1.43Z"/><path class="cls-22" d="M1488.93,475.21a17.75,17.75,0,0,1-13.14,2.61"/><path class="cls-22" d="M1478.36,462.14a13.17,13.17,0,0,0,5.68,7.91"/><path class="cls-22" d="M1470.1,461.53a7.88,7.88,0,0,1-4.39,6.26"/><ellipse class="cls-19" cx="1467.14" cy="461.52" rx="1.71" ry="3.14"/><ellipse class="cls-24" cx="1467.11" cy="461.47" rx="0.69" ry="1.35"/><path class="cls-22" d="M1480.81,460.24a8.91,8.91,0,0,0,1.51,2.12c3.49,3.64,9,3.06,10.09,2.93"/><path class="cls-4" d="M1482.29,488a18.55,18.55,0,0,1-5.92.1"/><path class="cls-25" d="M747.28,207.54s.71-39-1.62-48.6c-.66-2.75-5.44-21.12-23.81-29.2-20.21-8.89-38.63,2.71-40,3.59l-18.19-4.6C611.56,86.53,589.25,82.44,575.87,94a53,53,0,0,1-36.15,12.64c-14-.85-15.33-4.81-30.28-1.53-12.88,2.83-16.84,16.32-26.36,19-6.21,1.74-8.28-1.56-15.31-1.43-11.31.22-19.25,7.76-29.57,17.46-21,19.73-37.64,44.61-61.62,60.55-2.51,1.67-8.49,5.47-10,12.11-1.64,7.39,3.08,14.65,6.85,19.22,0,0,8.46,9.34,14.29,43.12"/><path class="cls-25" d="M435.87,159.14c2,3.5,4.31,8.85,2.59,14-1.37,4.07-4.57,5.83-8.76,8.76-16.65,11.63-12.91,15.44-28.06,24.91-4.27,2.67-8.11,5.56-10.54,9.8-3.19,5.56-2.35,11.55-2,13.63,1.15,5.91,4.51,7.6,7.61,13.77,33.09,66,14.67,71,4.57,83.47L395,335.2a3.07,3.07,0,0,0-.37.77,10.51,10.51,0,0,0,7.54,13.45c20.52,5.3,39.82-17,50.46-32.48a48.73,48.73,0,0,0,7.71-37.14c-.28-1.42-.63-2.85-1-4.27a65.83,65.83,0,0,0-16-27.53A20,20,0,0,1,438,237.37l-1.76-10.52a15.58,15.58,0,0,1,2.54-11.43c13.46-19.53,23.35-28.87,30.35-33.74,1.95-1.35,7.37-4.93,8.82-11.15,1.42-6.07-1.58-11.95-4.18-15.79"/><path class="cls-25" d="M529.15,139.08a30.47,30.47,0,0,1,1.9,12c-.4,7.83-3.93,13.21-6.95,18.32-8.51,14.37-5.86,14.53-13.26,27.15-15.56,26.54-25.75,23.27-27.79,36.64-2.47,16.1,10.08,35.54,18.31,44.84,3.51,4,5.41,5.15,6.95,8.84,3.68,8.81-.84,20.28-6.95,30.32a49.87,49.87,0,0,1-16,16.2l-15,9.53a17.69,17.69,0,0,1-16.61,1.22h0a8.17,8.17,0,0,1-4.5-9.79l6.7-22.37"/><path class="cls-25" d="M573.49,158.25a77.4,77.4,0,0,1-1.61,17c-3.74,17.95-13.88,34.21-23.42,49.27-6,9.45-10.37,15.32-9.29,23.42.72,5.44,3.44,8.34,6.46,12.92,1.59,2.42,13.76,21.35,12.11,40.79a47.26,47.26,0,0,1-19.38,33.93c-3.51,2.49-13.1,9.92-25.28,8.47-3.32-.4-9.64-1.15-12.18-5.55-3.45-6,3.23-13.36,7.1-25.53,2.3-7.23,4.06-17.58,1.82-31.4"/><path class="cls-2" d="M573.5,160a29.24,29.24,0,0,1,8.46-8.51c12.39-8,22.48,0,46.6-1.07a110.35,110.35,0,0,0,41.81-10.65,104.21,104.21,0,0,0,11.5-6.46"/><path class="cls-2" d="M583,164.67c20.47,0,24.89,19.36,26,21.41l18.69-8.63"/><path class="cls-25" d="M714.3,171.93a45.32,45.32,0,0,1-12.58,14.15"/><path class="cls-25" d="M732.88,174c-6.19,18.22-28.86,24.45-31.16,26"/><path class="cls-25" d="M928.06,333c8-39.82,23.33-56.22,30.18-66.14,1.46-2.11,3.73-53.1,40.51-75,18.52-11,7.79-57.14,130.76-84.95,3.32-.75,32.93-7,63.79-2.24,152.3,23.35,156.6,164,158.93,171.24"/><path class="cls-25" d="M990.37,243.57c13.84-13.78,51-48.29,90.84-54.88a112,112,0,0,1,15.22-1.38c29.27-.28,44.6,23.4,161.89,29,22.79,1.09,41.53,17.53,57.14,42"/><path class="cls-25" d="M973.66,348.73a111,111,0,0,1-3.86-29.68c0-33.54,13.59-60.73,30.36-60.73s30.36,27.19,30.36,60.73c0,19.76-4.72,37.32-12,48.41"/><path class="cls-25" d="M1160.89,346.26A49.29,49.29,0,0,1,1144,319.6c-7.5-32,20-65.87,61.55-75.59s81.21,8.37,88.71,40.39c2.61,11.15,1,22.52-4,33"/><line class="cls-25" x1="351.59" y1="235.86" x2="373.45" y2="232.01"/><path d="M346.05,331.34c-163.51,98.88-183.6,329.11,36.18,329,13.75,0,37.48,8.91,39.46,15.78,4.5,15.65-34.41,38.84-41.53,43v7.41H0V265.34H340.86Z"/><path class="cls-11" d="M0,83.42C32.23,47.11,69.5,31.86,90.27,29.35c36.9-4.46,44.68,11,94.8,14.82,52.56,4,64.87,2.45,88.21,17.72s27.94,54.46,39.53,72.46c12.9,20,20.44,16.94,29.84,31.74,19.5,30.71-3.8,52.81,14.16,80.86,14.44,22.55,49.8,32.11,41.55,53.23-33.75,86.38-107.65-8.35-153.72-16.55C170.55,270.45,51.46,389.56,0,389.56"/><path class="cls-3" d="M138,436.69c-18.4-9.25-42.58,13-45.81,15.69-33.77,27.95-26.62,64.34-57.47,83.56-11.58,7.22-24.12,9.28-34.69,9.44v73.34a128.94,128.94,0,0,0,26.58,3.61c3.49.1,67.39,1,106.13-45.48C173.15,528.29,164,449.8,138,436.69Z"/><polygon class="cls-11" points="41.42 416.68 14.13 511.45 70.76 556.59 62.63 519.02 209.81 478.65 181.77 439.13 203.92 394.55 50.57 446.41 41.42 416.68"/><path class="cls-4" d="M817.44,522.17a20.81,20.81,0,0,1,2.86,6.06,23.8,23.8,0,0,1,.45,9.46c-.67,7.52-.6,14.68,1.83,20,2.56,5.61,6.06,7.37,7.4,10.5s1.88,5.24,3.6,6.85c2.42,2.27,5.4,1.7,8.63,1l-4.56-28.91a39.16,39.16,0,0,1-8.57-8.2,28.71,28.71,0,0,1-5-8.8,25.86,25.86,0,0,1-.64-13.49l-5.62-12.81L814,510.52l.41,10.46Z"/><path class="cls-4" d="M821.82,472.16c4.51-5.62,8.29-13.56,7.65-21.74-.07-.87-1.46-14.79-13.39-19.05-8.05-2.88-20.17-.84-23.3,6.8-.66,1.6-2.23,2.25-3.42,3.41-1.74,1.7-.81,4.1-2.27,6-3.49,4.63-2.51,6.25-2.51,6.25s-1,0-1.24.87C782.06,460,788,466.26,788,466.26s3.23,13.87,13.2,15.08l.26,8.67a31.44,31.44,0,0,0-5.88,12.83c-1.09,5.62-.11,9.8-1.71,20.79-.26,1.75-.39,2.63-.55,3.25-.71,2.83-2.81,8.49-12.29,15.37-7.72,5.6-9.13,3.87-17.17,9.58-3.48,2.47-6,4.84-10.93,9.58-10.63,10.13-8.78,10.46-14.46,14.91-7.84,6.14-14.49,10.6-16.09,13.19-2,3.24-2.05,5.33-1.9,6.69.54,4.76,5.31,7.7,8.06,9.56,10.43,7,18.61,16.65,22.83,24.18,5.3,9.45,5.22,17.15,3.77,21.56a9.51,9.51,0,0,1-1.28,2.7c-2.94,4.11-7.6,2.49-13.83,6.41-3.09,1.94-5,3.41-5,3.41s-5.5-.53-8.6.59a13.56,13.56,0,0,0-3.23,1.82s-5.42-1.08-6.74.13c-1,.9-.74,3.09.19,4.35,1.28,1.72,8.18.38,8.18.38s7.68,5,21.47.68c8.6-2.7,16.78,4.48,23,2.93,3.51-.87,6.32-2.65,7-6.45,1-6-7.44-8.54-11.28-18.28-3.16-8,.09-12.54-.56-19.86-.69-7.71-3.69-19.79-26.18-30.57a10.18,10.18,0,0,1-.47-4.35,9,9,0,0,1,3.62-6.28c5.83-4.37,14.63-7.93,23.44-17.84a40.44,40.44,0,0,0,3.83,17c1.89,4,2.79,4.1,4.34,7.9,3.22,7.9,1.69,11.29,3.55,18.12,3.48,12.75,14.33,13,22.59,17.79,5.68,3.27,24,15.07,28.49,28.64a24.39,24.39,0,0,0-7.57,1.44c-5.85,2.13-5.78,4.77-10.83,6.13-2.47.67-8.21,1.59-11.85.29a4.73,4.73,0,0,0-3.32-.42c-.93.31-1.59,1-3,1.38-6.69-.46-4.14,4.63-4.14,4.63a2.74,2.74,0,0,0,.17,1.68,3.62,3.62,0,0,0,1.33.88s-.59,1.8.2,2.71c1.15,1.31,3.85,1.19,3.85,1.19a6.74,6.74,0,0,0,1.14,1.51c1.57,1.33,5.15,1.57,8-1.38,4-.46,4.69,1.86,8.76,2.08,4.83.27,5.32-2.9,11.19-4.45,7.36-1.94,21.53,3.71,25.06-4.92,1.49-3.64-2.13-8.22-13.13-23-5.21-7-4-15.73-12.45-22.43s-17.54-6.85-28.17-15.54c-9.42-7.69-4.93-24.82-8.81-35-2.95-7.68-7.61-11.45-5.71-15,1.1-2.08,4.11-3.18,5.39-3.72,11.24-4.77,36.59-27.33,35.68-48.32l1.44,3.25c.94,2.12,2,4.19,3,6.27,3.36,6.8,4.44,16.27,5,20.69.73,6.16,2.72,8.67,5.6,16.2,4.4,11.52,2.65,12.38,5.43,16.39,6.12,8.79,17.84,9.09,24.11,9.7a39.65,39.65,0,0,0,13-1.31c2.36-.63,6.86-1.87,7.14-4.17a11.22,11.22,0,0,0-.71-3.57,3.16,3.16,0,0,0,.83-3.34,2.51,2.51,0,0,0-2.47-1.56s-1.67-3.06-5-.5a.26.26,0,0,1-.39-.06,1.51,1.51,0,0,0-1.19-.86c-2.3-.05-2.56,5-6.19,6.55a7.25,7.25,0,0,1-5-.11c-1.48-.52-2.88-1.52-2.74-1.91s2.25.59,4.53-.12c2.6-.81,4.84-3.72,4.17-5.24-.5-1.13-2.7-1.69-4.29-1.07-2.08.8-1.81,3.09-3.69,3.69-1.71.55-2.45-1.17-5-1.19-2.08,0-2.32,1.12-5.71,2.26-1.61.54-5.28,1.78-6.91.24a3.77,3.77,0,0,1-.84-2.86c.2-6.37.65-20.76-3.45-29.3-2.52-5.25-4.68-4-8.22-11-.85-1.68-2-4.32-3.93-13.29-1.57-7.36-1.91-17-5-22a5,5,0,0,0-4-2.26c-.16,0-8-5.2-7.55-7C811.39,482.41,818.65,476.11,821.82,472.16Z"/><path class="cls-26" d="M821.46,446.3a15.49,15.49,0,0,0-6.68-4.25c-3.91-1.18-6.28.33-10.15-1s-3.47-3.54-6.3-3.68c-2.64-.13-4.87,2-6.28,3.42"/><path class="cls-27" d="M817.14,455.28c.29-.29,2.31-2.32,1.9-4.94-.45-2.84-3.42-4.17-4.19-4.47a8.29,8.29,0,0,0-9.64,3c-.36.53-2.08,3.3-1,5.6C805.91,458.09,813.64,458.7,817.14,455.28Z"/><path class="cls-27" d="M791.05,457.46c2.59-2,2.89-10.22-1.16-10.39-2.72-.11-3.47,6.74-3.17,7"/><path class="cls-28" d="M825.15,458a7.21,7.21,0,0,0-8.48-3.9,7,7,0,0,0-4.53,5.6"/><ellipse class="cls-19" cx="810.58" cy="452.26" rx="4.54" ry="3.99"/><ellipse class="cls-29" cx="810.05" cy="452.14" rx="2.79" ry="2.29"/><circle class="cls-23" cx="811.82" cy="453.29" r="1.6"/><circle class="cls-23" cx="807.69" cy="452.25" r="1.04"/><path class="cls-26" d="M802.88,454a9.81,9.81,0,0,0,1.23,2.79,9.46,9.46,0,0,0,1.75,2"/><path class="cls-26" d="M794.33,453.19a11.81,11.81,0,0,1-.93,2.94A11.49,11.49,0,0,1,792,458.4"/><path class="cls-26" d="M820.68,457.31a28.84,28.84,0,0,1-19.57,7.84c-11.63.06-15.23-6.85-16.4-8.17"/><path class="cls-28" d="M784.58,453.86a7.52,7.52,0,0,1,2.39.42,8.12,8.12,0,0,1,4.15,3.47"/><ellipse class="cls-19" cx="790.02" cy="452.21" rx="1.8" ry="3.1"/><ellipse class="cls-29" cx="790.07" cy="452.21" rx="0.64" ry="1.33"/><circle class="cls-23" cx="790.73" cy="452.66" r="0.75"/><ellipse class="cls-3" cx="789.21" cy="451.39" rx="0.81" ry="0.51"/><path class="cls-5" d="M801.13,481.33c.82.18,4.41,0,5.33-.68"/><path class="cls-5" d="M830.79,661.11a5,5,0,0,0,2.45,3.57,4.92,4.92,0,0,0,5.7-1.12"/><path class="cls-5" d="M756.74,653a5.31,5.31,0,0,0,5.81,6.82"/><path class="cls-5" d="M786.81,674.69a3.2,3.2,0,0,1,1.72-1.71c.89-.29,2.45.15,4.26-.89a7.79,7.79,0,0,1,2.21-.93"/><path class="cls-5" d="M788.37,676.7a2.3,2.3,0,0,1,1-1.08c1.26-.64,2.35.65,3.75.24s1.19-1.72,2.58-2.58c.77-.48,2-.84,4.23-.24"/><path class="cls-6" d="M798.47,670.24a7,7,0,0,1,1.37.9l.38.35"/><path class="cls-5" d="M847.09,574.23a12.5,12.5,0,0,1,13.73,2.36"/><rect x="63.39" y="564.12" width="126.89" height="2.83" transform="translate(654.35 325.43) rotate(78.17)"/><rect x="76.03" y="566.19" width="141.6" height="2.83" transform="translate(672.27 307.51) rotate(78.17)"/><path class="cls-10" d="M4.21,183.11C134.83,125.64,174.89,75.27,202.36,72.23c17.51-1.94,33.58,14.3,65,37.31,8.33,6.1,18.4,15,34.58,22.75"/><path class="cls-10" d="M122.26,223.62c28.4-26.82,74.05-79.05-8.19-70.43-46.87,4.92-130.53,94.31-87.4,124.5C46.43,291.53,86,257.87,122.26,223.62Z"/><path class="cls-10" d="M328.64,242.46c12.86-9.29,8.29-51.54-12.61-73-1.21-1.25-20.08-22.23-33.69-15.6-13.34,6.5-10.65,37.91,2.13,60.06C294.73,231.74,318.31,249.92,328.64,242.46Z"/><path class="cls-10" d="M165.73,191.63c-14,17.26-29.91,35.44-47.89,54-17.74,18.33-35.14,34.62-51.72,49"/><path class="cls-10" d="M265.44,187.35A323.49,323.49,0,0,0,321.26,276"/><path d="M142.36,201.13c1.81-2.57,5.47-17-1.82-24.29-11.8-11.8-48.17,1-70,22.89C53.06,217.12,36.27,242,47.6,254.67c5.28,5.9,24.27,13,45.8-5C109.45,236.21,129.68,219.09,142.36,201.13Z"/><path d="M274,182.3a14.11,14.11,0,0,1,8.67-8.56c8.07-2.76,16.38,3.5,20.47,6.58,12.79,9.63,29.63,57,11.21,61.78-5.93,1.54-16.41-5.15-24.56-17.61C284.75,216.85,271.71,189.27,274,182.3Z"/><ellipse class="cls-30" cx="100.21" cy="216.51" rx="39.51" ry="11.86" transform="translate(-115.36 114.31) rotate(-39.8)"/><ellipse class="cls-31" cx="298.25" cy="207.69" rx="7.73" ry="25.74" transform="translate(-63.89 176.95) rotate(-30)"/><path class="cls-11" d="M397.73,726.55c34.41-30.29,34.71-45.12,31.35-50.41C418.81,660,372.72,662,372.72,662s46.43,5.7,40.6,19.53c-3.47,8.24-23.21,15.7-23.21,15.7a42,42,0,0,0-25.92-7.93c-101.7,3.92-91.63-62-140.58-58.73-102.74,6.87-124.88-45.86-151.88-49C42.31,578.07,21,598.32,0,618.68V726.55Z"/><path class="cls-10" d="M83.64,602.14c24.14,28,46.46,37.06,63.14,39.85,27.52,4.6,73.68-3.74,93.1,18.56,37.21,42.72,61.74,40.24,82,47.72,10.91,4,15.27,12.23,17.77,14.84"/><path class="cls-10" d="M20.94,652.71c10.6,14.45,19.88,24.23,27.63,30.38s13.79,8,25.95,17.82c8.33,6.7,17,14.46,20.48,19.41"/><path class="cls-10" d="M58.78,634.61a140.5,140.5,0,0,0,38.37,27.47c34.95,16.85,58,9.24,90.89,26.66,9.73,5.15,23.71,14.28,38,31.1"/><path class="cls-3" d="M128.5,581.38l9.75,46.54,2.77-.58-10.18-48.56C130.07,579.66,129.29,580.53,128.5,581.38Z"/><path class="cls-3" d="M145.65,556.68c-.67,1.3-1.36,2.59-2.08,3.87l16.05,76.64,2.77-.58Z"/><path class="cls-4" d="M403.57,511.05a20.76,20.76,0,0,1,2.86,6.07,23.75,23.75,0,0,1,.45,9.45c-.67,7.52-.6,14.68,1.84,20,2.56,5.61,6,7.37,7.4,10.5s1.87,5.24,3.59,6.85c2.42,2.28,5.4,1.7,8.63,1L423.78,536a39.38,39.38,0,0,1-8.56-8.2,28.44,28.44,0,0,1-5-8.79,25.91,25.91,0,0,1-.65-13.5l-5.61-12.81-3.84,6.71.4,10.46Z"/><path class="cls-4" d="M397.13,473.92a15,15,0,0,0,5.53,4.47,9.31,9.31,0,0,0,1.77.44l.5,0a5,5,0,0,1,4,2.26c3.12,5,3.46,14.68,5,22,1.91,9,3.08,11.61,3.93,13.29,3.54,7,5.7,5.71,8.22,11,4.1,8.54,3.65,22.94,3.46,29.3a3.71,3.71,0,0,0,.83,2.86c1.63,1.54,5.3.31,6.91-.24,3.39-1.14,3.63-2.28,5.72-2.26,2.56,0,3.3,1.74,5,1.19,1.88-.6,1.62-2.89,3.69-3.69,1.6-.62,3.79-.06,4.29,1.07.67,1.52-1.56,4.43-4.17,5.24-2.28.71-4.36-.33-4.52.12s1.26,1.39,2.74,1.91a7.25,7.25,0,0,0,5,.12c3.64-1.51,3.89-6.61,6.19-6.56.77,0,.85.6,2.15.72s1.09-.38,3.09-.12a3.41,3.41,0,0,1,1.55.95,8.79,8.79,0,0,1,2.27,1.43c1.79,2.13-.84,3.34-.84,3.34a11.44,11.44,0,0,1,.72,3.57c-.29,2.3-4.79,3.54-7.15,4.17a39.6,39.6,0,0,1-13,1.31c-6.28-.61-18-.91-24.11-9.7-2.79-4-1-4.87-5.44-16.39-2.88-7.53-4.86-10-5.59-16.2-.53-4.42-1.61-13.89-5-20.69-1-2.08-2.09-4.15-3-6.27l-1.44-3.25c.91,21-24.43,43.55-35.67,48.32-1.29.54-4.3,1.64-5.4,3.72-1.9,3.6,2.77,7.36,5.71,15.05,3.89,10.14-.61,27.27,8.81,35,10.63,8.68,19.89,9,28.17,15.53,8.43,6.7,7.25,15.46,12.46,22.43,11,14.73,14.61,19.31,13.12,23-3.53,8.63-17.69,3-25,4.93-5.87,1.54-6.37,4.71-11.19,4.44-4.08-.22-4.8-2.54-8.77-2.08-2.86,2.95-6.43,2.71-8,1.38a6.58,6.58,0,0,1-1.13-1.51s-2.51-.24-3.21-1.2a7.41,7.41,0,0,1-.85-2.7,3.6,3.6,0,0,1-1.32-.87A2.8,2.8,0,0,1,373,663s-2.55-5.08,4.14-4.63a22.24,22.24,0,0,0,3-1.38,4.71,4.71,0,0,1,3.31.42c3.64,1.3,9.38.38,11.85-.28,5.06-1.37,5-4,10.84-6.14a24.22,24.22,0,0,1,7.57-1.43c-4.44-13.58-22.82-25.38-28.5-28.65-8.26-4.74-19.11-5-22.58-17.79-1.87-6.83-.33-10.22-3.56-18.12-1.55-3.8-2.45-3.93-4.34-7.9a40.6,40.6,0,0,1-3.83-17c-8.81,9.91-17.61,13.47-23.44,17.84a9,9,0,0,0-3.61,6.28,10,10,0,0,0,.47,4.35c22.48,10.78,25.48,22.87,26.17,30.57.65,7.32-2.6,11.85.56,19.86,3.85,9.74,12.3,12.27,11.29,18.28-.65,3.8-3.45,5.58-7,6.45-6.27,1.55-14.45-5.63-23.05-2.93-13.79,4.34-21.47-.68-21.47-.68s-6.9,1.34-8.17-.38c-.93-1.25-1.17-3.45-.19-4.35,1.31-1.21,6.73-.13,6.73-.13a13.5,13.5,0,0,1,3.24-1.82c3.1-1.12,8.6-.59,8.6-.59s1.93-1.46,5-3.41c6.23-3.92,10.89-2.3,13.84-6.41a9.19,9.19,0,0,0,1.27-2.7c1.45-4.4,1.53-12.11-3.77-21.56-4.22-7.53-12.4-17.15-22.83-24.18-2.75-1.86-7.52-4.8-8.06-9.56-.15-1.36-.09-3.45,1.9-6.69,1.6-2.59,8.25-7,16.09-13.19,5.68-4.45,3.84-4.78,14.46-14.91,5-4.74,7.45-7.11,10.93-9.58,8-5.71,9.45-4,17.18-9.58,9.48-6.88,11.57-12.54,12.29-15.37.16-.62.28-1.5.54-3.25,1.6-11,.63-15.17,1.72-20.79a31.26,31.26,0,0,1,5.87-12.83h0c1.7-3.14.73-7.46.73-7.46a11.39,11.39,0,0,1-2.88-.56,7.84,7.84,0,0,1-4.15-3,4.89,4.89,0,0,0-1.06.16c-2.07.6-4.56,1.29-5.81-1.13-.68-1.32.38-3.78,2.23-4.34,1.29-.39,2.78.18,4.35.74.69.25,7,4,10.42,2.06,2.09-1.16,3.64-4.5,3-6.62-1.92-6.15-24.11-1.35-24.11-5,0-.95,3.58-2.12,3.58-2.12s-2.05-4.51-1.83-8.41c.17-2.89,2.59-3.41,3.73-9.13.38-1.91,3.17-2.77,4.8-6.12,2.84-5.86,15.93-9.08,26.1-3.46,7.28,4,9.15,15.68,9.3,18.29.58,10.49-3,15.32-8.08,20.38a28.73,28.73,0,0,1-3.61,3,25.81,25.81,0,0,0-6.41,6.77Z"/><path class="cls-32" d="M408.5,438.44c-7-5-20.3-9.2-23.55-8.52-2.37.5-5,2.2-8,6.34"/><path class="cls-19" d="M380.11,455.17s11-2.77,14,2.38c4.23,7.12-8.68,14.21-15.63,6.59-.86-.95,5.31.76,6.35-4.2C385.59,456.56,380.11,455.17,380.11,455.17Z"/><path class="cls-33" d="M381.32,467.84a5,5,0,0,1,3.22,1.37"/><path class="cls-33" d="M393.2,471.07a16.62,16.62,0,0,1-4.93.36"/><path class="cls-34" d="M391,444.69c.85,3.76,15.06,6.34,14.7-3.45-.11-2.92-3.57-5.11-7.62-4.89A7.18,7.18,0,0,0,391,444.69Z"/><path class="cls-32" d="M389.89,444.53a16.25,16.25,0,0,0,5.94,8"/><path class="cls-34" d="M374.25,443.06c-.15,3,1.21,5.29,2.91,5.29s3.1-2.43,3.1-5.43-1.43-5.78-3.1-5.43C376.42,437.65,374.37,440.73,374.25,443.06Z"/><ellipse class="cls-19" cx="396.94" cy="442.6" rx="4.65" ry="4.11"/><ellipse class="cls-19" cx="377.48" cy="442.84" rx="1.99" ry="3.52"/><path class="cls-32" d="M381.54,443.78a8.37,8.37,0,0,1-4.64,6.62"/><ellipse class="cls-35" cx="396.4" cy="442.63" rx="2.14" ry="2.42" transform="translate(-105.73 760.31) rotate(-80.47)"/><circle class="cls-23" cx="394.46" cy="441.43" r="0.83"/><ellipse class="cls-36" cx="377.47" cy="442.74" rx="0.8" ry="1.41"/><circle class="cls-23" cx="376.65" cy="441.89" r="0.72"/><path class="cls-5" d="M417.68,650.52a5,5,0,0,0,2.45,3.57,4.92,4.92,0,0,0,5.7-1.12"/><path class="cls-5" d="M343.63,642.36a5.31,5.31,0,0,0,5.81,6.82"/><path class="cls-5" d="M373.7,664.1a3.2,3.2,0,0,1,1.72-1.71c.89-.29,1.25.23,2.45.09a4.46,4.46,0,0,0,3-1.81,3.71,3.71,0,0,0,.54-1.36"/><path class="cls-5" d="M375.26,666.11a2.3,2.3,0,0,1,1-1.08c1.26-.64,2.35.65,3.75.24s1.19-1.72,2.58-2.58c.77-.48,2-.84,4.23-.24"/><path class="cls-5" d="M388.26,664.93a7.85,7.85,0,0,0-3.57.17,9,9,0,0,0-5.38,4.91"/><path class="cls-6" d="M385.36,659.65a7,7,0,0,1,1.37.9l.38.35"/><path class="cls-5" d="M434,563.64A12.5,12.5,0,0,1,447.71,566"/><path class="cls-5" d="M463.94,557.22c-1.63.67-2.75,2.5-4.14,4-1.86,2-2.71,2.87-4.09,3.27a5.82,5.82,0,0,1-2.38.16"/><path class="cls-5" d="M468.18,558.08a10,10,0,0,0-2,1.07c-1.87,1.32-2.54,2.78-3.43,3.88a9.87,9.87,0,0,1-5.7,3.21"/><path class="cls-5" d="M469.8,563a3.2,3.2,0,0,0-2.23-.42c-1.59.37-1.61,2.11-3.52,3.57-1.26,1-2.56,1.19-4.67,1.57a18.27,18.27,0,0,1-4.25.26"/><path class="cls-5" d="M876.92,568.14c-1,1.12-2.16,2.82-3.54,4.33-1.87,2-2.72,2.86-4.1,3.26a6,6,0,0,1-2.38.17"/><path class="cls-5" d="M881.75,568.9a10.08,10.08,0,0,0-2,1.08c-1.88,1.32-2.54,2.77-3.44,3.87a9.82,9.82,0,0,1-5.7,3.21"/><path class="cls-5" d="M883.37,574.23a3.24,3.24,0,0,0-2.23-.42c-1.59.37-1.61,2.12-3.52,3.57-1.26,1-2.56,1.2-4.67,1.58a18.24,18.24,0,0,1-4.25.26"/><path class="cls-10" d="M55.74,454.79a16.05,16.05,0,0,0-8.19,4.95c-4.56,5.34-5.3,14.21-2.26,16,2.58,1.55,8.37-1.71,13.73-8"/><path class="cls-10" d="M65.53,455.89c-2.68.25-4.22,4.09-4.39,6.73-.24,3.53,1.76,7.68,4,7.83,2.88.19,7.07-6.3,5.22-10.85C69.58,457.74,67.61,455.7,65.53,455.89Z"/><path class="cls-10" d="M73.91,451.77c-1.34,10.85-1.48,14.36-1.1,14.42.79.14,3.82-14.39,5.91-14.14.82.1.75,2.44,1.92,2.74,2.31.59,5.46-7.81,7.14-7.41,1,.23,1.44,3.6.55,13.18"/><path class="cls-10" d="M92.17,454.66a20.56,20.56,0,0,0,8-6.05c.68-.86,3.2-4.08,2.33-5.22-.73-1-3.85-.35-5.76,1.24-4.36,3.62-3.77,13.34-.42,14.69,2.36,1,6.34-2.1,9.76-6.72"/><path class="cls-10" d="M114.83,438.59a18.68,18.68,0,0,0,0,9.61,18.28,18.28,0,0,0,2.2,4.94"/><path class="cls-10" d="M119.78,437.63c.42,10.27.67,12.91.82,12.91.31,0-1.22-10.9,4-14.29.18-.12,2.34-1.48,4.12-.68,2.31,1,3.25,5.46,1.78,11.12"/><path class="cls-10" d="M139.28,442.43c6.69-3.58,10.45-8.16,9.61-11.67-.44-1.85-2.16-3.46-3-3.16-1.89.67,1.79,10.18.41,22.94a52.89,52.89,0,0,1-2.61,11.67"/><path class="cls-10" d="M155.91,427.51a6.8,6.8,0,0,0-3,1.94c-3.47,4-1.13,12.23,1.42,12.7,1.59.29,3.58-2.32,4.19-4.63a7.22,7.22,0,0,0-2.17-7.1"/><path class="cls-10" d="M162.19,423c.23,13.52.26,16.74.22,16.74s-1.95-11,3.44-15.24a8.47,8.47,0,0,1,4.41-1.65"/><circle cx="117.35" cy="433.58" r="1.73"/><path class="cls-10" d="M57,511.92q-.12-10.05-.25-20.11a3.4,3.4,0,0,1,4.3-3.32l26.64,7.38a4.14,4.14,0,0,0,5-2.6l4.55-12.77a1.31,1.31,0,0,1,2.51.33l2.65,18.54"/><path class="cls-10" d="M106.29,495.19c3.33-1.5,8.49-4.54,10.53-10.07.68-1.83,1.56-5.41.47-6-1.24-.72-5.23,2.18-6.35,6-1.31,4.46,1,10.77,4.8,11.15,2.46.26,5.18-2.06,6.82-5.42"/><path class="cls-10" d="M124,475.2c1.74,12.85,2.39,15.83,2.63,15.81.42-.05-1.49-8.85,3.1-13,.35-.31,2.35-2.13,4-1.55,3.48,1.2,2.48,11.58,3.25,11.62.94.05-1.42-13.59,3.57-15,.74-.21,2.11,2,4.49,13.17"/><path class="cls-10" d="M148.75,486.81a27.7,27.7,0,0,0,8.61-11c.75-1.81,2.71-6.48,1-7.92-1.15-1-3.89-.35-5.16,1.2-2.76,3.37.14,12.55,5,13.09,2.71.3,5.74-2.13,7.58-5.68"/></svg>