<svg id="Layer_1" data-name="Layer 1" xmlns="http://www.w3.org/2000/svg" viewBox="0 0 1393.51 1748.82"><defs><style>.cls-1,.cls-2{fill:#64a152;}.cls-1,.cls-10,.cls-2,.cls-3,.cls-4,.cls-5,.cls-6,.cls-7{stroke:#000;}.cls-1,.cls-10,.cls-11,.cls-2,.cls-3,.cls-4,.cls-5,.cls-6,.cls-7,.cls-8,.cls-9{stroke-miterlimit:10;}.cls-1,.cls-10,.cls-2,.cls-3,.cls-4{stroke-width:4px;}.cls-1,.cls-10{isolation:isolate;}.cls-3,.cls-7{fill:#fff;}.cls-10,.cls-11,.cls-4,.cls-5,.cls-6,.cls-8,.cls-9{fill:none;}.cls-5{stroke-width:4.07px;}.cls-6,.cls-7{stroke-width:3px;}.cls-8,.cls-9{stroke:#06acff;}.cls-8{stroke-width:5px;}.cls-9{stroke-width:2.85px;}.cls-11{stroke:#ffc000;stroke-width:31px;}</style></defs><title>Poypoy</title><path class="cls-1" d="M713.12,1605.4c.92-16,13.85-161.57,14.59-197.45.7-34.28-1.6-71.31-8.14-121.54-4.49-43.41-11.28-80.18-20.32-165.91-6-57.31-9.69-104.39-11.85-135.42a110.45,110.45,0,0,1,7.51-37.45s12.89-40,13.68-46.6l7.77-41.81,24.44,25.72a124.27,124.27,0,0,0,48.26,31.4l2.64.94a80.53,80.53,0,0,1,31.91,21l7,7.54a14.94,14.94,0,0,0,10.95,4.78h0c6.23,0,15.08-3.43,19.53-7.78,28.41-27.8,84.26-27.32,139.34-67.45,59-43,101.66-84,123.53-114.07,48.77,11.29,73.69,2.48,87.5-8.19,7.71-6,25.14-22.71,28.14-25.58,17.93-17.23,24.71-25.59,37.86-28.15,6.65-1.29,5.71.7,22,.52,11.55-.13,35.69-.4,37.35-7.17.48-2-.74-5.37-9.77-11.37,15.21-3,27.74-6.71,15.87-14.56-22.49-14.88-58.29,8.63-68.8,6a18.52,18.52,0,0,0-7.27-.67c-3.44.4-4.18,1.55-6.62,1.66-4,.18-5.51-2.69-9.59-4.63-5.49-2.62-8.34-.11-16.21-.66-9-.64-10.5-4.31-17.53-5.63-10.28-1.93-13.24,4.76-28.12,8.93-15.63,4.39-18.11-1.39-44.32,2-15.79,2-14.55,4.08-20.58,3.32-19.09-2.42-20-21.49-41.27-30.75-15.57-6.78-33.95-4.77-46.52,3.24-1.92,1.22-17.13,11.13-15.38,21.64s19.65,18.46,33.58,15.78c13.69-2.63,18.31-14.6,27.72-12.14,4.22,1.1,4,3.71,13.55,11.73,10,8.44,13.66,8.49,15.78,11.74,6.24,9.58-8.8,35-31.57,55.55-43.21,38.92-103.18,50-131.28,55.23-19.57,3.62-29.8,4-45.87,11.62C876,833.44,859.06,854,848.79,869.68c-3.83-4.74-9.82-11.86-17.68-20-35-36.12-50.22-33.45-72.54-55.47C720.12,756.29,732.71,716.11,686,684c-12.36-10.81-70.1-24.09-97-36.3-14.34-6.51-23.16-29.58-23-41,.35-20.35,10.65-34.53,14.56-39.42,16.37-3.5,45-14.72,74.88-42.41,48.67-45.07,53.81-103.53,57.9-116.39l14.05-9.64a3,3,0,0,0,.15-4.81l-12.42-9.66c15.61-43.67,37.94-89.68,29.25-109.45-8.89-20.25-28.07-34.12-37.23-72.08-4-16.47-.84-11.32-6.39-23.57-10.59-23.33-34.4-33-52.2-55.81C625,93.2,616.09,93.89,600.52,82.93c-58.65-41.31-191.2-33-254.19,41.15C318,157.39,312.28,196,298.73,229.21,283.62,266.26,286,348.35,339,446.35c15.05,27.88,51.49,33.55,89,75.86A343.25,343.25,0,0,1,474.6,590a36.29,36.29,0,0,1-1.73,36.31,31.37,31.37,0,0,1-26,19.37c-20.72,2-42.87,13.57-69.44,29.5-38.94,23.35-42.52,47-60.55,91.41-7.4,18.22-19.8,36.85-32.73,58.07L371,921.26c4-9.87,7.61-19.41,10.83-28.55,1.77,35.19,9.33,61.44,16.25,79.37,7.19,18.65,15.2,31.58,23.21,58a276.09,276.09,0,0,1,10.12,46.27c15.1,129.54-12.11,452.2,4.21,531.42"/><path class="cls-1" d="M289.42,816.15C271.27,846,250.83,882,243,928c-6.74,39.78-19.09,68.24-26.2,92.79-9.46,32.66-14.36,56.1-18.91,71.51-13.52,45.74,11.22,38.35,27.55,48.46a75.33,75.33,0,0,1,9.69,7.15c9.74,8,72,16.64,204.82-9.8,12.74-2.53,22.34,53.3,77.9,11.63,38.77-.3,55.47,34,56.75,38.61,8.85,5.77,19.65,5.62,26.6,0,5.91-4.77,7-11.85,7.2-13.85,6.31,3,10.1,1.28,10.84.92,6.13-2.92,9.21-14.06,4-26.41a20.47,20.47,0,0,0,12.64-7.9c4.65-6.59,4.6-15.9-.16-23.55,6.46-5.93,8.68-11.53,9.58-15,5.23-20.35-41.59-57.56-46.36-61.29-10.36-8.12-12.35-16.58-23.72-19.28-11.8-.72-55.16,42-79.79,65.38-9.21,2.07-23.85.89-38.47-3.43-18-5.34-25.13-13.52-44-25.6-34.2-21.88-105-13.54-112.22-11.09a690,690,0,0,0,40.67-63.59c13.61-24.41,29.9-59.2,38.54-87.26"/><path class="cls-2" d="M298.5,1049.81c-8.33,2.53-17.21,5.61-26.5,9.38a305,305,0,0,0-37.68,18.43"/><path class="cls-2" d="M427.61,1119a19.87,19.87,0,0,0,14.19,7.49,19.63,19.63,0,0,0,14-5"/><path class="cls-3" d="M587.62,1037.22c16.59-41.86,33.33-73.65,36-76.34,12.69-13,111.86,38.71,130.39,89.13,24.71,67.28-72.79,49.78-112.55,48.77-3.19-7.14-5.37-15-11.95-23.83C618.48,1060.3,587.62,1037.22,587.62,1037.22Z"/><path class="cls-4" d="M574.09,1050c4.36,14.51,11,23.23,16.29,28.52,9.1,9.13,16.88,10.85,26.68,21.79,6.65,7.43,12.57,15.23,14.72,20.28"/><path class="cls-4" d="M551.07,1117.79a67.24,67.24,0,0,0,10.27,14.75c10.31,11.2,19.92,13.77,35.55,28.18,3.43,3.16,9.06,8.65,9.25,16.17.05,2.07,0,6.72-2.16,8.72"/><path class="cls-4" d="M553.36,1095.34c14,4,22,10.27,26.8,15.22,6.78,7.06,4.76,9.17,13.39,18.12,6,6.17,10.26,8.61,20.56,18.88,2.49,2.48,4.48,4.57,5.75,5.93"/><path class="cls-5" d="M621.16,964.86c2.16-2.3,3.7-2.61,4.72-2.47,7.86,1.1,1.62,32.18,19.13,59.14,8.59,13.21,21.41,23.17,24.88,21.07,5.23-3.17-11.2-33.42-7.27-35.49,2.37-1.24,12.17,7.72,17.23,20,6.44,15.61.32,24.83,3.06,37.33,2.23,10.18,10,22.89,38.17,35.72"/><path class="cls-4" d="M1228,667.76c-8.57,0-27.65,8.84-30.73,11"/><path class="cls-4" d="M1258.23,673.79a81.3,81.3,0,0,0-36.74,10.93"/><path class="cls-4" d="M1278.46,672.44a145.52,145.52,0,0,0-40.2,21.41"/><path class="cls-4" d="M1205.75,695.81a62.81,62.81,0,0,0-37.82,7.56,62,62,0,0,0-21.81,20.92"/><path class="cls-4" d="M844.76,867.2a43.17,43.17,0,0,1,9.29,30.14"/><path class="cls-4" d="M714.7,804a158.53,158.53,0,0,1-3.6,72.74"/><path class="cls-4" d="M408.12,834.47c-5.52,4.47-26.78,44.65-28.13,61.94"/><path class="cls-6" d="M377.22,212.93c28.33-26.65,46-31.42,64.84-36.8,41.85-12,54.76-.88,98.57-14,39.51-11.85,48.93-33,75.29-31.14,22.57,1.6,39.74,19,50.38,32.71"/><path class="cls-7" d="M542.8,306.74c19.47-29.38,4.9-70-26.27-89.58-36.12-22.72-95.59-8.81-111.78,24.56-12.27,25.3,1.58,52.92,2,54.14C422.29,341,522.84,336.86,542.8,306.74Z"/><path class="cls-7" d="M715.86,251c-2.29-13.82-14.23-27.09-26.87-26.8-13.78.31-30.67,28.44-30.67,55.23,0,11.35,2.87,49.72,25.5,51.6C731.89,335,718.71,268.2,715.86,251Z"/><circle cx="509.97" cy="280.15" r="41.64"/><ellipse cx="699.11" cy="276.59" rx="20.16" ry="36.3"/><circle class="cls-8" cx="518.68" cy="279.73" r="21.81"/><ellipse class="cls-9" cx="700.55" cy="277.49" rx="7.89" ry="19.57"/><path class="cls-10" d="M560,293a153,153,0,0,1-67.11,85.5"/><path class="cls-4" d="M646.78,284.92a80.39,80.39,0,0,0,49.37,70.4"/><path class="cls-4" d="M580.65,567.28a109.88,109.88,0,0,1-53.86,1.78"/><path class="cls-4" d="M713.43,408.48A373.22,373.22,0,0,1,599.73,435c-97.35,6.9-172.68-26.76-207.89-45.55"/><path class="cls-4" d="M444,434.8a158.32,158.32,0,0,0,138.34,26.35"/><line class="cls-2" x1="584.42" y1="1523.99" x2="584.42" y2="1605.68"/><path d="M406.75,397c16.4,17.46,48.63,37.61,95.12,48.57,56.79,13.39,136.35,1.89,162.69-21.06h0L636.78,430a346.54,346.54,0,0,1-205-22.12Z"/><path class="cls-3" d="M517.87,1149.78c-67.48,55-114.8,113.08-141.4,152.39-39.79,58.82-58.76,91.77-55.81,134.56,7.12,103.62,114.33,120.89,124.59,124.6,11.24,4.05,117.35,40.36,197.36-26.92,33.83-28.44,70.54-81.75,62.8-136.55-3.81-27-16.2-38.68-76.75-121.61-26.17-35.83-43.25-68.37-56.27-87C561.12,1149.78,517.87,1149.78,517.87,1149.78Z"/><path class="cls-11" d="M584.91,1275.88c-111.69,25.95-149.18,46.11-148.42,61.92,1.51,31.14,151.26,36.34,153.81,70.54,1.67,22.55-61.41,47.78-149.19,72.1"/><path class="cls-11" d="M490.79,1239.73c-2,59.54-2.13,121.92,0,186.87q1.36,41.57,3.85,81.52"/><path class="cls-11" d="M535.18,1239.73c-2,59.54-2.14,121.92,0,186.87q1.37,41.57,3.84,81.52"/></svg>