<svg id="Layer_1" data-name="Layer 1" xmlns="http://www.w3.org/2000/svg" viewBox="0 0 792.97 637.08"><defs><style>.cls-1,.cls-5{fill:#64a151;}.cls-1,.cls-5,.cls-6{stroke:#010101;}.cls-1,.cls-4,.cls-5,.cls-6,.cls-9{stroke-miterlimit:10;}.cls-1,.cls-4{stroke-width:4px;}.cls-1,.cls-2,.cls-3{isolation:isolate;}.cls-2,.cls-7{fill:#010101;}.cls-3,.cls-8{fill:#fff;}.cls-4,.cls-6,.cls-9{fill:none;}.cls-4{stroke:#498bc9;}.cls-5,.cls-6{stroke-width:4.37px;}.cls-9{stroke:#231f20;stroke-width:6.52px;}.cls-10{fill:#231f20;}</style></defs><title>Popoysticker_</title><path class="cls-1" d="M408.83,491.66l-1.33-5a81.78,81.78,0,0,1-1.65-34.94l2.73-16.06c12.88-4.16,56.55-10.95,85.35-71.43,11-23.14,14.64-47.35,14.64-47.35s14.74-8,13.64-11.94c-1.3-4.69-11.58-5.95-11.9-6,19.27-40.78,28.3-68.62,20-89.54-6.55-16.45-15.37-18.37-20.84-43.74-3-14.09-3.19-20.09-11.05-28.92-6.81-7.64-24.16-20.95-30.33-35.5-11.48-27.09-67.52-40.64-72.16-41.41C192.62,26.06,197,212.29,199.06,240.24c1,14.19,8.15,60.69,38.09,102.2C260.46,374.75,344.91,414.35,347,496.75"/><path class="cls-2" d="M388.52,223c-1.21,22.72-20.78,32.31-52.66,32.31s-62.75-20.19-59.43-48.95c2.61-22.6,24.74-41.75,56.7-40.09S389.87,197.43,388.52,223Z"/><path class="cls-3" d="M384.36,222.13c-1.12,21-19.24,29.92-48.76,29.92s-58.1-18.69-55-45.32c2.42-20.93,22.91-38.66,52.5-37.13S385.61,198.42,384.36,222.13Z"/><circle class="cls-2" cx="319.18" cy="214.16" r="28.69"/><circle class="cls-4" cx="325.42" cy="214.39" r="16.16"/><path class="cls-5" d="M397.76,228.6a89.49,89.49,0,0,1-46.2,62.26"/><path class="cls-5" d="M257.43,172.28C277.3,148.6,305,138.4,319.18,139.17c72.61,4,77.12-27.95,114.74-33.07,19-2.58,35.21,14.66,45.74,27.36"/><path class="cls-5" d="M509.49,187.1a96.26,96.26,0,0,0-19.4,15.6c-10.46,10.93-18,24-16,25.87,1.67,1.53,8.21-6.36,21.69-9.51a47.91,47.91,0,0,1,14.07-1.14"/><path class="cls-5" d="M460.79,223.24A59.61,59.61,0,0,0,469.92,251a60.35,60.35,0,0,0,29.3,23.58"/><path class="cls-6" d="M508.57,316.93A338.69,338.69,0,0,1,453,329.43c-31.3,4.3-90.23,11.66-149.69-16.74a206.83,206.83,0,0,1-32.84-19.64"/><path class="cls-6" d="M285.32,287.9a28.64,28.64,0,0,1-26.72,4.83"/><path class="cls-7" d="M279.77,299.44c7.1,12.24,35.74,58.45,87.32,69.26a107.14,107.14,0,0,0,37,1.29c40.71-6.11,65.13-35.39,72.25-44.62a261.09,261.09,0,0,1-54.23,8.22C361.41,336.33,313.2,317.11,286,303.33Z"/><path class="cls-6" d="M369.84,432.06a126,126,0,0,0,47.57,1.1"/><path class="cls-1" d="M222.92,519.91a85.79,85.79,0,0,0,65,6.41,81.58,81.58,0,0,0,13.61-5.52c1.59-.82,28.16-14.75,25.91-26.38-1-5.18-6.71-4.67-10.36-11.78-5.74-11.15,4.35-20.09-1-30.15-3.94-7.5-10.45-4.22-17.43-12.72-8.27-10.07-1.9-18-9.42-28.74-6.64-9.43-12.66-4.73-24.5-15.55-12.28-11.22-11.72-21.69-21.67-24-6.15-1.45-11.62,1.31-14.61,2.82-13.91,7-17,23-17.43,25.44a183.57,183.57,0,0,0,1.89-41c-1.33-19.88-4.14-61.95-25.92-69.26-10.06-3.38-23.79.79-29.21,9.42-6.39,10.19,2.24,21.12,10.37,51.35,5.23,19.47,9.57,35.6,8.48,54.66-1.8,31.44-16.57,39.26-12.72,60.3,1.92,10.49,8.59,25,31.09,40.05Z"/><path class="cls-6" d="M175.25,301c-4.34,27.65,15.45,35.05,19.79,32.05,6.34-4.38,3.91-22-5-28.14-.72-.5-4.55-3-6.41-1.68-2.48,1.8-.6,11.22,4.58,17.71"/><path class="cls-8" d="M448.69,465c35.26-4,69.42-42.27,69.42-42.27s14.33,32.75,42.32,32.48c36.42-.35,54.21-61.65,54.21-61.65s35.52,59.28,82.51,44.93c0,0,11.1,35.76,64.66,33.43,0,0-30.21,11.63-38.72,31.68-8.06,19,4.68,47.74,4.68,47.74s-24.14-12.4-52.27-7.57c-5.07.87-11.11,2-17.06,6.05-19.71,13.53-16.92,44.93-16.51,49,0,0-54.73-46.39-89.68-36.86-23.67,6.45-46.77,38-46.77,38-2.55-3.32-17.9-22.58-44.57-24.76A62.44,62.44,0,0,0,424.05,584L420.58,587C404.11,531.2,365.92,522,366,521.91c59.29-39,48.39-76.09,48.39-76.09S434.25,466.66,448.69,465Z"/><path class="cls-9" d="M416.76,446.6c6.3,8.07,16,17.61,28.47,18.42,35.4,2.29,69.42-42.27,69.42-42.27S529,455.5,557,455.23c36.42-.35,54.21-61.65,54.21-61.65s39,59.28,86,44.93"/><path class="cls-9" d="M420.58,584c8.67-5.24,22.09-11.38,36.87-8.81C480,579.09,502,599.91,502,599.91s23.09-31.51,46.76-38c35-9.53,89.69,36.86,89.69,36.86s-.72-35.27,16.5-49c5.76-4.57,12.47-5.74,17.06-6.05"/><path class="cls-10" d="M427.35,547l-11.18,1q3.75-24.54,6.95-49.37,7.33-1,14.65-2.07Q446.4,520,455,544.42L444,545.47q-1.53-5-3.07-9.92l-12.6,1.27C428,540.21,427.67,543.59,427.35,547Zm2.12-19.18q4.21-.45,8.43-.93-3.11-9.12-6.2-18.12Q430.64,518.29,429.47,527.8Z"/><path class="cls-10" d="M503.3,539.46q-6.6.74-13.21,1.43-4.32-14.42-8.64-28.57-.65,14.82-1.45,29.62l-13.25,1.34q-6.71-24.85-13.51-49l10.35-1.55q4.59,16.79,9.14,33.88,1-17.37,1.84-34.8c2.78-.42,5.57-.85,8.35-1.29q5.28,16.63,10.53,33.6.23-18,.23-36.05l10.39-1.68Q503.92,512.92,503.3,539.46Z"/><path class="cls-10" d="M540.57,535.2q-12.87,1.53-25.78,3-3.4-26.39-7.1-52.41,12.33-2,24.62-4.12.78,5.14,1.54,10.29-7.19,1.16-14.38,2.28.79,5.46,1.55,10.94l13.05-1.93q.72,5,1.42,9.91-6.54.92-13.1,1.81.81,5.88,1.61,11.78,7.57-.94,15.13-1.93Q539.87,530,540.57,535.2Z"/><path class="cls-10" d="M568.59,506a16.09,16.09,0,0,1,4.68,9.7,14.8,14.8,0,0,1-2.54,11.42c-2.4,3.23-6.14,5.14-11.21,5.78a16.38,16.38,0,0,1-12.12-2.78c-3.23-2.44-5.2-6.26-5.95-11.47L552,517.17q1,6.87,6.34,6.16a4.3,4.3,0,0,0,3.53-2.2,6.43,6.43,0,0,0,.73-4c-.27-1.83-1.57-3.32-3.88-4.49-.45-.21-1.09-.52-1.91-.94s-1.39-.7-1.68-.86l-1.84-.91-2.1-1a38.17,38.17,0,0,1-4-2.33,32.64,32.64,0,0,1-3.7-3,14.51,14.51,0,0,1-4.53-9.14,13.68,13.68,0,0,1,2.36-10.35q3.27-4.51,10.18-5.74c9.77-1.74,15.49,2.53,17.15,12.93-3.48.57-6.95,1.15-10.43,1.71q-.91-5.84-5.34-5.09c-2.77.47-3.93,2.19-3.48,5.19.27,1.77,1.53,3.13,3.8,4.12l3.54,1.65c1.69.79,3,1.39,3.94,1.81a33.31,33.31,0,0,1,4,2.34A34.05,34.05,0,0,1,568.59,506Z"/><path class="cls-10" d="M609,498.32c2.33,13.9.44,23-5.63,27.16A14.25,14.25,0,0,1,597,528l-1.23.17a14.54,14.54,0,0,1-8.69-1.33,17.08,17.08,0,0,1-6.69-6.58,31.67,31.67,0,0,1-3.17-7.28,68.45,68.45,0,0,1-2.06-9.25l-.33-2.11c-2-12.86-.48-21.53,4.64-26.18a14.24,14.24,0,0,1,7.13-3.47l1.26-.24a13.57,13.57,0,0,1,8.45.91A16.24,16.24,0,0,1,603,479a32.89,32.89,0,0,1,3.31,7.35,66.5,66.5,0,0,1,2.27,9.55C608.68,496.72,608.82,497.52,609,498.32Zm-10.57-.43q-2.4-14.47-7-16.2a4.77,4.77,0,0,0-2.51-.18h-.05c-3.1.56-4.64,3.6-4.63,9.15,0,1.47.1,2.92.24,4.36s.37,3.27.67,5.13c.14.91.29,1.82.43,2.73,1.73,10.83,4.79,16,9.24,15.33s5.9-6.49,4.11-17.45C598.69,499.81,598.54,498.85,598.38,497.89Z"/><path class="cls-10" d="M627.6,523.71l-10.12,1.45q-4.66-28.84-9.66-57.23L618,466q7.13,11.85,14.28,24,2.61-13.86,5-27.85L647.54,460q5.54,29.34,10.71,59.14l-10.13,1.54q-2.85-16.52-5.81-32.88-3,12.13-6.24,24.14-7-10.43-13.88-20.59Q624.95,507.45,627.6,523.71Z"/><path class="cls-10" d="M688,514.46q-12.62,2-25.29,4-5.24-29.91-10.82-59.35Q664,456.62,676,454q1.14,5.79,2.27,11.61l-14.09,2.84q1.17,6.17,2.33,12.36l12.78-2.44q1.06,5.59,2.12,11.19-6.42,1.18-12.84,2.33,1.21,6.65,2.43,13.32,7.43-1.25,14.84-2.52C686.6,506.63,687.32,510.55,688,514.46Z"/></svg>