<svg id="Layer_1" data-name="Layer 1" xmlns="http://www.w3.org/2000/svg" viewBox="0 0 1063.73 780.26"><defs><style>.cls-1,.cls-6{fill:#fff;}.cls-1,.cls-3,.cls-4,.cls-7{stroke:#010101;}.cls-1,.cls-3,.cls-4,.cls-7,.cls-8,.cls-9{stroke-miterlimit:10;}.cls-1{stroke-width:4.44px;}.cls-2{fill:#231f20;}.cls-3{fill:#64a151;isolation:isolate;}.cls-3,.cls-8{stroke-width:4.62px;}.cls-4,.cls-7,.cls-8,.cls-9{fill:none;}.cls-4,.cls-9{stroke-width:3.47px;}.cls-5{fill:#010101;}.cls-7{stroke-width:3.67px;}.cls-8,.cls-9{stroke:#498bc9;}</style></defs><title>Popoysticker_</title><path class="cls-1" d="M835.6,741c24.8-13,73-46.75,72.07-118.93-.76-58.18-39.56-107.12-93.25-121.4q-.6-4.06-1.21-8a70.07,70.07,0,0,0-30.12-105.77c81.7-91,134.8-198.35,134.8-198.35s-12.64-48.34-47.06-49.89c-18.28-.82-185.92,94.41-292.3,160.27C566,284.54,399.47,343.89,399.67,346a44.41,44.41,0,0,1-6.9.8c0-.27,0-.53,0-.8a52.19,52.19,0,0,0-87.65-38.3l-2.37-1.8a79.54,79.54,0,0,0-124.63,97.25v.3a42.45,42.45,0,0,0-29.72,40.49c0,.16,0,.32,0,.48C73.16,453.24,21.91,517.57,14.75,594.89c-6,65,45.91,125,80.3,152.77"/><polyline class="cls-1" points="905.46 94.02 864.01 92.74 840.1 146.64 870.83 138.59"/><polyline class="cls-1" points="968.94 154.02 964.36 201.11 910.88 225.06 918.75 190.25"/><path class="cls-1" d="M870.83,138.59c-36,6.3-70.69,44.36-70.69,44.36s31.47-11,36.07-4.23C841,185.8,818,215.27,818,215.27S846.91,199,851.89,205c4,4.81-5.4,31.38-5.4,31.38s19-18.5,23.4-15.88c3.73,2.25-.69,26.82-.69,26.82s37.3-26.58,48.69-58.82"/><path class="cls-2" d="M882.74,147.33c-25.14,6.95-32.36,11.35-32.36,11.35s11.59.95,13.72,5.84c2.85,6.55-13.36,22.6-13.36,22.6s17-10.58,20.63-6.75c3.43,3.58-5.92,21-5.92,21s13.64-12.31,18-9.85c4.07,2.29,1.29,17.94,1.29,17.94s10.3-10.61,14.79-18.81c3.84-7,7.9-13.2,9.39-17.37"/><path class="cls-1" d="M870.14,139.78a214.06,214.06,0,0,1,61.37-67.62C971.09,44,1016.09,35,1035.64,32.6c-2.69,18.56-15.71,52.74-37.94,86.58a210.81,210.81,0,0,1-79,71.07l-.86-1.77a107,107,0,0,0-47.75-48.7Z"/><polygon class="cls-1" points="938.53 123.66 911.05 129.07 879.92 171.41 903.17 165.89 938.53 123.66"/><circle class="cls-2" cx="971.42" cy="93.87" r="16.12"/><path class="cls-2" d="M113.58,594.67l-11.23,9-9.29-11.58L127,564.88l9.3,11.58-11.16,9,39.35,49-11.52,9.25Z"/><path class="cls-2" d="M193.26,563.61q17.76,22.13,11,36a21.25,21.25,0,0,1-5.93,7.59l-1.36,1.09a20.45,20.45,0,0,1-11.3,4.74,22.8,22.8,0,0,1-12.53-3,41.62,41.62,0,0,1-8.83-6.45,90.5,90.5,0,0,1-8.87-9.64l-1.85-2.31q-17-21.11-12-34.8a20.52,20.52,0,0,1,6.64-9.08l1.42-1.15A20.38,20.38,0,0,1,160.86,542a22.71,22.71,0,0,1,12.53,3,43.8,43.8,0,0,1,8.86,6.42,87,87,0,0,1,9,9.7ZM180,570.56q-12.47-15.51-19.36-14.4a7.18,7.18,0,0,0-3.25,1.53l-.06,0q-5.23,4.21.34,14.2c1,1.74,2.09,3.43,3.23,5s2.65,3.66,4.27,5.68l2.38,3q14.13,17.6,21.53,11.64t-6.61-23.63Z"/><path class="cls-2" d="M208,518.82l-11.22,9-9.3-11.58L221.42,489l9.3,11.58-11.16,9,39.35,49-11.52,9.25Z"/><path class="cls-2" d="M284.79,537.79l-11.63,9.34L224.5,486.55l11.64-9.35,19.48,24.25L267.4,492l-19.48-24.25,11.64-9.35L308.22,519l-11.64,9.34-19.79-24.63L265,513.15Z"/><path class="cls-2" d="M341.53,492.23l-28.25,22.68-48.65-60.58,27.65-22.21,9.4,11.69L285.6,456.73l10.08,12.55,14.51-11.65,9,11.22L304.69,480.5,315.49,494l16.67-13.39Z"/><path class="cls-2" d="M250.4,753.74l-16.74,13.45-72.58-90.38,17.27-13.87L227.2,690.2l-16-53.65,17.45-14,72.58,90.37-16.83,13.52L243.78,676l10.8,48.29-44.64-21.12Z"/><path class="cls-2" d="M330.42,618.34q26.5,33,16.38,53.77a31.64,31.64,0,0,1-8.86,11.33l-2,1.63a30.46,30.46,0,0,1-16.85,7.06q-8.87.74-18.69-4.45a62.5,62.5,0,0,1-13.18-9.62A138.75,138.75,0,0,1,274,663.68l-2.76-3.45q-25.29-31.49-17.86-51.92a30.56,30.56,0,0,1,9.9-13.54l2.12-1.71a30.39,30.39,0,0,1,16.72-7q8.87-.74,18.7,4.46A65.54,65.54,0,0,1,314,600.07a129.69,129.69,0,0,1,13.36,14.48Zm-19.79,10.37Q292,605.56,281.75,607.23a10.52,10.52,0,0,0-4.84,2.29l-.09.07q-7.81,6.27.51,21.17,2.26,3.91,4.82,7.54,2.75,4,6.36,8.47l3.55,4.42q21.07,26.23,32.12,17.37,11.22-9-9.86-35.25Z"/><path class="cls-2" d="M393.54,567.65q26.5,33,16.37,53.78a31.56,31.56,0,0,1-8.85,11.32l-2,1.63a30.55,30.55,0,0,1-16.85,7.07q-8.87.72-18.69-4.46a62.5,62.5,0,0,1-13.18-9.62A136.65,136.65,0,0,1,337.09,613l-2.76-3.45Q309,578.05,316.47,557.62a30.49,30.49,0,0,1,9.9-13.54l2.12-1.7a30.33,30.33,0,0,1,16.72-7q8.87-.72,18.7,4.46a65.94,65.94,0,0,1,13.22,9.58,129.69,129.69,0,0,1,13.36,14.48ZM373.75,578q-18.58-23.14-28.88-21.49a10.62,10.62,0,0,0-4.84,2.29l-.09.07q-7.81,6.27.51,21.17,2.26,3.91,4.82,7.54,2.75,4,6.36,8.47l3.55,4.42q21.07,26.24,32.11,17.37,11.22-9-9.85-35.25Z"/><path class="cls-2" d="M452,591.88l-17,13.66-72.57-90.37,17-13.66,58.94,32.23L399.56,485.3l17-13.65L489.14,562l-17,13.65-57.75-30.56Z"/><path class="cls-2" d="M513.7,542.3l-17,13.65-72.57-90.37,17-13.66,58.94,32.23-38.75-48.44,17-13.65,72.58,90.37-17,13.65-57.75-30.56Z"/><path class="cls-2" d="M575.45,492.71l-17,13.65L485.87,416l17-13.66,58.94,32.23-38.75-48.44,17-13.65,72.58,90.37-17,13.66-57.75-30.57Z"/><path class="cls-2" d="M637.2,443.12l-17,13.65L547.62,366.4l17-13.66L623.56,385l-38.75-48.44,17-13.65,72.58,90.37-17,13.66-57.75-30.57Z"/><path class="cls-2" d="M699,393.53l-17,13.65-72.57-90.37,17-13.66,58.94,32.23-38.75-48.44,17-13.65,72.58,90.37-17,13.66-57.75-30.57Z"/><path class="cls-2" d="M760.7,343.94l-17,13.65-72.57-90.37,17-13.66,58.94,32.23-38.75-48.44,17-13.65,72.57,90.37-17,13.66-57.75-30.57Z"/><path class="cls-3" d="M544.11,734c10.35-17.14,11.82-31.94,12-39.46.42-20.93-8.75-36.86-16.69-52.3a142.14,142.14,0,0,0-17.93-26.68c-37.66-44.68-74.55-54.17-106.86-107.61-42.37-70.05-28.68-160-23-181,6.78-25.1,23.75-78.89,72.3-110.59C508.84,187,572.28,179.7,634.8,204.77a142.91,142.91,0,0,1,71.6,63.7l.93,1.68,12.39,11a64.83,64.83,0,0,1,20.56,35.51l2,9.51,10.41,17.52a171,171,0,0,1,19.39,48l.6,2.52c21.07,26.74,5.35,70.62-32.74,81.41-13.53,3.84-27.37,19.63-36.21,39.26-1.27,2.82-10.06,28.93-2,36.51,4.22,4,16.9.83,26.63,7.44,8.09,5.5,4.48,15.3,4,16.79-5.35,15.43-33.22,21.56-35.84,22.11a138.2,138.2,0,0,1-68.15,34.81,96.88,96.88,0,0,0-5.87,30.41c0,.15,0,.3,0,.44a63.67,63.67,0,0,0,15.93,43.58L662.15,734"/><path class="cls-4" d="M450.78,332.92c19.12-43.75,80-44.56,124.86-46.26,35.56-1.35,55.65-27.08,72.29-32,16.94-5,31.48,3,58.58,27.08"/><path class="cls-5" d="M756.51,468c-22.88,6.06-50,11.89-80.73,12.55-78.66,1.69-142.46-17.26-182.11-34.78-5.72-2.53-14.41-4.69-15.93,4.14,0,.05-.11,1.58-.12,1.63-3.68,121,223.77,174.44,247.16,107,2.48-7.14-16.08-2.76-22.24-8.41-8.09-7.41,4.11-38.12,12.69-52.14C726.21,480,756.51,468,756.51,468Z"/><path class="cls-3" d="M582.73,629.87a207.78,207.78,0,0,0,51.68,1.28"/><path class="cls-5" d="M531,322.23c-35.19,0-56.93,19.72-56.93,49a46.56,46.56,0,0,0,7,23.89A68.57,68.57,0,0,1,517,409.38a42.25,42.25,0,0,1,12.67,17.88,68.17,68.17,0,0,0,11.64,1c35.19,0,61.24-16.44,61.24-45.72C602.54,349.47,566.19,322.23,531,322.23Z"/><path class="cls-6" d="M531.24,325.89c-33.23,0-53.76,18.58-53.76,46.18a43.83,43.83,0,0,0,6.65,22.52A64.84,64.84,0,0,1,518,408a39.68,39.68,0,0,1,12,16.85,64.79,64.79,0,0,0,11,1c33.24,0,57.84-15.49,57.84-43.09C598.8,351.57,564.48,325.89,531.24,325.89Z"/><path class="cls-5" d="M714.77,425.84a75.53,75.53,0,0,1,22.1-22,74.07,74.07,0,0,1,13.65-6.92,175.82,175.82,0,0,0-2.16-19.36c-4-26-15.51-42-27.83-42s-23.65,20.89-23.65,47.18C696.88,403.48,705.2,419.88,714.77,425.84Z"/><path class="cls-6" d="M715.53,421.78a69.06,69.06,0,0,1,20.23-20.18,68,68,0,0,1,12.49-6.33,160,160,0,0,0-2-17.73c-3.63-23.79-14.19-38.44-25.47-38.44s-21.65,19.13-21.65,43.19C699.15,401.31,706.76,416.32,715.53,421.78Z"/><ellipse class="cls-5" cx="722.17" cy="379.64" rx="15.65" ry="27.51"/><ellipse class="cls-5" cx="546.63" cy="379.62" rx="39.51" ry="33.39"/><path class="cls-7" d="M420.93,430.31c40.58-74.27,120.47-24,112.56,18.63"/><path class="cls-7" d="M611.48,394.45a101.65,101.65,0,0,1-25.36,44.82"/><path class="cls-7" d="M684.32,385.9a81.83,81.83,0,0,0,23.29,49"/><path class="cls-7" d="M711.15,429.84a72.57,72.57,0,0,1,25.72-26c13.31-7.89,26.76-10.52,35.77-9.65"/><path class="cls-3" d="M723.7,738.36l-10.57-17.49-19.92-26.35C684.87,685.78,668,647.9,680,636.43c2-1.87,5.71-3.76,12-6.91,7.64-3.83,12.42-6.28,17.07-7.9a179.14,179.14,0,0,1-3.75-30.92c-.14-2.7.74-7.59,2.25-9.31,7.89-9,18.49-.82,31.25-7.43,10.1-5.24,10-13.68,18.85-16.64,17.57-5.85,16.13,12.13,31.69,10.91,8.34-.66,6.46-6.26,16.7-6,7,.14,6,5.54,16.22,12.09,4.44,2.85,6.38,1.31,9.49,3.21,12,7.34,8.71,39.45,7.12,49.24-1.83,11.15-5.5,24.72-13.75,41.93a352.27,352.27,0,0,0-24.83,68.85l-.2.85"/><ellipse class="cls-8" cx="549.62" cy="379.23" rx="22.67" ry="20.22"/><circle class="cls-6" cx="532.69" cy="390.79" r="11.56"/><circle class="cls-6" cx="571.04" cy="380.49" r="7.49"/><ellipse class="cls-9" cx="723.29" cy="380.33" rx="6.57" ry="10.46"/><ellipse class="cls-6" cx="731.72" cy="371.87" rx="6.1" ry="5.41"/><ellipse class="cls-6" cx="715.02" cy="383.45" rx="5.75" ry="6.17"/><line class="cls-3" x1="716.93" y1="659.85" x2="709.33" y2="623.02"/><path class="cls-1" d="M534.05,701.65a36.33,36.33,0,0,0-38-16,52.63,52.63,0,1,0-83.93,62.56"/><path class="cls-6" d="M551.32,552.17c1.8-7,5.83-20.69,16.25-27.67,18-12.08,48.13-6.71,70.68,16.51,1.14-1.9,4.4-6.72,10.22-8.33,8.1-2.24,15.27,3.35,18.31,5.72,14.79,11.52,15.36,40.25,15.09,43.58C597.94,588,551.32,552.17,551.32,552.17Z"/></svg>