<svg id="Layer_1" data-name="Layer 1" xmlns="http://www.w3.org/2000/svg" viewBox="0 0 792.97 637.08"><defs><style>.cls-1{fill:#1e1a1b;}.cls-2{fill:#c7c8ca;}.cls-3{fill:#1f1b1c;}.cls-4{fill:#201d1e;}.cls-5{fill:#232021;}.cls-6{fill:#262324;}.cls-7{fill:#64a151;stroke-width:4px;}.cls-7,.cls-8{stroke:#010101;stroke-miterlimit:10;}.cls-11,.cls-7{isolation:isolate;}.cls-8{fill:none;stroke-width:3px;}.cls-11,.cls-9{fill:#010101;}.cls-10{fill:#fff;}.cls-12{fill:#498bc9;}</style></defs><title>Popoysticker_</title><path class="cls-1" d="M407.68,129.29a43.26,43.26,0,0,0,6.38-1.22c4.25-.9,8.49-1.89,12.72-2.88.79-.19,1.09,0,1.35.76q7.1,21.81,12.12,44.2c1.17,5.17,2.28,10.36,3.25,15.57a.61.61,0,0,0,.37.52c.57-4.48,1.15-8.9,1.67-13.32q1.4-11.65,2.2-23.38c.49-6.89.88-13.79,1.06-20.7.06-2.29.15-4.58.17-6.88,0-.51.16-.74.65-.86,5-1.27,10-2.52,14.95-3.85.85-.23.79.34.93.73q5.13,14.61,9.44,29.49,5.47,18.9,9.65,38.13a1.15,1.15,0,0,0,.14.28,36.39,36.39,0,0,0,.46-5.24c.72-11.78,1.18-23.57,1.27-35.38.09-11-.16-21.93-.56-32.88-.1-2.68-.1-2.68,2.42-3.44l17.4-5.3c.14,2.78.29,5.55.41,8.32.49,11.42.58,22.84.49,34.27-.09,12-.58,23.9-1.35,35.83-.64,10.06-1.55,20.1-2.62,30.13-.36,3.37-.81,6.74-1.2,10.12-.08.73-.27,1-1.12.92-8-.54-16-1.28-24-1.93-1.05-.09-1.46-.41-1.62-1.49q-4-26.33-10.58-52.13c-.52-2-1-4-1.76-6.06-.17,1.93-.35,3.86-.51,5.79q-2,23.25-5.95,46.22c-.26,1.55-.55,3.08-.77,4.63-.09.65-.36.8-1,.72q-12.37-1.62-24.77-3.17c-.6-.08-.8-.29-.89-.9-1.54-10.27-3.34-20.49-5.52-30.64a446.72,446.72,0,0,0-12-44.94c-1.05-3.21-2-6.46-3.32-9.58Z"/><path class="cls-2" d="M595.16,208.67a.4.4,0,0,1,0,.19H580v-.25a1.83,1.83,0,0,1,1.3-.35q6.24,0,12.48,0A1.59,1.59,0,0,1,595.16,208.67Z"/><path class="cls-3" d="M581.88,225.72l-15.15-.06c-.17-5.73-.29-11.45-.52-17.18-.39-9.95-.92-19.91-1.72-29.84-.25-3.16-.53-6.31-.73-9.48,0-.79-.31-.94-1-.83q-9.51,1.42-19.08,2.52c-.79.09-.87.45-.82,1.12.48,6.7,1,13.4,1.38,20.11q.84,14.7,1.06,29.42c0,1,0,2.06.08,3.09,0,.67-.21.85-.85.82-5.15-.21-10.3-.39-15.45-.58-1.41-.06-2.82-.15-4.24-.17-.61,0-.75-.24-.75-.82.06-5.81-.12-11.61-.3-17.42q-.4-12.46-1.24-24.93-.93-14-2.41-28-1.32-12.47-3.1-24.89-1.9-13.32-4.32-26.56c-.11-.62.06-.76.58-.93q9.16-3.06,18.31-6.18c.69-.23.87-.12,1,.62,1.79,9.49,3.36,19,4.77,28.57,1,6.91,2,13.83,2.74,20.78.07.65.34.74.88.63q9.59-2,19.18-3.91c.73-.15.63-.62.57-1.11-.55-4.17-1.07-8.33-1.66-12.49-1.28-9-2.68-18-4.28-27-.75-4.21-1.52-8.41-2.34-12.61-.15-.75,0-1,.69-1.21q8.93-3.36,17.82-6.83c.86-.34,1-.14,1.2.69,1.3,7.16,2.69,14.32,4,21.49,1.73,9.85,3.21,19.74,4.53,29.66q1.9,14.36,3.33,28.78,1.29,13.11,2.19,26.26c.54,8.07,1,16.16,1.25,24.25.14,4.35.26,8.7.44,13,0,.83-.16,1.13-1,1.1C585.17,225.62,583.52,225.7,581.88,225.72Z"/><path class="cls-4" d="M623.25,123.9l.42-8.32c.78-15.77,1-31.54.92-47.33,0-3.24-.08-6.49-.17-9.74a1.11,1.11,0,0,1,.75-1.21q9-4.19,18-8.45c.89-.42,1-.33,1,.64,0,9.48,0,19-.24,28.44q-.45,18.09-1.6,36.16c-.54,8.34-1.18,16.68-2,25-.66,6.84-1.43,13.68-2.19,20.51-.28,2.54.25,5,.44,7.53.53,6.89,1.21,13.77,1.72,20.66.71,9.52,1.22,19.05,1.64,28.59q.13,3,.25,6.06c0,.52.08.92-.71,1q-9.5.51-19,1.13c-1,.07-1.31-.2-1.34-1.27q-.56-18.21-1.86-36.37c-.5-7-1.06-13.94-1.72-20.9-.23-2.41-1.37-4.58-2.17-6.84a713.48,713.48,0,0,0-32-76.12c-.91-1.85-1.8-3.7-2.75-5.53-.31-.6-.3-.89.39-1.17q9.24-3.8,18.46-7.68c.73-.31.89,0,1.14.53q7.75,17.13,14.65,34.62c2.49,6.38,4.88,12.81,7.32,19.21l.36.91Z"/><path class="cls-5" d="M700.08,38.16l3.83.37a21.38,21.38,0,0,1,12.61,7.81,45.22,45.22,0,0,1,8.35,16.52,89.29,89.29,0,0,1,3.71,28.93c-.27,2.86-.55,5.72-.82,8.58A97.35,97.35,0,0,1,721.32,123c-2.27,5.72-4.89,11.32-6.58,17.23a52.71,52.71,0,0,0-1.64,19.6c.08.91-.22,1.17-1.13,1.34-6.67,1.24-13.33,2.52-20,3.78-.61.11-1.17.34-1.22-.64a94.92,94.92,0,0,1,.43-19.87c1.25-8.31,4-16.23,7.14-24,2.42-6,5.22-12,7-18.18,2.7-9.29,3-18.58-.47-27.9a14.35,14.35,0,0,0-3.25-5.22,7.52,7.52,0,0,0-8.17-2c-4.52,1.43-6.7,4.67-8.07,8.46-1.76,4.88-2,10-1.9,15.06,0,1.68.12,3.36.24,5,0,.65-.15,1-.91,1.18q-8.84,2.43-17.64,4.95c-.76.22-1,.07-1-.65-.81-10.81-.78-21.56,1.88-32.12,2.08-8.27,5.56-15.95,12.41-22a34.19,34.19,0,0,1,20.35-8.84C699.2,38.16,699.64,38.17,700.08,38.16Z"/><path class="cls-6" d="M691.57,179.75c-.43-1.09.37-1.27,1.55-1.46,6.37-1,12.73-2.14,19.09-3.24,1.74-.29,1.72-.3,1.78,1.24.24,6.42.56,12.84.74,19.27.2,7.15.28,14.31.46,21.46,0,.86-.27,1.15-1.22,1.25q-10.1,1-20.2,2.16c-.89.1-1.25,0-1.25-.94q0-17.13-.75-34.27C691.69,183.46,691.64,181.69,691.57,179.75Z"/><path class="cls-7" d="M225.16,543.14c-6.2-71.66-67.25-105-88.58-125.66C79.16,362,77.29,279.07,77.39,268.64,77.62,245.1,81.16,184,122.84,142c25.53-25.71,51.62-34.62,65.35-38.07,6.33-1.58,102.55-12.22,142.72,30,12,12.58,10.38,13.19,23.19,31,11,15.35,25.88,11.77,32.67,49.3,2.69,14.88,15.75,24.76,21.39,40.54,5.2,14.52,4.25,45.73-16.52,86.14q27-5.28,29.24,0c2,4.66-10.13,24.58-38.14,36.9-1.92,12-8.16,41.45-37.39,70.3a134.51,134.51,0,0,1-60.09,34.11,89.76,89.76,0,0,0,2.91,59.62"/><path class="cls-8" d="M204.46,410A552.39,552.39,0,0,1,306,363.82c26.83-9.06,63.22-18.66,85.64-22.89"/><path class="cls-8" d="M248.19,480.84c5.76,1.19,25.45,4.1,38.4,1"/><path class="cls-9" d="M393.86,272.18c0,23.14-8.69,34.47-24.61,33.74-13.71-.62-24.57-18.15-23.69-41.81.87-23.12,10.69-39.5,23.05-39.5S393.86,249,393.86,272.18Z"/><path class="cls-10" d="M391.74,271.8c0,21.43-7.87,31.92-22.28,31.25-12.42-.57-22.25-16.81-21.45-38.72.78-21.41,9.68-36.58,20.87-36.58S391.74,250.37,391.74,271.8Z"/><path class="cls-11" d="M378.87,251.86c0,13.58-6.52,24.59-14.56,24.59s-15.39-10.14-15.39-23.72,7.35-25.46,15.39-25.46S378.87,238.28,378.87,251.86Z"/><path class="cls-8" d="M273.33,275.47c-1.87,11.51-15,42.65-48.19,64.48"/><path class="cls-12" d="M363.09,238.65c-4.18,0-7.57,5.26-7.57,11.74s3.39,11.75,7.57,11.75,7.56-5.26,7.56-11.75S367.27,238.65,363.09,238.65Zm0,20.49c-3.11,0-5.64-3.91-5.64-8.75s2.53-8.74,5.64-8.74,5.63,3.91,5.63,8.74S366.2,259.14,363.09,259.14Z"/><path class="cls-11" d="M255.41,239.06a199.44,199.44,0,0,1-29.55,8.09,202.81,202.81,0,0,1-69.12,1.18c-1.82,4.13-2.35,9.41-1.2,16.17,3.15,18.54,19.08,39.43,52.83,39.43s54.17-12.86,57.23-33.77C267.61,256.38,264.93,245.42,255.41,239.06Z"/><path class="cls-10" d="M251.78,239.57a181.12,181.12,0,0,1-27.21,7.34,196.4,196.4,0,0,1-64.89,1.46c-1.62,3.84-2.06,8.72-1,14.93,3,17.48,18,37.18,49.83,37.18s51.08-12.12,54-31.85C264.37,255.58,260.85,245.55,251.78,239.57Z"/><path class="cls-11" d="M251,240.77a168.2,168.2,0,0,1-21.29,5.55,170.74,170.74,0,0,1-30.46,3.06c.89,10.64,12.51,19.06,26.73,19.06,14.8,0,26.79-9.12,26.79-20.37A16.18,16.18,0,0,0,251,240.77Z"/><path class="cls-12" d="M243.2,243.78c-.95,7-8,12.4-16.55,12.4a17.57,17.57,0,0,1-14-6.48l-2.81.3c3.22,5.05,9.56,8.48,16.84,8.48,10.31,0,18.68-6.86,19.08-15.44C244.89,243.29,244.06,243.55,243.2,243.78Z"/><path class="cls-7" d="M303.48,593.92c-4.17-18.71-6.77-37.56-10.68-56.3a18.61,18.61,0,0,1,.64-10l.08-.21c2.76-12.61,20.8-6.26,19.46-18.51-2.3-21-.75-47.73-.3-74.46.37-21.25,1-41,14.3-53.63,2.23-2.12,12.1-8.86,18.81-6.09,4.34,1.8,3.62,12.13,1.09,15.94C334,410,329,484.53,340.29,486.87c3.63.75,5.13-4.31,10.92-3.93,9.16.6,11.64,13.69,19.86,13.75,6,.05,7.28-6.87,12.66-6.33,7.23.72,5.79,10.2,14.89,12.46,5.82,1.45,11.37-.93,14.36,2.17,4.54,4.69,3.94,21.92,1,33.21-3.53,13.48-27.79,52.11-29.88,58.22"/><path class="cls-8" d="M113.25,245.2c91.28,6.2,135.76,6.35,149-15s24.28-68.94,47.6-75.15c16.43-4.37,34.24,14.87,45.63,26.78"/><path class="cls-8" d="M338,278.28a54.61,54.61,0,0,0,40.89,45.87"/></svg>