
<svg class="w-12 h-12 sm:w-18 sm:h-18" viewBox="0 0 24 24" fill="none" xmlns="http://www.w3.org/2000/svg"><g clip-path="url(#clip0_2_42)"><rect width="24" height="24" rx="12" fill="#5C7DFF"></rect><g clip-path="url(#clip1_2_42)"><path d="M11.9984 2.5L11.8776 2.9102V14.8121L11.9984 14.9326L17.523 11.6669L11.9984 2.5Z" fill="#C0CCF7"></path><path d="M11.9984 2.5L6.47363 11.6669L11.9984 14.9326V9.15571V2.5Z" fill="white"></path><path d="M11.9984 15.9786L11.9303 16.0615V20.3012L11.9984 20.4999L17.5264 12.7146L11.9984 15.9786Z" fill="#C0CCF7"></path><path d="M11.9984 20.4999V15.9786L6.47363 12.7146L11.9984 20.4999Z" fill="white"></path><path d="M11.9984 14.9325L17.523 11.6669L11.9984 9.1557V14.9325Z" fill="#8198EE"></path><path d="M6.47363 11.6669L11.9984 14.9325V9.1557L6.47363 11.6669Z" fill="#C0CCF7"></path></g></g><defs><clipPath id="clip0_2_42"><rect width="24" height="24" fill="white"></rect></clipPath><clipPath id="clip1_2_42"><rect width="18" height="18" fill="white" transform="translate(3 2.5)"></rect></clipPath></defs></svg>